<?xml version="1.0" encoding="utf-8"?>
<!-- Generator: Adobe Illustrator 16.0.3, SVG Export Plug-In . SVG Version: 6.00 Build 0)  -->
<!DOCTYPE svg PUBLIC "-//W3C//DTD SVG 1.1//EN" "http://www.w3.org/Graphics/SVG/1.1/DTD/svg11.dtd">
<svg version="1.1" id="PILLS" xmlns="http://www.w3.org/2000/svg" xmlns:xlink="http://www.w3.org/1999/xlink" x="0px" y="0px"
	 width="200px" height="136px" viewBox="0 0 200 136" enable-background="new 0 0 200 136" xml:space="preserve">
<path fill="#202225" d="M200,128c0,4.418-3.582,8-8,8H8c-4.418,0-8-3.582-8-8V8c0-4.418,3.582-8,8-8h184c4.418,0,8,3.582,8,8V128z"
	/>
<g>
	<path fill="none" d="M8.878,102.35l28.178-63.085L22,35.51V0H8C3.582,0,0,3.582,0,8v96.518L8.878,102.35z"/>
	<path fill="none" d="M162.881,39.296l28.014,63.021l9.105,2.156V8c0-4.418-3.582-8-8-8h-14v35.536L162.881,39.296z"/>
	<polygon fill="#FFFFFF" points="92.474,46.136 83.582,76 102.488,76 	"/>
	<path fill="#FFFFFF" d="M37.056,39.264L8.729,102.35L0,104.518V128.4c0,0.209,0,0.414,0,0.619v-16.715l14.245-3.476L47.878,34.15
		L30,29.624V0h-8v35.51L37.056,39.264z"/>
	<polygon fill="#FFFFFF" points="152.082,34.15 185.4,108.829 200,112.249 200,104.473 190.812,102.314 162.881,39.296 178,35.536 
		178,0 170,0 170,29.632 	"/>
	<polygon fill="#FFFFFF" points="111.268,108.912 107.717,98 77.478,98 73.723,108.893 86,112.305 86,136 100,136 100,112.305 	"/>
	<path fill="#D42027" d="M47.886,34.15l-33.682,74.678L0,112.305v16.713C0.4,133.146,3.791,136,8,136h78v-23.695l-12.277-3.414
		L77.478,98h30.239l3.551,10.912L100,112.305V136h92c4.418,0,8-3.182,8-7.602v-16.149l-14.573-3.42L152.082,34.15L170,29.632V0H30
		v29.624L47.886,34.15z M169.777,111l-9.397,7.523l3.587,11.388l-9.71-7.351l-9.687,7.022l3.758-11.177L139.184,111h11.367
		l3.706-10.605L157.962,111H169.777z M154.925,81l-9.407,7.333l3.601,11.287l-9.705-7.394l-9.711,7.006l3.774-11.006L124.334,81
		h11.352l3.728-10.613L143.096,81H154.925z M128.631,50h11.821l-9.413,7.234l3.588,11.232l-9.691-7.427l-9.705,6.966l3.762-10.888
		L109.855,50h11.371l3.709-10.61L128.631,50z M105.45,19l3.72-10.625L112.857,19h11.834l-9.422,7.325l3.597,11.299l-9.695-7.4
		l-9.72,6.977l3.762-10.977L94.109,19H105.45z M92.474,46.136L102.488,76H83.582L92.474,46.136z"/>
	<polygon fill="#FFFFFF" points="99.45,37.185 109.17,30.193 118.865,37.562 115.27,26.325 124.689,19 112.857,19 109.17,8.375 
		105.45,19 94.109,19 103.212,26.216 	"/>
	<polygon fill="#FFFFFF" points="109.855,50 118.992,57.104 115.23,68.093 124.936,61.04 134.627,68.378 131.039,57.249 140.452,50 
		128.631,50 124.936,39.39 121.227,50 	"/>
	<polygon fill="#FFFFFF" points="135.686,81 124.334,81 133.477,88.216 129.701,99.279 139.413,92.227 149.117,99.572 
		145.518,88.341 154.925,81 143.096,81 139.413,70.387 	"/>
	<polygon fill="#FFFFFF" points="150.551,111 139.184,111 148.328,118.411 144.57,129.559 154.257,122.561 163.967,129.936 
		160.38,118.52 169.777,111 157.962,111 154.257,100.395 	"/>
</g>
</svg>
