<svg width="500" height="500" viewBox="0 0 500 500" xmlns="http://www.w3.org/2000/svg"><title>Logos/Clubs/BAL/Primary</title><desc>Created with Sketch.</desc><g fill="none"><path d="M0 0h500v500h-500z"/><path d="M491.341 276.819c-1.96-11.916-9.819-29.417-36.182-45.163-1.781-1.064-3.651-2.1-5.578-3.119 4.932-1.657 10.03-3.367 10.03-3.367l-29.217-11.38c-2.501-.975-5.123-1.852-7.778-2.705l3.968-4.025-22.403-3.135c-9.681-1.357-17.316-1.669-23.167-1.584-.057-.942-.13-1.811-.228-2.591 0-.008-3.741-28.028-3.741-28.028s-8.668 11.823-9.53 12.997c-1.842-3.066-3.932-5.95-6.331-8.659 0-.004-24.163-27.297-24.163-27.297s.964 8.029 1.736 14.438c-7.835-5.459-16.45-10.336-25.981-14.418-38.878-16.656-88.042-20.116-134.893-9.508-39.187 8.878-95.767 32.024-142.76 91.861l-27.123 34.538 40.825-16.246c.325-.13 31.84-12.404 57.255-15.982 9.478-1.336 16.735-1.442 10.844 11.526-4.643 10.235-15.19 25.173-15.3 25.323l-20.443 29.701 34.1-11.827c16.402-5.698 31.124-8.505 38.569-8.769 2.659.049 3.147 1.803 2.309 3.712-.24.662-.378 1.007-2.22 3.834l-21.382 30.485 35.072-12.55c25.452-9.122 58.914-15.129 70.884-10.56.976.37 4.139 2.047 1.004 6.64l-13.775 21.891s20.337-3.083 23.228-3.529c1.598 19.99 11.636 30.891 12.873 32.15l14.775 15.137 5.188-20.498c3.724-14.751 10.742-22.789 17.003-27.167 0 .008 1.203 8.423 1.203 8.423l13.698-4.935c11.515-4.159 20.63-9.154 27.192-14.853 8.681-.686 29.888-1.949 50.258.065 35.109 3.468 58.658-1.194 65.042-2.709 8.538-2.019 15.735 1.625 15.812 1.665l10.437 5.67 5.631-10.56c.667-1.267 3.85-7.859 3.85-17.631 0-2.421-.195-4.866-.594-7.266" fill="#fff"/><path d="M486.45 278.843c-1.736-10.555-8.888-26.159-33.137-40.65-6.485-3.858-13.527-7.16-20.655-9.967l8.587-2.884-11.795-4.597c-5.843-2.278-11.982-4.155-18.313-5.678 1.216-1.231 2.533-2.575 2.533-2.575l-9.038-1.271c-13.922-1.945-23.533-1.722-29.189-1.194.053-1.218.094-2.506.094-3.805 0-1.819-.069-3.611-.26-5.06l-1.517-11.319s-5.497 7.501-6.29 8.586c-1.817-5.044-4.798-11.295-10.238-17.452l-9.766-11.035 1.106 9.211c-8.778-8.147-20.927-16.712-37.581-23.848-37.78-16.185-85.684-19.527-131.4-9.175-38.317 8.679-93.649 31.329-139.654 89.902l-11.592 14.771 17.455-6.953c.325-.126 32.791-12.972 59.183-16.497 10.348-1.373 17.491-.15 20.106 3.456 2.44 3.379 1.655 10.064-2.135 17.898-5.188 10.75-15.792 26.184-15.898 26.346l-8.742 12.692 14.58-5.052c19.211-6.673 43.432-11.607 49.046-7.94 1.297.849 1.996 1.848 2.269 3.245.899 4.662-3.119 11.729-4.598 13.849l-9.152 13.025 15.003-5.361c23.968-8.586 66.94-18.43 80.223-8.261 6.144 4.707.403 14.008.146 14.398l-5.895 9.378 10.945-1.669 5.355-.829c-.033.857-.089 1.726-.089 2.542 0 21.164 10.718 32.418 11.234 32.954l6.322 6.474 2.22-8.777c6.221-24.636 20.943-33.165 29.148-36.057.228 1.633 1.37 9.613 1.37 9.613l5.855-2.112c14.361-5.178 22.403-10.86 26.818-15.124 6.607-.577 30.811-2.404 54.052-.114 34.226 3.387 56.975-1.109 63.135-2.571 11.348-2.68 20.569 2.222 20.667 2.27l4.505 2.457 2.419-4.528c.155-.284 3.07-5.95 3.07-14.515 0-1.925-.15-3.996-.512-6.198" fill="#9E7C0C"/><path d="M450.301 243.308c-10.124-7.152-23.761-12.355-36.991-16.075 5.509-1.779 11.027-1.661 11.027-1.661-8.477-3.237-17.329-5.26-25.562-6.535l3.082-2.762c-15.08-2.567-25.607-2.372-31.852-1.722.785-3.087 1.423-7.802.618-14.097 0 0-1.83 5.426-6.265 8.797-.585-7.042-2.838-17.229-10.49-24.141l1.419 12.432c-6.741-10.141-19.569-23.109-43.822-34.441-65.928-30.781-182.098-19.113-245.867 63.159 0 0 24.798-12.379 59.154-13.2 18-.422 22.374 9.646 15.816 26.614-6.595 17.054-18.154 32.016-18.154 32.016s77.747-27.52 53.202 10.71c0 0 58.691-17.558 76.296 3.038 8.185 9.557-1.346 22.923-1.346 22.923l16.65-3.598c-5.399 21.123 4.054 34.615 4.054 34.615 6.871-27.614 30.831-34.969 39.313-36.362l1.834 7.481c14.214-5.134 20.899-10.596 24.72-15.096 30.1-4.727 50.539-.686 73.743.577 33.799 1.844 51.27-4.037 56.853-4 4.098.037 8.957 3.607 8.957 3.607s14.048-23.686-26.387-52.279" fill="#000"/><path d="M422.555 288.231c-23.403.114-44.253-5.836-72.519-2.352l-9.469-7.595c-2.557 6.559-6.066 11.019-6.066 11.019 3.123-5.58-.069-12.209-1.391-15.454-11.645-6.186-30.701-18.021-14.515-21.883-10.083-1.503-40.801-4.533-79.288 6.445 0 0 35.58-23.739 104.005-12.582-18.487-11.023-58.996-10.568-58.996-10.568 36.914-9.219 81.464 5.361 98.003 10.763l-15.414-11.132 19.471 1.685-10.466-8.427s41.423 2.936 68.384 20.892c31.51 18.439 27.652 37.8 27.652 37.8-7.392-15.466-62.09-26.034-125.289-33.49-16.877-1.982-24.005-.881-23.293 3.054.675 3.704 10.417 11.019 20.175 14.857-6.977-6.693-.915-8.399-.915-8.399 11.092-.906 82.696 5.792 119.268 21.448-9.909 2.311-22.505 3.826-39.337 3.919zm-209.359-37.727c-.358.227-.728.467-1.086.707-.394.28-.793.548-1.187.816l-.573.39c-1.716.093-3.407.15-5.054.15l-15.162.873c-9.002.459-24.196 2.283-29.25 2.924l-1.708.207c11.779-41.179 22.411-55.613 29.53-62.672 4.233-5.158 11.718-8.655 17.719-10.694-40.321 1.921-79.52 10.21-79.52 10.21 25.351-19.653 84.131-33.385 118.016-29.933 33.881 3.456 31.575 17.184 28.091 25.014-2.822 6.328-16.662 14.905-29.677 17.675 13.474 1.755 21.106 12.144 16.28 22.516-.415.889-.894 1.75-1.407 2.579-14.381 3.412-27.144 8.821-37.617 14.731-.366.215-.728.426-1.094.634-.488.284-.98.569-1.464.857l-1.114.662c-.455.276-.903.556-1.346.833-.37.236-1.96 1.243-2.379 1.519z" id="Combined-Shape" fill="#fff"/><path d="M293.159 165.743c73.214 21.826 62.126 63.78 62.126 63.78s-5.912.374-12.885-12.647c-6.583-12.29-16.308-13.866-16.308-13.866s7.184-.662 17.272 3.728c0 0-14.174-21.241-54.637-19.604 0 0 20.411 2.51 29.055 13.91 0 0-27.489-4.325-52.214 8.456 0 0 22.053-3.643 38.967 7.741 0 0-25.363-1.897-39.284 12.538 12.389-2.287 25.822-3.03 39.894-1.365 9.209 1.397 17.04 3.261 22.801 4.862-14.332-1.58-29.534-1.535-43.631 1.986 0 0 40.508-.455 58.996 10.568-68.424-11.157-104.005 12.582-104.005 12.582 38.487-10.978 69.205-7.948 79.288-6.445-16.186 3.862 2.87 15.697 14.515 21.883 1.321 3.245 4.513 9.873 1.395 15.446-7.652 10.487-16.202 12.619-16.202 12.619 5.062-12.785-1.122-21.915-1.122-21.915s-4.281 13.175-22.846 20.924c-20.358 8.513-23.517 20.928-23.517 20.928s-.74-11.348 10.018-23.284c3.456-3.85 5.997-7.051 7.603-9.853l-22.761 6.23c15.267-44.33-72.852-26.501-72.852-26.501 3.24-4.589 9.49-10.507 18.097-16.416.394-.268.793-.536 1.187-.816.358-.24.728-.479 1.086-.707.419-.276.838-.552 1.264-.816l1.114-.703c.443-.276.89-.556 1.346-.833l1.114-.662c.484-.288.976-.573 1.464-.857.366-.207.728-.418 1.094-.634 10.474-5.909 23.236-11.319 37.617-14.731.512-.829.992-1.69 1.407-2.579 4.826-10.373-2.805-20.762-16.28-22.516 13.015-2.77 26.855-11.348 29.677-17.675 3.484-7.83 5.79-21.558-28.091-25.014-33.885-3.452-92.665 10.279-118.016 29.933 0 0 39.199-8.289 79.52-10.21-6.001 2.039-13.486 5.536-17.719 10.694-7.119 7.059-17.752 21.493-29.53 62.672l1.708-.207-15.08 2.36s23.057-36.833 7.839-52.498c-13.084-13.472-56.702.24-56.702.24 43.33-41.451 121.398-63.025 196.218-40.724zm-76.784 73.849c-2.293.581-4.509.784-6.375.784h-8.66s3.476-10.828 9.067-22.651h3.395c8.071 0 12.547 4.533 7.522 15.344-1.285 2.758-3.005 4.882-4.948 6.523zm15.031-37.385c-2.444.723-5.16 1.141-8.054 1.141h-6.074c3.761-8.651 6.766-13.931 8.851-17.074 7.912.069 11.128 4.013 6.94 12.992-.524 1.137-1.086 2.108-1.663 2.94z" id="Combined-Shape" fill="#241773"/><path d="M233.07 199.266c-.524 1.137-1.086 2.108-1.663 2.94 4.851-1.442 8.603-4.122 10.449-7.319 4.058-7.079.947-12.156-5.599-12.85l-6.802.02s-1.175.967-3.326 4.216c7.912.069 11.128 4.013 6.94 12.992" fill="#000"/><path d="M221.323 233.069c-1.285 2.758-3.005 4.882-4.948 6.523 5.131-1.267 10.677-4.338 13.73-10.901 5.034-10.816.549-15.348-7.514-15.348h-10.026c-.748 1.466-1.472 2.932-2.159 4.382h3.395c8.071 0 12.547 4.533 7.522 15.344" fill="#000"/><path d="M269.923 177.663c-3.167-5.195-10.901-8.269-24.631-8.968 0 0-13.901-1.884-31.49.467-6.961.93-40.797 4.37-69.608 18.419 25.196-6.129 54.974-8.375 73.828-9.057 7.928-.28 16.638-.032 16.638-.032 5.639 0 10.868 1.665 12.873 4.951 2.078 3.399 2.651 7.477-1.256 12.456-2.151 2.746-4.676 5.637-12.006 8.618l8.449-1.799c12.629-2.697 24.09-9.784 26.725-15.279 1.923-4.013 2.033-7.229.48-9.776" fill="#9E7C0C"/><path d="M208.805 209.83h13.913c7.18 0 10.482 2.94 11.994 5.418 2.37 3.879 1.948 9.106-.988 15.653-5.664 12.627-19.386 13.764-23.505 13.764l-15.788.601c6.843-21.688 14.373-35.436 14.373-35.436zm7.237 38.856c10.043-6.19 22.61-12.083 36.959-16.075.907-1.206 1.687-2.482 2.309-3.83 1.443-3.091 1.61-6.933.581-9.971-1.549-4.61-4.635-7.68-14.361-9.955-12.799-2.985-31.494-1.669-31.494-1.669 4.302-10.434 7.514-16.534 10.73-21.822-2.765-.179-16.707 1.3-27.412 11.502-9.323 8.232-19.394 29.616-27.404 55.081 13.779-1.446 26.27-2.1 26.27-2.1l13.1-.565c3.444 0 7.066-.187 10.722-.597z" fill="#9E7C0C"/><path d="M332.724 213.879c2.098 4.963-.793 10.474-6.461 12.314-5.664 1.844-11.962-.699-14.06-5.662-2.098-4.967.797-10.487 6.461-12.318 5.66-1.84 11.962.695 14.06 5.666zm-.516 3.026c-1.138-2.977-4.615-4.472-7.774-3.334-3.151 1.125-4.798 4.447-3.655 7.42 1.143 2.981 4.619 4.472 7.778 3.347 3.159-1.133 4.798-4.459 3.651-7.432z" fill="#C60C30"/><path d="M318.152 221.177c-1.578-3.728.703-7.92 5.082-9.345 1.691-.548 3.444-.609 5.046-.256-2.187-1.381-5.151-1.811-7.928-.906-4.391 1.421-6.668 5.605-5.082 9.358.968 2.299 3.18 3.895 5.757 4.447-1.269-.8-2.289-1.921-2.875-3.298" fill="#fff"/></g></svg>