<svg width="500" height="500" viewBox="0 0 500 500" xmlns="http://www.w3.org/2000/svg"><title>Logos/Clubs/CLE/Primary</title><desc>Created with Sketch.</desc><g fill="none"><path d="M0 0h500v500h-500z"/><path d="M230.764 271.675c7.325-11.825 14.38-23.093 14.38-23.081 1.91-2.992 3.936-6.075 5.05-7.743l4.949 10.894c-2.362 4.013-4.329 8.677-5.502 14.068-1.735 7.936-1.42 16.518-.101 24.862-5.808-5.577-13.565-13.451-18.776-19zm23.189 37.612c3.31 10.91 7.052 19.855 7.97 24.058.441 2.01.997 4.358 1.525 6.949l-5.047-.803c-1.997-10.192-5.533-19.507-8.932-26.802 1.947 7.771 5.159 16.67 6.494 26.415-25.277-4.022-56.071-8.92-61.724-9.818l5.951-8.792c7.725 4.608 18.68 11.402 18.68 11.402 7.554 4.8 13.371-2.099 15.213-4.543 1.425-1.908 5.816-7.806 5.672-12.864-.16-4.912-3.923-7.544-7.292-9.763l-15.692-10.284c1.449-2.345 3.789-6.135 7.352-11.885 7.046 7.036 15.153 14.751 15.223 14.823 4.813 5.214 9.718 9.053 14.608 11.906zm21.251-76.952s-1.116.705-1.631 1.09c-2.681 1.603-6.278 4.085-9.913 7.587-1.474-3.246-2.778-6.121-3.868-8.524 3.702-2.381 7.479-4.819 12.233-6.536 13.778-5.597 29.699-9.408 44.936-12.592.101 2.204-.19 4.038-.948 5.412-1.338 2.416-5.976 3.377-8.406 3.74l-3.557.492c-14.287 1.823-19.835 4.466-28.846 9.33zm32.874-47.899l.295.694s4.309 12.379 5.671 16.311c-19.4 3.888-38.383 9.016-49.051 13.477 0 0-7.987 2.885-13.65 7.498-.212.174-.308.32-.329.448-1.613.47-3.171 1.561-4.216 2.973-.796.625-2.631 2.097-3.445 3.015-2.242 2.585-4.208 4.87-6.714 8.311-2.188 3.254-10.052 15.685-17.074 27.035-.599.224-1.19.535-1.746.972-1.846 1.455-3.056 3.973-2.604 6.577-5.687 9.211-9.035 14.554-10.422 16.775-3.133.234-4.715 2.695-4.875 3.011-1.373 2.749-7.347 12.538-8.425 13.618-.634.631-2.057 3.254-1.441 6.242l-.532 1.054s-13.151 19.582-13.13 19.546c-1.131 1.597-1.305 3.388-.507 5.081 1.084 2.28 3.786 3.994 6.583 4.185 1.511.099 2.877-.281 3.963-1.057 5.325.885 42.1 7.003 69.824 11.615-3.348 29.514-34.697 43.657-62.325 41.066-15.166-.633-32.989-6.943-45.762-13.515-6.23-3.595-21.091-11.364-27.03-11.682 6.832 1.507 21.081 9.484 26.135 12.871 10.983 5.979 29.397 14.355 46.652 14.995 41.382 2.583 64.526-19.865 65.743-43.17l5.462.907c.19 5.397-.332 11.14-2.356 16.805-1.09 3.11-2.389 5.834-4.491 8.818 0 0-.218.366-.201.366-4.631 6.864-10.778 12.056-17.902 15.764-27.8 14.481-70.541 6.599-96.542-11.527-.689-.481-1.373-.966-2.035-1.458-11.076-8.245-18.696-10.123-27.778-8.742-3.029.459-6.219 1.28-9.755 2.35-15.61 4.718-15.011-4.324-15.011-4.324-13.083-18.62-25.139-38.486-35.441-75.947-13.464-53.827-3.076-98.892 20.685-132.446l.218-.314.488-.671c19.805-27.474 48.624-47.108 80.606-57.353 22.794-3.877 43.959-2.572 63.023 2.255l.405.095.653.181c18.899 4.937 35.707 13.327 49.94 23.572 17.277 12.434 30.766 27.584 39.617 42.547-.191.11-.354.248-.531.374-.324.23-.607.494-.855.789-.109.129-.24.24-.333.383-.371.579-.599 1.223-.736 1.892-.281 1.357-.152 2.826.136 4.161.321 1.494.823 2.802 1.147 3.572z" id="Combined-Shape" fill="#FF3C00"/><path d="M193.928 392.886c27.628 2.591 58.977-11.552 62.325-41.066l3.411.566c-1.217 23.305-24.36 45.753-65.743 43.17-17.255-.641-35.669-9.016-46.652-14.995-5.053-3.388-19.302-11.364-26.135-12.871 5.94.317 20.8 8.087 27.03 11.682 12.773 6.572 30.597 12.882 45.762 13.515zm62.036-53.782c-1.335-9.745-4.547-18.644-6.494-26.415 3.399 7.295 6.935 16.61 8.932 26.802l-2.438-.387zm-93.34-41.521c5.042.032 10.071 2.294 13.791 6.192 3.768 3.932 5.714 8.985 5.805 13.873l-11.057 16.333c-1.664.552-3.445.832-5.276.809-5.042-.036-10.071-2.291-13.793-6.195-7.306-7.647-7.788-19.44-1.059-26.281 3.031-3.082 7.145-4.759 11.588-4.732zm-23.162 48.312c15.521 19.865 42.834 19.958 56.614 5.395-5.859 2.866-30.35 18.936-56.614-5.395zm75.302 15.814c-1.672-1.509-2.74-3.67-2.73-6.1.013-4.53 3.697-8.196 8.234-8.188 4.535.024 8.205 3.7 8.188 8.246-.009 3.374-2.06 6.257-4.979 7.506-.981 1.041-2.356 1.695-3.884 1.688-2.143 0-3.975-1.294-4.829-3.153zm-69.342-2.455c3.111-2.185 7.829-.838 10.541 2.995 2.708 3.852 2.577 8.66-.37 11.107-1.18.989-2.778 1.355-4.44 1.22-1.846 1.152-4.712.507-6.755-1.647-1.899-1.999-2.459-4.641-1.536-6.432-.395-2.9.501-5.788 2.56-7.243zm173.613-1.109c1.465-.15 2.971-.309 4.491-.47-1.198 1.952-2.547 3.804-4.029 5.554-.621-1.01-1.221-2.047-1.787-3.118l-.849-1.681c1.386-.153 2.174-.286 2.174-.286zm6.414-42.67c1.785-.189 3.59-.383 5.407-.587.201 1.611.351 3.211.466 4.802l.051 1.232 38.981 6.683c.743 2.133 3.533 8.434 3.533 8.434l-42.43-7.205-.017 1.321c-.259 4.852-.976 9.531-2.176 13.96-1.874.199-3.764.388-5.671.57 2.803-9.155 3.11-19.366 1.857-29.21zm-71.494-6.189c1.16.675 2.316 1.283 3.471 1.853 3.122 9.529 6.529 17.96 8.006 24.185-1.196-7.248-3.358-15-5.47-23.01 8.349 3.596 16.531 4.702 24.006 5.122l1.048.063.498 1.094c-2.967 7.885-8.483 16.337-15.632 21.487.024.413.044.828.06 1.247l-6.493-1.034c-.528-2.591-1.084-4.939-1.525-6.949-.918-4.202-4.66-13.148-7.97-24.058zm-4.413-18.612c-1.319-8.344-1.634-16.927.101-24.862 1.172-5.39 3.14-10.055 5.502-14.068l1.443 3.175c-6.499 12.166-6.406 25.74-3.895 38.63l-.638-.489c-.776-.724-1.629-1.537-2.512-2.386zm29.731 14.18c-9.909-1.116-16.352-4.003-23.15-8.773-2.492-12.878-3.209-25.989 1.713-38.414l21.437 47.187zm44.898-120.439s-2.898-7.581-.969-9.887l2.666-1.385s.223-.144.213-.106c-.149.297-.115 1.005-.115 1.005-.058.937-.022 1.412.983 4.126 1.572 4.251 9.803 21.301 10.756 23.783 4.761 12.338-7.537 14.623-8.815 9.17 13.082-.993 7.771-14.667.348-12.733-2.828-6.989-5.066-13.973-5.066-13.973zm-5.505-7.737l2.435-1.157c-1.103 3.554.992 9.04.992 9.04l5.097 14.219-2.674.497s-3.315-9.133-5.401-15.455c-1.588-4.811-.45-7.145-.45-7.145zm31.194 33.303s-2.34 4.407-12.254 3.713c0 0 2.685-1.826 2.828-3.763 0 0 6.249 0 9.425.05zm-124.236 55.831s-1.585-1.898-3.073-1.898c7.219-11.699 13.799-22.096 16.035-25.44 2.35-3.853 7.953-10.451 7.211-9.569 0 0-.156 1.963.888 4.068.844 1.682 2.549 5.903 2.549 5.903.286-.276-3.817 4.816-6.105 8.404l-13.793 22.603-3.712-4.071zm187.589 24.982c-2.236.893-12.65 2.219-12.65 2.219-1.398-1.138-2.797-1.297-3.165-1.321 3.977.281 15.815-.898 15.815-.898zm-11.852 38.153c1.195 4.407-2.918 4.565-2.918 4.565l-11.257 2.219-2.975-6.842c9.964.158 17.15.058 17.15.058zm-27.628-19.474c5.048 14.039 11.506 26.854 11.506 26.854-1.335.595-7.869 1.537-7.869 1.537-1.566-2.963-11.465-27.157-11.465-27.157 1.179-.145 7.828-1.234 7.828-1.234zm17.416 38.644c7.134 10.699 18.591 18.427 18.591 18.427.294 2.684.539 9.526.539 9.526-17.991-8.781-27.509-26.159-27.509-26.159 1.64-.303 8.379-1.794 8.379-1.794zm54.382 30.926c9.37 6.091.144 10.4-4.604 11.732-4.214 1.193-17.852 4.769-17.852 4.769.741-3.276.597-8.48.597-8.48 26.329-5.644 1.332-8.021 1.332-8.021 5.812 1.785 5.652 3.855 5.652 3.855-2.528.15-6.984-1.187-6.984-1.187.144-1.635-.292-8.322-.292-8.322 6.837 2.973 7.93 2.121 15.019 3.71 7.276 1.641 3.713 4.612 3.713 4.612-3.713 4.611-17.394 6.542-17.394 6.542 22.903-2.978 20.813-9.211 20.813-9.211zm-158.498-61.307c5.142.589 9.021.046 9.021.046l13.134 28.19s-3.326.65-8.978.202c-2.674-5.051-5.625-11.925-13.176-28.438zm-5.064-12.889c-15.448-33.749-33.542-73.295-33.564-73.34-.752-1.343-.739-2.67.022-3.964 1.011-1.684 3.001-2.684 4.337-2.66.954.009 1.83.305 1.876.382l36.261 80.175s-5.012.227-8.932-.592zm138.828 88.265c-.156 1.714-.853 3.105-2.171 3.776 0 0-2.863 1.294-5.759-.189 0 0 .111.235-3.008 1.278-19.252 4.947-39.891 5.239-57.269.65-15.772-4.159-34.43-13.293-44.786-36.198 0 0-1.326-2.49-1.62-3.681 0 0 5.292.101 8.765-.186 16.073 34.392 57.512 40.798 93.019 31.72 0 0 3.245-.557 4.159-1.537.739-1.704.66-6.091.66-6.091-.046-1-.866-22.177-4.777-36.266-.348-1.482-.82-2.402-1.198-2.749 0 0-1.07-.448-1.833-.469-1.901-.071-4.393.456-4.393.456-21.905 5.206-55.782 9.526-82.525 12.229-.047 0-2.097.316-5.712.467l-2.887.082c-5.074.055-12.266-.257-21.328-1.693 0 0-99.747-16.21-99.335-16.22l5.334-7.296s96.023 15.753 96.044 15.753c14.638 2.19 21.445 1.138 21.625 1.098 25.879-1.436 73.722-8.521 85.288-11.598 0 0 6.257-1.48 7.049-2.277.51-.516-.781-5.206-.781-5.206-.052-.155-4.742-15.466-7.088-21.366l.035.123c-.057-.24-1.076-3.514-2.146-4.01l-.782.013s-1.383.27-3.069.65c-22.548 4.095-63.739 9.842-87.944 11.3 2.092-.129-9.795.423-19.037-.216-13.157-.738-27.759-4.002-42.281-19.743-.158-.158-16.224-15.447-22.692-22.525-1.615-2.29-.757-4.813.939-6.143 1.195-.955 3.571-1.384 4.9.164 2.841 3.792 19.086 20.561 27.109 28.056 8.902 6.934 15.305 10.555 27.732 11.956 6.73.798 14.669.686 15.065.697 16.376.413 76.056-6.877 93.603-10.331 2.226-.295 3.562-.819 3.562-.819l-.035-.338.103-.738c.032-.257 1.041-1.065 1.887-1.447 1.609-.738 3.762-.753 5.562.716 12.511 23.038 24.877 65.823 22.015 98.147zm-224.784-77.797c-.025-.013-2.737-1.269-3.421-3.792-.458-1.698.082-3.634 1.602-5.775 3.468-4.871 5.153-7.661 5.897-8.953.752 1.638 3.05 2.97 3.05 2.97 5.819 3.647 18.068 11.049 21.595 13.004 3.792 2.108 4.551 3.115 4.551 3.115 4.394 4.174 3.56 8.314 1.417 11.21-2.435 3.262-7.101 5.34-10.993 2.76l-5.284-3.255.008-.013-1.912-1.153-16.414-10.052-.043-.033-.054-.032zm37.473-7.023c6.145 4.653 2.822 10.25 2.822 10.25.618-3.364-.909-6.717-4.832-9.367-3.43-2.301-16.806-11.194-16.806-11.194l1.42-1.37c6.033 3.88 13.968 9.076 17.395 11.68zm-29.304-10.082c-3.304-2.069-2.969-4.93-1.231-6.433-.253 4.51 6.663 8.136 9.939 7.248l17.509 11.702c2.629 1.884 5.211 5.113 3.674 9.48-.223-4.085-5.304-7.32-5.304-7.32s-18.816-11.066-24.586-14.677zm215.231-6.656c1.485-.448 4.284-.797 4.284-.797 2.135.361 3.056 1.621 3.31 3.345.103.65-.226 3.116-2.929 3.621l-.98.213c-2.441.759-7.324 1.908-12.206 2.825-3.027.579-5.823 1.114-5.573.969-.64-1.414-1.089-2.873-2.944-6.474 5.369-.92 12.265-2.301 17.038-3.702zm10.705 33.521s8.18-2.818 9.967 3.43c0 0 1.776 5.395-2.832 7.326 0 0-3.415 1.737-19.187 4.554 0 0-1.283-4.906-1.876-7.426 0 0 13.334-2.772 18.534-4.713 0 0-.101-1.728-2.675-1.681 0 0-13.532 3.419-16.659 3.715l-.739-2.077s11.591-2.23 15.466-3.129zm-3.772-25.411c6.254-3.419 3.324-9.174-.103-10.216 0 0 6.256-1.337 9.133 9.461 10.462 29.295 18.58 69.422 16.254 83.296 0-1.783-2.775-5.106-7.534-6.091 0 0 .095-1.829-.049-4.062-1.191-12.093-5.551-34.089-5.551-34.089 6.739-2.178 6.147-15.953-5.356-15.865-2.77-12.483-6.794-22.435-6.794-22.435zm-37.375-5.002c-5.358 1.337-17.74 2.681-17.74 2.681l-2.538-5.796c12.938 1.78 22.65.737 22.65.737-2.222.292-2.373 2.378-2.373 2.378zm-202.959 42.606c-.871 1.33-2.242 1.535-3.239 1.469-1.913-.12-3.882-1.346-4.584-2.829-.435-.895-.335-1.805.305-2.714l12.492-19.048c.787 1.507 7.063 5.264 7.063 5.264-2.636 3.891-12.024 17.845-12.037 17.858zm70.984-112.325c-.997-1.766-1.133-1.941-1.966-2.41 2.587-1.74 5.946-3.382 10.495-5.28 13.175-5.517 40.515-12.561 64.148-16.37 2.515-.347 4.608 1.382 4.881 3.194.232 1.611-.588 3.492-3.677 3.984l-1.435.284c-18.921 3.781-40.351 8.062-58.269 15.336-5.639 2.031-8.646 3.74-11.806 6.137 0 0-1.743-3.774-2.372-4.876zm-44.225 71.393c-1.288 1.018-3.993-.025-5.684-1.651-.387-.374-2.242-2.288-1.127-3.625l.055-.068.044-.08c.147-.234 2.222-3.68 10.094-16.442 2.381 3.273 6.186 6.708 6.186 6.708l-9.569 15.158zm140.545-89.739c0-3.118-1.918-7.579-1.918-7.579 4.13.399 14.704 1.617 16.897 2.351l.101.035.098.014c1.561.226 2.485 2.239 2.335 3.907-.088.896-.627 2.933-3.707 2.933-2.784-.612-10.078-1.305-13.807-1.662zm20.582-7.367c7.393 11.716-4.863 16.548-11.615 13.02-.888.453-1.542.892-2.071 1.37-.392.355-.719.734-1.025 1.157.322 3.883.052 8.671-1.944 12.3-2.323 4.213-5.516 6.934-11.607 8.025-.153.028-.487.052-.863.073v.008l-.594.079c-.455.025-.894.068-1.313.128 6.139 14.541 26.327 62.288 26.327 62.288-3.878.697-8.136.986-8.136.986l-25.504-59.721c-.642.641-1.063 1.202-1.291 1.543-.25.295-.493.573-.758.901-3.963 4.956-6.371 11.334-7.731 18.107-.101.436-.25 1.128-.417 2.047 12.031 18.467 28.223 25.378 28.223 25.378l4.01 9.818c-16.074-4.663-29.522-19.227-33.27-23.586 0 .398.005.798.013 1.206-.051 8.119.942 15.784 2.256 21.268.763 2.406 1.439 4.818 2.034 7.229-1.858.194-3.688.377-5.492.555-1.239-4.805-2.783-9.354-4.51-13.444-9.089-21.473-33.91-11.653-32.17 1.28-7.565-16.679-15.262-33.647-21.006-46.308 2.206-2.408 6.698-6.965 13.941-11.601-5.056 2.234-9.065 5.755-9.065 5.755-1.978 1.523-3.764 3.099-5.39 4.717l-1.267-2.796c3.636-3.501 7.232-5.984 9.913-7.587.515-.385 1.631-1.09 1.631-1.09 9.011-4.865 14.559-7.508 28.846-9.33-.058.006 3.557-.492 3.557-.492 2.43-.363 7.068-1.324 8.406-3.74.758-1.374 1.049-3.208.948-5.412l2.544-.525c.466 7.592-3.385 10.49-10.007 11.863-4.315.888-7.829 1.038-9.613 1.636l4.107.144c.205.025 4.743-.033 11.054-2.171 4.135-1.539 7.249-4.314 5.924-11.775l2.12-.434c1.123 7.091.081 13.949-13.693 15.279 2.354 1.619 23.798-2.35 36.707.604.311.142 5.721 2.001-.457 4.699 11.971-2.659 12.631-14.579 10.357-23.431l.491.058c2.222.159 4.14.442 5.668.723l.017.028c1.153.123 2.549.281 3.987.467 8.92.892 8.1-9.64 3.416-10.997-3.573-1.041-4.484-1.068-5.382-1.22l-1.256-.144-11.133-24.774 6.167-2.85 15.916 28.69zm-23.84-25.069l-2.386.947c-.412-.852-1.123-1.294-2.228-1.499-.302-.063-.648-.11-1.013-.142-86.715-154.735-353.828-68.973-289.549 135.799 4.517 14.407 10.111 26.967 15.406 37.066-.458 1.846-1.122 5.318-.049 9.941 1.738 6.564 3.209 10.588 8.485 22.218-2.133 7.86 5.23 19.44 23.102 16.001 21.251-3.282 32.374-10.983 34.934-12.955.727.505 1.454 1.026 2.149 1.546 37.685 29.382 99.34 31.717 122.093-3.061 9.101 1.878 20.415.349 20.415.349 11.787-.775 21.284-3.931 28.71-8.838-.899-1.452-1.77-2.951-2.591-4.497-9.495 6.422-23.227 9.848-42.504 8.284l-1.231-.158c3.064-6.075 5.072-13.113 5.75-21.129l-4.423-.742c.19 5.397-.332 11.14-2.356 16.805-1.09 3.11-2.389 5.834-4.491 8.818 0 0-.218.366-.201.366-4.631 6.864-10.778 12.056-17.902 15.764-27.8 14.481-70.541 6.599-96.542-11.527-.69-.481-1.376-.966-2.041-1.46-11.067-8.237-18.688-10.118-27.772-8.74-3.029.459-6.219 1.28-9.755 2.35-15.61 4.718-15.011-4.324-15.011-4.324-13.083-18.62-25.139-38.486-35.441-75.947-13.464-53.827-3.076-98.892 20.685-132.446l.218-.314.488-.671c19.805-27.474 48.625-47.112 80.605-57.36 22.794-3.872 43.961-2.566 63.025 2.263l.405.095.653.181c18.899 4.937 35.707 13.327 49.94 23.572 17.281 12.436 30.772 27.586 39.624 42.547-.196.109-.359.248-.537.374-.324.23-.607.494-.855.789-.107.129-.239.24-.33.383-.373.581-.6 1.223-.739 1.892-.281 1.357-.152 2.826.136 4.161.322 1.493.825 2.801 1.147 3.572l.295.694s4.309 12.379 5.671 16.311l.002.005 2.59-.521-6.399-17.705c-2.527-5.996.302-8.221.302-8.221-.744 2.225-.111 4.797.299 6.138.823 2.619 3.618 10.288 5.958 16.206.441 1.168.853 2.272 1.215 3.329l2.087-.41c-1.975-5.949-4.694-12.939-5.548-15.259-.709-1.941-1.027-2.667-1.928-5.791-1.215-4.229.442-4.308 2.228-4.466 1.029-.079 4.092-.016 4.898 0 1.85-.994 5.783-2.967 8.171-4.15-28.489-48.08-85.61-80.255-160.475-69.304 59.079-14.359 126.154 2.619 166.509 60.089 2.15 3.566 3.966 5.539 7.207 11.977-.444 0-.95 0-1.438-.016-2.244-3.156-4.521-4.182-7.316-4.229-.142 0-5.516 0-4.803 5.444.19 1.688.916 3.708 1.341 4.655l.049-.016 3.998 8.426 1.059 2.225 3.87 7.795s2.876 5.696 3.035 8.726l10.38.205s.16-3.187-2.068-8.837c-1.613-4.055-6.433-18.983-8.027-21.949l-.079-.142c.504 0 2.576.032 3.727.3 2.038 5.191 5.009 14.091 7.27 21.082 0 0 2.623.126 2.606.079.886.079 4.456.379 5.736.631l-10.443-23.575z" id="Combined-Shape" fill="#311D00"/><path d="M423.073 395.546c.741-3.276.597-8.48.597-8.48 26.329-5.644 1.332-8.021 1.332-8.021 5.812 1.785 5.652 3.855 5.652 3.855-2.528.15-6.984-1.187-6.984-1.187.144-1.635-.292-8.322-.292-8.322 6.837 2.973 7.93 2.121 15.019 3.71 7.276 1.641 3.713 4.612 3.713 4.612-3.713 4.611-17.394 6.542-17.394 6.542 22.903-2.978 20.813-9.211 20.813-9.211 9.37 6.091.144 10.4-4.604 11.732-4.214 1.193-17.852 4.769-17.852 4.769zm-12.677-16.763c.213 3.083.307 5.064.31 5.117-.009 2.582-1.458 3.509-1.672 3.64-32.856 8.892-71.927 4.374-89.539-24.312-.621-1.01-1.221-2.047-1.787-3.118l-.849-1.681c1.386-.153 2.174-.286 2.174-.286 1.465-.15 2.971-.309 4.491-.47 17.616-1.889 38.611-4.661 56.764-7.776 8.014 14.378 18.97 23.769 30.107 28.885zm-16.717-31.362c3.68-.737 7.158-1.483 10.307-2.233.798-.216 1.128.011 1.24.09.583.417.806 1.493.83 1.827l.013.126.03.114c1.183 4.196 2.097 9.798 2.786 15.35-5.897-4.313-11.083-9.487-15.205-15.275zm-10.91 2.492c1.64-.303 8.379-1.794 8.379-1.794 7.134 10.699 18.591 18.427 18.591 18.427.294 2.684.539 9.526.539 9.526-17.991-8.781-27.509-26.159-27.509-26.159zm30.096 46.788s.111.235-3.008 1.278c-19.252 4.947-39.891 5.239-57.269.65-15.772-4.159-34.43-13.293-44.786-36.198 0 0-1.326-2.49-1.62-3.681 0 0 5.292.101 8.765-.186 16.073 34.392 57.512 40.798 93.019 31.72 0 0 3.245-.557 4.159-1.537.739-1.704.66-6.091.66-6.091-.046-1-.866-22.177-4.777-36.266-.348-1.482-.82-2.402-1.198-2.749 0 0-1.07-.448-1.833-.469-1.901-.071-4.393.456-4.393.456-21.905 5.206-55.782 9.526-82.525 12.229-.047 0-2.097.316-5.712.467l-2.887.082c-5.074.055-12.266-.257-21.328-1.693 0 0-99.747-16.21-99.335-16.22l5.334-7.296s96.023 15.753 96.044 15.753c14.638 2.19 21.445 1.138 21.625 1.098 25.879-1.436 73.722-8.521 85.288-11.598 0 0 6.257-1.48 7.049-2.277.51-.516-.781-5.206-.781-5.206-.052-.155-4.742-15.466-7.088-21.366l.035.123c-.057-.24-1.076-3.514-2.146-4.01l-.782.013s-1.383.27-3.069.65c-22.548 4.095-63.739 9.842-87.944 11.3 2.092-.129-9.795.423-19.037-.216-13.157-.738-27.759-4.002-42.281-19.743-.158-.158-16.224-15.447-22.692-22.525-1.615-2.29-.757-4.813.939-6.143 1.195-.955 3.571-1.384 4.9.164 2.841 3.792 19.086 20.561 27.109 28.056 8.902 6.934 15.305 10.555 27.732 11.956 6.73.798 14.669.686 15.065.697 16.376.413 76.056-6.877 93.603-10.331 2.226-.295 3.562-.819 3.562-.819l-.035-.338.103-.738c.032-.257 1.041-1.065 1.887-1.447 1.609-.738 3.762-.753 5.562.716 12.511 23.038 24.877 65.823 22.015 98.147-.156 1.714-.853 3.105-2.171 3.776 0 0-2.863 1.294-5.759-.189zm-230.093-57.962c-1.913-.12-3.882-1.346-4.584-2.829-.435-.895-.335-1.805.305-2.714l12.492-19.048c.787 1.507 7.063 5.264 7.063 5.264-2.636 3.891-12.024 17.845-12.037 17.858-.871 1.33-2.242 1.535-3.239 1.469zm11.421-32.989c3.468-4.871 5.153-7.661 5.897-8.953.752 1.638 3.05 2.97 3.05 2.97 5.819 3.647 18.068 11.049 21.595 13.004 3.792 2.108 4.551 3.115 4.551 3.115 4.394 4.174 3.56 8.314 1.417 11.21-2.435 3.262-7.101 5.34-10.993 2.76l-5.284-3.255.008-.013-1.912-1.153-16.414-10.052-.043-.033-.054-.032c-.025-.013-2.737-1.269-3.421-3.792-.458-1.698.082-3.634 1.602-5.775zm8.757-13.971c-.253 4.51 6.663 8.136 9.939 7.248l17.509 11.702c2.629 1.884 5.211 5.113 3.674 9.48-.223-4.085-5.304-7.32-5.304-7.32s-18.816-11.066-24.586-14.677c-3.304-2.069-2.969-4.93-1.231-6.433zm3.01-.716l.055-.068.044-.08c.147-.234 2.222-3.68 10.094-16.442 2.381 3.273 6.186 6.708 6.186 6.708l-9.569 15.158c-1.288 1.018-3.993-.025-5.684-1.651-.387-.374-2.242-2.288-1.127-3.625zm25.515 18.115c-3.43-2.301-16.806-11.194-16.806-11.194l1.42-1.37c6.033 3.88 13.968 9.076 17.395 11.68 6.145 4.653 2.822 10.25 2.822 10.25.618-3.364-.909-6.717-4.832-9.367zm77.712 36.796s-3.326.65-8.978.202c-2.674-5.051-5.625-11.925-13.176-28.438 5.142.589 9.021.046 9.021.046l13.134 28.19zm60.503-20.259l-38.399-6.708.032.683.051 1.232 38.981 6.683c.743 2.133 3.533 8.434 3.533 8.434l-42.43-7.205-.017 1.321-.009.622 41.864 7.106c-13.973 2.376-28.472 4.586-44.031 6.233-1.874.199-3.764.388-5.671.57 2.803-9.155 3.11-19.366 1.857-29.21 1.785-.189 3.59-.383 5.407-.587 10.795-1.201 22.074-2.657 32.54-4.161 2.253 5.362 4.386 10.446 6.293 14.987zm13.709 1.065l-7.564-17.924c5.082-.8 9.782-1.589 13.902-2.335l.079-.024.077-.021c1.057-.352 1.94-.336 2.642.021 1.084.571 1.482 1.86 1.482 1.86l.021.071.027.052c1.678 4.231 4.724 13.315 6.314 18.106-6.463.259-12.394.267-16.98.194zm3.787 8.952l-2.975-6.842c9.964.158 17.15.058 17.15.058 1.195 4.407-2.918 4.565-2.918 4.565l-11.257 2.219zm-1.947.596c-1.335.595-7.869 1.537-7.869 1.537-1.566-2.963-11.465-27.157-11.465-27.157 1.179-.145 7.828-1.234 7.828-1.234 5.048 14.039 11.506 26.854 11.506 26.854zm-125.277-24.013c8.349 3.596 16.531 4.702 24.006 5.122l1.048.063.498 1.094c-2.967 7.885-8.483 16.337-15.632 21.487.024.413.044.828.06 1.247l-6.493-1.034-5.047-.803-2.438-.387c-25.277-4.022-56.071-8.92-61.724-9.818l5.951-8.792c7.725 4.608 18.68 11.402 18.68 11.402 7.554 4.8 13.371-2.099 15.213-4.543 1.425-1.908 5.816-7.806 5.672-12.864-.16-4.912-3.923-7.544-7.292-9.763l-15.692-10.284c1.449-2.345 3.789-6.135 7.352-11.885 7.046 7.036 15.153 14.751 15.223 14.823 4.813 5.214 9.718 9.053 14.608 11.906 1.16.675 2.316 1.283 3.471 1.853 3.122 9.529 6.529 17.96 8.006 24.185-1.196-7.248-3.358-15-5.47-23.01zm-21.377-73.841c2.35-3.853 7.953-10.451 7.211-9.569 0 0-.156 1.963.888 4.068.844 1.682 2.549 5.903 2.549 5.903.286-.276-3.817 4.816-6.105 8.404l-13.793 22.603-3.712-4.071s-1.585-1.898-3.073-1.898c7.219-11.699 13.799-22.096 16.035-25.44zm19.25 19.193l21.437 47.187c-9.909-1.116-16.352-4.003-23.15-8.773-2.492-12.878-3.209-25.989 1.713-38.414zm-2.691-5.922l1.443 3.175c-6.499 12.166-6.406 25.74-3.895 38.63l-.638-.489c-.776-.724-1.629-1.537-2.512-2.386-5.808-5.577-13.565-13.451-18.776-19 7.325-11.825 14.38-23.093 14.38-23.081 1.91-2.992 3.936-6.075 5.05-7.743l4.949 10.894zm-6.719-24.2c1.011-1.684 3.001-2.684 4.337-2.66.954.009 1.83.305 1.876.382l36.261 80.175s-5.012.227-8.932-.592c-15.448-33.749-33.542-73.295-33.564-73.34-.752-1.343-.739-2.67.022-3.964zm17.098-10.29c13.175-5.517 40.515-12.561 64.148-16.37 2.515-.347 4.608 1.382 4.881 3.194.232 1.611-.588 3.492-3.677 3.984l-1.435.284c-18.921 3.781-40.351 8.062-58.269 15.336-5.639 2.031-8.646 3.74-11.806 6.137 0 0-1.743-3.774-2.372-4.876-.997-1.766-1.133-1.941-1.966-2.41 2.587-1.74 5.946-3.382 10.495-5.28zm56.569-32.694l5.097 14.219-2.674.497s-3.315-9.133-5.401-15.455c-1.588-4.811-.45-7.145-.45-7.145l2.435-1.157c-1.103 3.554.992 9.04.992 9.04zm1.109-10.034l2.666-1.385s.223-.144.213-.106c-.149.297-.115 1.005-.115 1.005-.058.937-.022 1.412.983 4.126 1.572 4.251 9.803 21.301 10.756 23.783 4.761 12.338-7.537 14.623-8.815 9.17 13.082-.993 7.771-14.667.348-12.733-2.828-6.989-5.066-13.973-5.066-13.973s-2.898-7.581-.969-9.887zm17.232 35.403s6.249 0 9.425.05c0 0-2.34 4.407-12.254 3.713 0 0 2.685-1.826 2.828-3.763zm27.86-8.559l.101.035.098.014c1.561.226 2.485 2.239 2.335 3.907-.088.896-.627 2.933-3.707 2.933-2.784-.612-10.078-1.305-13.807-1.662 0-3.118-1.918-7.579-1.918-7.579 4.13.399 14.704 1.617 16.897 2.351zm23.049 90.914c-2.222.292-2.373 2.378-2.373 2.378-5.358 1.337-17.74 2.681-17.74 2.681l-2.538-5.796c12.938 1.78 22.65.737 22.65.737zm21.87-1.491c-2.236.893-12.65 2.219-12.65 2.219-1.398-1.138-2.797-1.297-3.165-1.321l-.101-.005.101.005c3.977.281 15.815-.898 15.815-.898zm10.482-.035c2.135.361 3.056 1.621 3.31 3.345.103.65-.226 3.116-2.929 3.621l-.98.213c-2.441.759-7.324 1.908-12.206 2.825-3.027.579-5.823 1.114-5.573.969-.64-1.414-1.089-2.873-2.944-6.474 5.369-.92 12.265-2.301 17.038-3.702 1.485-.448 4.284-.797 4.284-.797zm11.68 8.152c10.462 29.295 18.58 69.422 16.254 83.296 0-1.783-2.775-5.106-7.534-6.091 0 0 .095-1.829-.049-4.062-1.191-12.093-5.551-34.089-5.551-34.089 6.739-2.178 6.147-15.953-5.356-15.865-2.77-12.483-6.794-22.435-6.794-22.435 6.254-3.419 3.324-9.174-.103-10.216 0 0 6.256-1.337 9.133 9.461zm1.877 36.923s-3.415 1.737-19.187 4.554c0 0-1.283-4.906-1.876-7.426 0 0 13.334-2.772 18.534-4.713 0 0-.101-1.728-2.675-1.681 0 0-13.532 3.419-16.659 3.715l-.739-2.077s11.591-2.23 15.466-3.129c0 0 8.18-2.818 9.967 3.43 0 0 1.776 5.395-2.832 7.326zm-13.791-35.681l.009-.011.457-.005c1.763 4.082 4.563 12.834 5.314 15.95l1.684 6.897c-5.432 1.266-11.405 2.132-17.384 2.716-2.335-7.803-4.958-15.161-7.742-21.67 13.467-1.883 17.662-3.877 17.662-3.877zm-.935 70.393c-.886-9.136-2.465-18.569-4.527-27.778 5.164-.95 14.725-3.345 18.223-4.234l.273 1.49c1.801 9.73 4.532 24.447 5.56 33.454.052.895-.021 1.617-.15 2.233-1.714-.344-3.046-.432-3.332-.447-5.513-.873-10.91-2.49-16.047-4.718zm32.316 5.201c-1.895-25.666-7.671-51.255-17.39-78.434l-1.179-2.817c-2.46-6.394-6.908-7.609-13.927-6.732l-6.09.666c-12.374 1.103-32.355 3.208-48.907.32l-22.59-53.524-.581.036c-.455.025-.894.068-1.313.128 6.139 14.541 26.327 62.288 26.327 62.288-3.878.697-8.136.986-8.136.986l-25.504-59.721c-.642.641-1.063 1.202-1.291 1.543l-.215.342s8.54 20.341 18.092 43.088c-1.081-.557-2.094-1.163-2.748-1.74-4.521-2.774-14.797-10.252-23.491-23.22l-.128.538c-.101.436-.25 1.128-.417 2.047 12.031 18.467 28.223 25.378 28.223 25.378l4.01 9.818c-16.074-4.663-29.522-19.227-33.27-23.586 0 .398.005.798.013 1.206l.028 1.054c9.112 11.514 21.05 19.704 33.74 24.026-9.46 1.206-19.754 2.403-29.478 3.416-1.858.194-3.688.377-5.492.555-1.239-4.805-2.783-9.354-4.51-13.444-9.089-21.473-33.91-11.653-32.17 1.28-7.565-16.679-15.262-33.647-21.006-46.308 2.206-2.408 6.698-6.965 13.941-11.601-5.056 2.234-9.065 5.755-9.065 5.755-1.978 1.523-3.764 3.099-5.39 4.717l-1.267-2.796c-1.474-3.246-2.778-6.121-3.868-8.524 3.702-2.381 7.479-4.819 12.233-6.536 13.778-5.597 29.699-9.408 44.936-12.592l2.544-.525c.466 7.592-3.385 10.49-10.007 11.863-4.315.888-7.829 1.038-9.613 1.636l4.107.144c.205.025 4.743-.033 11.054-2.171 4.135-1.539 7.249-4.314 5.924-11.775l2.12-.434c1.123 7.091.081 13.949-13.693 15.279 2.354 1.619 23.798-2.35 36.707.604.311.142 5.721 2.001-.457 4.699 11.971-2.659 12.631-14.579 10.357-23.431l.491.058c2.222.159 4.14.442 5.668.723l.017.028c1.153.123 2.549.281 3.987.467 8.92.892 8.1-9.64 3.416-10.997-3.573-1.041-4.484-1.068-5.382-1.22l-1.256-.144-11.133-24.774 6.167-2.85 15.916 28.69c7.393 11.716-4.863 16.548-11.615 13.02-.888.453-1.542.892-2.071 1.37 1.899 1.286 4.307 2.018 6.932 2.018 4.475 0 8.384-2.036 10.198-5.318 1.323-2.398 2.133-6.478-1.471-12.18l-16.913-30.489-13.514 5.955c1.104.213 1.816.652 2.228 1.504l2.384-.955 10.452 23.586c-1.293-.26-4.862-.557-5.742-.628.013.041-2.599-.09-2.599-.09-2.272-6.99-5.24-15.881-7.272-21.085-1.16-.257-3.22-.29-3.738-.295l.085.15c1.588 2.959 6.418 17.881 8.027 21.948 2.225 5.651 2.073 8.826 2.073 8.826l-10.389-.197c-.16-3.03-3.035-8.725-3.035-8.725l-3.86-7.795-1.057-2.23-4.012-8.428-.033.011c-.433-.944-1.155-2.965-1.357-4.647-.697-5.452 4.674-5.452 4.818-5.449 2.783.05 5.061 1.076 7.305 4.234l1.439.021c-3.238-6.441-5.059-8.422-7.204-11.988-40.352-57.457-107.425-74.435-166.511-60.089 74.874-10.943 131.986 21.228 160.478 69.315-2.381 1.18-6.325 3.151-8.166 4.145-.817-.021-3.879-.082-4.9.003-1.784.147-3.446.235-2.236 4.461.899 3.124 1.228 3.86 1.936 5.799.842 2.315 3.562 9.308 5.541 15.259-.697.129-1.392.265-2.09.398-.36-1.057-.763-2.163-1.218-3.322-2.324-5.914-5.129-13.591-5.952-16.202-.416-1.346-1.044-3.918-.292-6.143 0 0-2.828 2.225-.303 8.226l6.395 17.703c-.864.167-1.725.341-2.587.513-19.402 3.887-38.387 9.016-49.054 13.477 0 0-7.987 2.885-13.65 7.498-.212.174-.308.32-.329.448-1.613.47-3.171 1.561-4.216 2.973-.796.625-2.631 2.097-3.445 3.015-2.242 2.585-4.208 4.87-6.714 8.311-2.188 3.254-10.052 15.685-17.074 27.035-.599.224-1.19.535-1.746.972-1.846 1.455-3.056 3.973-2.604 6.577-5.687 9.211-9.035 14.554-10.422 16.775-3.133.234-4.715 2.695-4.875 3.011-1.373 2.749-7.347 12.538-8.425 13.618-.634.631-2.057 3.254-1.441 6.242l-.532 1.054s-13.151 19.582-13.13 19.546c-1.131 1.597-1.305 3.388-.507 5.081 1.084 2.28 3.786 3.994 6.583 4.185 1.511.099 2.877-.281 3.963-1.057 5.325.885 42.1 7.003 69.824 11.615l3.411.566 5.462.907c1.525.256 3.004.502 4.421.737-.684 8.024-2.685 15.052-5.742 21.127l1.223.163c19.274 1.565 33.005-1.857 42.507-8.291.818 1.553 1.683 3.057 2.596 4.513 9.247 14.724 23.373 24.503 41.85 29.388 18.975 5.002 40.513 4.51 61.266-1.568 2.479 1.264 4.848.492 6.478-.346.471-.246.89-.551 1.269-.895 22.429-5.105 26.252-6.964 27.623-8.218l.452-.284c6.099-3.574 5.794-13.406 5.77-13.872z" fill="#fff"/><path d="M339.311 191.316c-1.787-1.767-2.702-3.724-2.877-6.564 2.797.584 4.521 4.071 2.877 6.564zm-3.667-9.641c-1.515-.978-3.822-4.276-3.476-6.975 3.555.047 4.584 5.207 3.476 6.975zm7.096 7.195c.932 4.118-2.056 6.343-5.009 2.935-1.248-1.42-1.833-2.73-2.354-4.418l-.079-.252c-.507-2.162-.253-3.945-.253-3.945-.886-.789-1.517-1.531-2.008-2.225-.172-.189-.299-.347-.411-.505-.774-1.073-1.199-2.146-1.405-2.84l-.142-.584-.017-.126c-.109-.726-.158-1.341-.158-1.846 0-1.073.205-1.752.46-2.162l.014-.016c.079-.142.175-.252.269-.331l.063-.047.16-.126c.773-.489 1.752-.237 1.752-.237 2.593.347 5.578 4.055 5.578 9.357 0 .221 0 .426-.014.647 1.58 1.578 2.732 3.077 3.555 6.722zm-125.925 164.086c1.879-1.641 5.377-1.551 6.979.825.804 1.206-.054 2.021-.675 1.067-1.157-1.289-4.062-1.892-5.734-.773-.749.461-1.526-.147-.57-1.119zm3.498-2.285c-5.311-.208-7.071 5.109-6.145 7.893-1.795-1.688-1.18-9.641 6.292-9.671 5.347-.011 9.073 6.842 4.612 11.45 1.937-4.158.352-9.45-4.759-9.671zm3.724 8.72c0 2.503-2.004 4.521-4.468 4.521-2.474 0-4.473-2.018-4.473-4.521 0-2.49 1.999-4.519 4.473-4.519 2.465 0 4.468 2.029 4.468 4.519zm-4.508 3.533c1.975 0 3.577-1.594 3.577-3.569 0-1.972-1.602-3.563-3.577-3.563-1.974 0-3.574 1.591-3.574 3.563 0 1.976 1.601 3.569 3.574 3.569zm2.275-2.861c.422-.601.416.224.416.224-1.705 3.358-5.595 1.236-5.331-.809.1-.458.308-.234.408.118.975 1.535 3.686 1.657 4.508.467zm-7.172-37.309c-5.856.907-8.073-3.476-8.1-3.52-1.732-2.705-.558-5.846-.558-5.846.523-1.423 1.591-3.891 6.165-4.208l.038-.011h.041c5.72-.188 7.712 4.231 8.111 5.802 3.813-.47 6.613 2.017 6.733 2.13 4.584 4.497 1.446 8.592 1.414 8.638-.036.046-3.833 5.261-10.732 1.168-.939-.566-1.774-1.428-2.274-2.345l-.005.009c-.566-1.052-.834-1.816-.834-1.816zm-7.254-9.425c-2.034 5.477 3.392 9.337 8.186 7.877 1.133 5.651 7.243 7.001 10.414 4.993-2.531.402-7.772.248-8.6-5.767-3.808 1.403-10.593.323-10-7.102zm1.315-1.576s-1.188 4.889 2.383 6.897c.246.114.381.312.616.39-.205-.729-.253-1.557-.267-2.645-.455-.306-.815-.429-1.041-.833l.005-1.242c.352.38.634.388.989.683.103-1.726.376-3.432 1.106-4.567-1.719-.084-2.637.349-3.791 1.316zm5.957-1.101c-.781 1.456-1.191 3.229-1.256 5.168.692.306 1.326.54 2.041.598 0 0-.09.715-.07 1.043-.706.033-1.367-.077-1.955-.282.041.8.058 1.526.246 2.255 3.598.552 5.364-1.725 5.576-3.402l-.294-.028c.126-2.298-1.735-4.541-4.29-5.351zm6.015 5.493c-.27 1.841-1.42 3.221-2.119 3.726.752 4.006 3.28 5.78 7.771 5.196l.939-.156c2.587-3.773-1.438-8.919-6.591-8.766zm100.378-35.11c-2.571-11.947.156-34.145 8.877-40.484-12.459 1.505-15.929 32.702-8.877 40.484zm-187.736 100.199c-6.271 4.497-20.969 9.974-34.054 11.208-13.3 2.141-20.704-7.175-18.133-14.282l-.728-1.794c-.703-1.711-9.215-19.068-8.272-26.574 7.036 12.878 13.213 21.078 15.115 23.01.07.297.133.601.223.874-.156 1.867.251 7.44 11.163 5.411-3.321 6.369-15.698 2.843-13.292-5.616-1.797-2.239-6.158-9.299-6.158-9.299-.199.043.198 2.086.167 1.96 1.469 3.055 4.036 8.317 4.036 8.317-1.972 12.398 15.859 13.337 17.13 4.231l.103-.024c.926-.174.926-.038 1.56-.363-.774 3.716-2.55 5.744-4.655 6.812-3.819 1.927-4.939 5.315.863 4.898 5.905-.413 16.352-2.086 28.723-8.082l2.618-1.422c-5.227-3.301-10.735-3.842-14.491-4.114-2.942-.204-7.657.582-11.065 1.269l.637-.199c14.188-4.674 22.916-1.744 29.955 2.741-.405.298-.935.682-1.444 1.038zm16.275-18.085c1.109.383 2.828 1.84 3.25 2.537 1.1 1.804-.07 2.714-.545 1.706-.54-1.166-2.301-2.662-3.285-2.85-.997-.193-.618-1.807.58-1.393zm-5.341 1.03c4.213-6.594 14.889 1.706 9.401 8.833 8.272-6.081-5.887-19.6-9.401-8.833zm6.143 2.919c1.92 2.023 2.248 4.824.739 6.247-1.504 1.438-4.284.956-6.203-1.065-1.918-2.018-2.247-4.813-.738-6.249 1.514-1.422 4.285-.956 6.202 1.067zm-.052 5.813c1.438-1.089.48-3.898-.634-5.174-1.373-1.57-3.667-2.345-4.957-1.108-1.153 1.12-1.018 3.487.66 5.023 1.555 1.426 3.674 2.185 4.93 1.259zm-4.156-4.941c.226 1.527 1.842 3.134 3.375 3.538.37.088.49.649-.281.787-2.571.245-4.875-2.873-3.927-4.254 0 0 .703-.967.833-.071z" fill="#fff"/></g></svg>