<svg width="500" height="500" viewBox="0 0 500 500" xmlns="http://www.w3.org/2000/svg"><title>Logos/Clubs/DAL/Primary</title><desc>Created with Sketch.</desc><g fill="none"><path d="M0 0h500v500h-500z"/><path fill="#fff" d="M489.054 196.69h-181.661l-57.867-173.052-57.872 173.052h-181.655l148.834 106.554-57.135 173.151 147.828-105.597 147.839 105.394-57.152-172.942 148.84-106.559"/><path fill="#024" d="M249.527 44.232l-53.226 158.918h-166.204l136.353 97.609-52.44 158.913 135.544-96.801 135.5 96.801-52.462-158.913 136.358-97.609h-166.204l-53.22-158.918"/><path fill="#fff" d="M249.527 88.031l-42.801 128.72h-134.626l110.449 79.066-42.476 128.714 109.784-78.401 109.118 78.401-42.476-128.709 110.455-79.071h-134.632l-42.795-128.72"/><path fill="#024" d="M249.527 125.887l-33.64 101.688h-106.342l87.245 62.463-33.563 101.688 86.739-61.941 85.854 61.941-33.569-101.683 87.251-62.469h-106.342l-33.635-101.688"/></g></svg>