<svg width="500" height="500" viewBox="0 0 500 500" xmlns="http://www.w3.org/2000/svg"><title>Logos/Clubs/LAC/Primary</title><desc>Created with Sketch.</desc><g fill="none"><path d="M0 0h500v500h-500z"/><path d="M246.825 110.496c-4.488 0-9.141.1-13.83.295l-9.36.396 12.476 15.48c-2.093-.059-4.216-.083-6.356-.083-18.554 0-55.633 2.25-95.521 17.328-18.004 6.804-34.466 15.468-48.916 25.739-16.284 11.582-30.179 25.325-41.289 40.852l-5.115 7.152 8.792.319c2.312.083 4.316.118 6.315.118.982 0 1.892-.006 2.726-.018-8.526 10.908-20.488 28.916-30.208 51.229-6.983 16.035-11.826 32.028-14.386 47.544-3.069 18.61-2.856 36.594.644 53.456l2.613 12.586 6.167-11.286c23.35-42.701 50.152-75.131 81.951-99.139 27.347-20.642 53.611-31.568 76.778-41.206 1.632-.679 3.24-1.347 4.831-2.014l4.789-2.002-2.436-4.571c-1.697-3.189-4.914-7.377-7.882-10.95 5.061-.213 10.123-.319 15.125-.319 69.268 0 137.324 20.163 202.271 59.934l10.341 6.331-3.317-11.653c-1.307-4.589-2.542-8.641-3.743-12.308 35.341 33.564 64.798 81.415 79.627 117.43l7.61 18.48 1.478-19.921c2.034-27.132.242-54.389-5.15-78.834-6.469-29.353-17.993-54.814-34.229-75.656-9.112-13.235-19.388-25.16-31.415-36.434-18.371-17.24-40.071-32.082-64.473-44.106l-.16-.089-.177-.059c-1.685-.679-3.808-1.66-6.256-2.782-7.722-3.555-19.388-8.924-35.79-13.342-19.459-5.233-41.171-7.896-64.526-7.896" fill="#fff"/><path d="M233.196 115.51c4.701-.195 9.248-.289 13.629-.289 61.83 0 92.021 18.551 104.822 23.677 55.095 27.162 82.395 61.99 94.149 79.088 29.28 37.509 39.279 86.039 39.302 129.708 0 7.377-.29 14.617-.81 21.646-17.727-43.061-54.232-99.109-95.598-132.018.686 1.417 1.342 2.841 1.981 4.294.763 1.736 1.49 3.508 2.2 5.345 2.3 5.953 4.37 12.485 6.605 20.346-60.257-36.895-129.183-60.631-204.742-60.631-8.278 0-16.627.283-25.052.868 0 0 1.307 1.417 3.146 3.526.272.301.55.62.834.957 3.288 3.803 7.716 9.213 9.65 12.857-46.599 19.484-110.622 43.362-165.883 144.456-1.88-9.072-2.708-18.12-2.702-27.038.071-55.038 32.29-105.045 48.101-124.263.302-.366.597-.726.887-1.063 1.153-1.37 2.2-2.557 3.128-3.55-2.341-.094-4.157-.118-5.765-.118-1.242 0-2.365.012-3.506.024-1.118.018-2.253.035-3.548.035-1.685 0-3.636-.03-6.143-.118 45.694-63.868 128.432-81.94 181.877-81.94 3.559 0 6.995.077 10.282.23.556.03 1.123.059 1.667.083 1.614.089 3.187.201 4.724.319l-13.233-16.431" fill="#002A5E"/><path d="M255.434 123.82l-5.416.112s7.598 10.867 10.992 15.722c-25.892-2.12-125.416-5.339-192.207 61.122l-4.736 4.731s17.177.549 19.157.602c-1.65 2.038-3.311 4.081-3.311 4.081-20.062 24.292-47.533 57.566-56.987 121.859l-1.815 12.444 7.089-10.401c36.086-52.954 82.85-90.215 139.057-110.703l3.577-1.317-2.229-3.089c-5.871-8.144-11.583-13.365-16.816-17.836 98.395-9.946 169.579 16.708 226.253 44.425l6.894 3.39-2.95-7.081c-5.475-13.224-10.477-22.136-15.681-30.44 42.537 25.213 72.426 62.256 103.166 109.728l6.333 9.745-1.005-11.576c-11.146-128.498-136.769-197.173-219.364-195.519" fill="#0080C6"/><path d="M269.353 141.503s-4.878-6.993-8.213-11.765c39.947.774 87.326 18.167 125.186 46.362 32.337 24.073 71.663 66.118 81.265 131.799-31.379-47.036-62.823-83.547-108.914-107.578l-9.904-5.162 6.197 9.379c6.504 9.857 12.275 18.882 18.501 32.495-54.764-26.081-129.342-52.717-229.138-41.023l-6.616.78 7.911 6.692c4.914 4.146 10.401 8.9 15.976 15.97-52.044 19.809-95.976 53.934-130.874 101.413 10.678-54.908 35.317-84.793 53.659-106.994l10.738-13.2-5.931-.148-11.187-.36c75.01-69.006 187.394-54.312 188.535-54.152l6.676 1.022-3.867-5.528" fill="#FFC20E"/></g></svg>