<svg width="500" height="500" viewBox="0 0 500 500" xmlns="http://www.w3.org/2000/svg"><title>Logos/Clubs/LA/Primary</title><desc>Created with Sketch.</desc><g fill="none"><path d="M0 0h500v500h-500z"/><path d="M477.719 235.312c-.413 1.175-.761 2.399-1.222 3.539-5.595 13.914-14.587 29.556-34.834 39.795.252 1.467.479 2.96.687 4.467.753 5.385 1.201 10.993 1.201 16.713 0 1.606-.139 3.256-.209 4.88-.07 1.624-.065 3.226-.209 4.88l-.487 4.841-.822.762s-1.475 1.341-3.367 3.056c-1.623 1.476-3.524 3.209-5.177 4.719-.713.644-1.388 1.263-1.94 1.768-1.64 8.028-3.637 15.603-5.786 22.625-8.048 26.317-18.272 44.684-20.351 48.289l-.344.596-1.949 3.252-.783.379-2.636 1.267c-5.125 2.442-14.039 4.667-27.203 7.967l-5.677 1.458-5.677 1.454-4.716 1.302-56.116-31.55 1.379-2.508c0-.009 2.38-4.367 3.624-7.357.887-2.177 1.518-3.326 1.888-5.22.204-1.088.331-2.447.361-4.371l.009-.226v-.004c-.004-.544-.113-1.08-.174-1.624-.165-1.567-.487-3.117-1.222-4.562-.535-.631-1.035-1.189-1.518-1.707-2.88-3.069-5.099-4.506-8.34-7.318-1.479-1.302-2.823-2.499-4.046-3.596l-.004.004c-1.971 3.296-4.537 6.569-7.831 9.508l-.487.457-10.306 8.859-3.402-4.636-4.638-6.304c-.357-.475-64.017-85.263-206.554-96.721l-15.405-1.245-15.401-1.245h-.004l23.775-19.76c3.48-2.852 74.958-61.637 169.949-85.394 9.828-2.455 19.903-4.541 30.183-6.147.526-.083 1.392-.239 2.515-.457 1.053-1.689 2.236-3.287 3.393-4.906.609-.853 1.149-1.759 1.792-2.59 25.18-32.76 63.829-45.659 99.22-45.659 10.837.009 21.348 1.258 31.162 3.487 6.339 1.441 12.39 3.274 17.998 5.525 4.577 1.842 8.879 3.927 12.825 6.252h.009l-.009.004c4.05 2.39 7.809 4.959 11.429 7.601 21.422 15.664 35.382 35.429 43.043 55.755 4.994 13.261 7.37 26.743 7.365 39.447 0 10.827-1.766 21.049-4.959 30.2zm5.603-68.55c-6.987-20.492-22.953-49.403-58.857-70.596-17.95-10.601-41.425-16.26-65.565-16.265-6.295 0-12.642.383-18.933 1.184-35.347 4.441-65.948 21.188-85.977 47.257-1.331 1.737-2.589 3.548-3.798 5.385-111.31 17.558-199.045 89.791-202.934 92.986l-37.257 30.949 48.264 3.879c71.978 5.808 122.834 30.988 152.817 51.045 32.841 21.972 48.594 42.821 48.625 42.856l6.134 8.363 6.391 8.729 16.153-13.87c1.736-1.489 3.354-3.13 4.859-4.885l1.327 1.101c1.971 1.589 3.398 2.773 5.234 4.811.265.714.413 1.485.422 2.399-.061 3.548-.244 3.539-1.209 5.925l-.483 1.123c-.535 1.306-1.375 2.986-2.062 4.336l-.874 1.685-.265.492h.009l-4.872 8.89 64.821 36.452 1.162-.327c.052-.004 5.103-1.411 6.234-1.741 1.022-.244 11.333-2.899 11.381-2.912 13.93-3.478 22.805-5.729 28.504-8.42l5.334-2.599 3.067-5.081c.835-1.411 18.102-30.579 26.851-71.436 3.137-2.847 10.841-9.865 10.841-9.865l.822-.753.365-3.87.361-3.74c.318-3.461.47-6.948.47-10.422 0-5.629-.426-11.45-1.227-17.34 19.638-11.558 28.408-27.958 33.651-40.958 4.507-11.11 6.726-23.513 6.726-36.347 0-12.664-2.167-25.751-6.508-38.419z" fill="#fff"/><path d="M457.642 247.488c-5.825 9.695-13.321 17.005-21.026 21.284-2.145 1.189-4.29 2.138-6.434 2.86-.887.309-1.771.553-2.654.766v.004c.518 2.159.97 4.393 1.401 6.661.213 1.11.413 2.233.596 3.365 0 .126.022.226.048.353.461 2.965.827 6.021 1.07 9.125.039.583.104 1.167.131 1.759.044.653.061 1.341.091 2.007.039.788.07 1.572.087 2.36l.013 1.794v.052c0 .91-.009 1.833-.052 2.738-.009.47-.017.953-.035 1.432v.035c-.061 1.437-.152 2.873-.291 4.31l-10.763 9.795-.004.004c-4.616 25.089-13.186 46.182-19.172 58.842-1.979 4.192-3.694 7.501-4.868 9.669-1.088 2.016-1.731 3.087-1.731 3.087-5.917 2.834-27.36 7.518-36.517 10.104l-41.085-22.512c.013-.022 2.414-4.737 3.224-11.197.183-1.437.278-2.96.257-4.541-.052-3.944-.883-8.224-3.163-12.329-1.431-2.586-9.514-9.369-16.318-15.411-.239-.226-.474-.422-.709-.618-.548-.488-1.949-1.82-3.563-3.422-2.693-2.66-5.991-6.056-6.995-7.479-3.785-5.446-7.578-13.078-9.636-23.461 0 0-.144.509-.318 1.437-.753 4.018-2.045 15.912 5.603 28.437-1.54 4.784-4.263 10.596-9.297 14.919-.022-.044-5.838-9.7-18.955-23.522-25.098-26.439-76.916-68.075-165.991-86.582.078-.074 62.872-58.776 159.878-79.76-.97 2.225-1.888 4.488-2.71 6.774-2.11 3.252-5.077 8.498-7.57 15.477-5.486 15.346-8.692 39.064 4.494 68.284 23.262 51.541 86.939 53.57 108.347 21.323.653-.993 1.257-1.981 1.836-2.973.7-1.197 1.357-2.394 1.953-3.587 1.231-2.077 2.319-4.327 3.254-6.713.792-2.05 1.436-4.066 1.94-6.051 7.552-29.778-16.375-51.976-36.317-50.287 26.472 13.522 19.259 38.776 8.492 47.031-11.481 8.803-29.97 7.797-41.325-7.889-23.466-32.342-3.593-71.906 29.252-85.098 14.639-5.868 31.845-6.504 48.942 1.08 5.699 2.529 11.381 5.973 16.958 10.44 2.162 1.728 4.111 3.57 5.943 5.468 15.94 16.552 19.694 38.82 15.496 53.783-.117.427-.27.832-.405 1.241-.135.414-.252.836-.405 1.236l-.091.287c-.566 1.498-1.244 2.86-1.979 4.158-.492.858-.992 1.707-1.557 2.473-.483.662-.97 1.306-1.501 1.872l-.287.296-.135.152-.117.113-.104.109h-.004c-.439.457-.866.888-1.344 1.323 0 0 1.771 1.902 4.015 4.589 1.466 1.759 3.128 3.84 4.642 5.973 5.769 8.097 6.626 11.11 9.136 12.277.396.165.827.3 1.283.379h.013c.448.087.927.131 1.44.131.666 0 1.383-.07 2.145-.226l.035-.013c1.527-.313 3.232-.945 5.042-1.959.887-.496 1.797-1.075 2.728-1.754 3.476-2.529 8.218-8.01 11.459-12.965.966-1.476 1.818-2.912 2.436-4.205 2.006-4.179 7.974-17.514 8.283-37.344l.009-1.606v-.013c0-5.168-.409-10.771-1.344-16.735-.235-1.493-.474-2.991-.783-4.532-1.41-7.079-3.828-13.757-6.922-20.013-7.97-16.086-20.682-29.203-34.142-38.163-5.238-3.478-10.572-6.373-15.779-8.524-27.116-11.21-54.193-9.634-58.861-9.264l-.539.048-.165.009c.257-.044 28.46-4.915 59.17 4.532l.914.266.139.048c11.363 3.609 23.005 9.251 33.685 17.797 12.099 9.682 22.949 23.095 30.662 41.75 14.074 34.005 9.162 63.287-2.575 82.834zm-39.741-140.169l-.004-.013c-15.109-8.938-36.43-14.467-59.04-14.449-29.809 0-61.685 9.491-85.125 32.621-3.345 3.304-6.526 6.887-9.497 10.762-1.362 1.776-2.636 3.64-3.863 5.533-.548.845-1.105 1.676-1.623 2.538l-.661 1.084-.626.131-.631.126-1.444.279c-1.044.205-1.953.37-2.545.466-42.708 6.639-82.001 21.754-114.125 37.758-48.899 24.358-81.135 50.779-83.189 52.507l-12.829 10.653 16.593 1.337c94.909 7.649 155.536 47.27 186.32 74.035l.144.122c1.731 1.506 3.332 2.952 4.877 4.367 12.803 11.767 19.155 20.161 19.433 20.548l4.329 5.895 5.56-4.767c3.972-3.422 6.726-7.471 8.701-11.48l.848-1.724.848-1.733 2.867 2.595c1.914 1.754 4.098 3.679 6.721 5.99 3.354 2.956 6.417 4.828 10.68 9.891l.191.235.139.248c.409.762.757 1.537 1.04 2.316.848 2.329 1.17 4.697 1.17 6.896v.004c.057 5.407-1.079 8.32-2.214 10.94l-.487 1.11c-.74 1.785-1.749 3.801-2.545 5.372l49.064 27.566 2.454-.675 11.437-2.934c11.459-2.834 19.786-5.011 24.371-6.826.653-.257 1.231-.509 1.731-.758l1.849-.871 1.062-1.754c.17-.283 1.51-2.569 3.506-6.443 2.197-4.249 5.19-10.457 8.392-18.224 4.999-12.094 10.463-27.915 14.056-45.929l.183-.932.705-.64 2.153-1.972c2.741-2.508 6.552-5.969 8.222-7.479l.244-2.599c.274-3.1.418-6.173.418-9.216l-.03-1.128c-.078-7.296-.892-14.454-2.18-21.149l-.409-2.212 2.027-.958c12.394-5.89 20.277-13.639 25.828-21.963l.178-.253.561-.892c3.05-4.78 5.381-9.721 7.374-14.602 3.472-8.555 5.403-18.541 5.66-29.173.017-.805.1-1.576.1-2.386v-.004c-.013-33.544-17.106-73.06-58.97-97.788z" fill="#fff"/><path d="M411.388 310.205c-2.98 22.534-11.268 44.867-17.55 59.425-2.571 5.969-4.82 10.666-6.208 13.478-2.332 1.145-10.454 1.519-10.454 1.519l.004-.004h-.009s6.265-7.009 5.686-14.68c-.091-1.245-.348-2.499-.853-3.748-.557-1.367-1.762-2.555-3.302-3.078-.587-.2-1.209-.322-1.888-.296-1.658.052-3.024.557-4.259 1.911-2.397 2.625-2.371 6.091-.479 10.474.587-.405 1.131-.975 1.623-1.559.483-.583.914-1.175 1.279-1.633.265 1.637.6 3.261-.178 5.368-1.257 3.404-3.485 6.321-6.269 8.616-2.984 2.46-6.617 4.197-10.432 4.967h-.004c.039.161-4.572-2.294-5.447-2.869l-.178-.126-.004-.004c.3-.736.657-1.554 1.04-2.434 1.144-2.647 2.549-5.834 3.585-8.968 4.633-13.996 2.414-23.822-1.897-29.773-3.328 1.397-9.606 4.806-14.087 7.384-1.253.723-2.388 1.393-3.254 1.924 1.523 2.647 3.215 5.181 4.529 8.041 1.897 4.127 2.915 9.003 1.557 15.807-.209 1.054-.392 2.085-.722 3.239.078.152-1.919-.901-4.446-2.273-4.211-2.281-9.906-5.464-9.923-5.477 1.114-3.731 2.11-8.533 1.849-14.671-.096-2.142-.335-4.441-.787-6.922-.139-.81-.679-2.46-1.344-4.131-.674-1.676-1.475-3.37-2.145-4.288v-.004c3.285-3.64 7.583-7.022 11.881-9.987 5.686-3.927 11.376-7.105 14.744-9.012 2.032.488 4.768 1.502 7.857 2.978 5.294 2.521 11.663 6.421 17.589 11.476 5.347 4.558 10.319 10.03 13.778 16.286 3.228-7.079 5.338-13.866 6.765-20.139 2.649-11.654 2.854-21.48 2.784-27.658l2.223-2.064 4.285-3.988c.487-6.147.122-12.116-.757-17.81-4.142-26.761-20.356-47.048-20.356-47.048l.013.009-.009-.009s28.643 22.843 31.436 57.875c.183 2.338.252 4.728.196 7.17l-7.461 6.704zm-62.211 65.28c-.035-5.62.309-13.705-2.889-16.604.348-1.659 5.12-1.998 5.12-1.998h.004c3.38 11.998-1.879 19.7-2.184 20.84-.03-.683-.048-1.432-.052-2.238zm45.732-69.786l.165-.161s.122 1.215-.383 2.63c-.07.2-.148.396-.239.596-1.557.631-4.189.052-5.216-2.399.713.422 1.388.623 2.01.679.927.087 1.727-.148 2.358-.453.626-.309 1.079-.688 1.305-.892zm-7.748-13.6c.444-1.75.622-3.609.692-5.15.083-1.898 0-3.309 0-3.309v.009-.013c1.792 2.29 3.163 4.597 4.198 6.861 1.04 2.273 1.74 4.506 2.197 6.639h-.004v.004l-.378-.03-.026-.004c-1.423 0-2.728.409-3.872 1.075-2.28 1.337-3.82 3.779-3.82 6.617 0 2.843 1.54 5.289 3.82 6.626 1.144.666 2.449 1.08 3.872 1.08l.03-.004h.004c-.496 1.82-.944 2.882-.944 2.882h-.004v.004c-6.817 0-12.351-5.529-12.351-12.351 0-4.75 2.68-8.864 6.587-10.936zm42.395-169.194c12.099 9.682 22.949 23.095 30.662 41.75 14.074 34.005 9.162 63.287-2.575 82.834-5.825 9.695-13.321 17.005-21.026 21.284-2.145 1.189-4.29 2.138-6.434 2.86-.887.309-1.771.553-2.654.766v.004c.518 2.159.97 4.393 1.401 6.661.213 1.11.413 2.233.596 3.365 0 .126.022.226.048.353.461 2.965.827 6.021 1.07 9.125.039.583.104 1.167.131 1.759.044.653.061 1.341.091 2.007.039.788.07 1.572.087 2.36l.013 1.794v.052c0 .91-.009 1.833-.052 2.738-.009.47-.017.953-.035 1.432v.035c-.061 1.437-.152 2.873-.291 4.31l-10.763 9.795-.004.004c-4.616 25.089-13.186 46.182-19.172 58.842-1.979 4.192-3.694 7.501-4.868 9.669-1.088 2.016-1.731 3.087-1.731 3.087-5.917 2.834-27.36 7.518-36.517 10.104l-41.085-22.512c.013-.022 2.414-4.737 3.224-11.197.183-1.437.278-2.96.257-4.541-.052-3.944-.883-8.224-3.163-12.329-1.431-2.586-9.514-9.369-16.318-15.411l-.022-.205s-.252-.131-.687-.414c-.548-.488-1.949-1.82-3.563-3.422-2.693-2.66-5.991-6.056-6.995-7.479-3.785-5.446-7.578-13.078-9.636-23.461 0 0-.144.509-.318 1.437-.753 4.018-2.045 15.912 5.603 28.437-1.54 4.784-4.263 10.596-9.297 14.919-.022-.044-5.838-9.7-18.955-23.522-25.098-26.439-76.916-68.075-165.991-86.582.078-.074 62.872-58.776 159.878-79.76-.97 2.225-1.888 4.488-2.71 6.774-2.11 3.252-5.077 8.498-7.57 15.477-5.486 15.346-8.692 39.064 4.494 68.284 23.262 51.541 86.939 53.57 108.347 21.323.653-.993 1.257-1.981 1.836-2.973.7-1.197 1.357-2.394 1.953-3.587 1.231-2.077 2.319-4.327 3.254-6.713.792-2.05 1.436-4.066 1.94-6.051 7.552-29.778-16.375-51.976-36.317-50.287 26.472 13.522 19.259 38.776 8.492 47.031-11.481 8.803-29.97 7.797-41.325-7.889-23.466-32.342-3.593-71.906 29.252-85.098 14.639-5.868 31.845-6.504 48.942 1.08 5.699 2.529 11.381 5.973 16.958 10.44 2.162 1.728 4.111 3.57 5.943 5.468 15.94 16.552 19.694 38.82 15.496 53.783-.117.427-.27.832-.405 1.241-.135.414-.252.836-.405 1.236l-.091.287c-.566 1.498-1.244 2.86-1.979 4.158-.492.858-.992 1.707-1.557 2.473-.483.662-.97 1.306-1.501 1.872l-.287.296-.135.152-.117.113-.104.109h-.004c-.439.457-.866.888-1.344 1.323 0 0 1.771 1.902 4.015 4.589 1.466 1.759 3.128 3.84 4.642 5.973 5.769 8.097 6.626 11.11 9.136 12.277.396.165.827.3 1.283.379h.013c.448.087.927.131 1.44.131.666 0 1.383-.07 2.145-.226l.035-.013c1.527-.313 3.232-.945 5.042-1.959.887-.496 1.797-1.075 2.728-1.754 3.476-2.529 8.218-8.01 11.459-12.965.966-1.476 1.818-2.912 2.436-4.205 2.006-4.179 7.974-17.514 8.283-37.344l.009-1.606v-.013c0-5.168-.409-10.771-1.344-16.735-.235-1.493-.474-2.991-.783-4.532-1.41-7.079-3.828-13.757-6.922-20.013-7.97-16.086-20.682-29.203-34.142-38.163-5.238-3.478-10.572-6.373-15.779-8.524-27.116-11.21-54.193-9.634-58.861-9.264l-.539.048-.165.009c.257-.044 28.46-4.915 59.17 4.532l.914.266.139.048c11.363 3.609 23.005 9.251 33.685 17.797zm-129.821 210.382c.435.283.683.414.683.414l.026.205c-.239-.226-.474-.422-.709-.618z" id="Combined-Shape" fill="#024"/><path d="M476.87 205.112c0 .81-.083 1.58-.1 2.386-.257 10.631-2.188 20.618-5.66 29.173-1.992 4.88-4.324 9.821-7.374 14.602l-.561.892-.178.253c-5.551 8.324-13.434 16.073-25.828 21.963l-2.027.958.409 2.212c1.288 6.696 2.101 13.853 2.18 21.149l.03 1.128c0 3.043-.144 6.117-.418 9.216l-.244 2.599c-1.671 1.511-5.482 4.972-8.222 7.479l-2.153 1.972-.705.64-.183.932c-3.593 18.015-9.058 33.835-14.056 45.929-3.202 7.767-6.195 13.975-8.392 18.224-1.997 3.875-3.337 6.16-3.506 6.443l-1.062 1.754-1.849.871c-.5.248-1.079.501-1.731.758-4.585 1.815-12.912 3.992-24.371 6.826l-11.437 2.934-2.454.675-49.064-27.566c.796-1.572 1.805-3.587 2.545-5.372l.487-1.11c1.135-2.621 2.271-5.533 2.214-10.94v-.004c0-2.199-.322-4.567-1.17-6.896-.283-.779-.631-1.554-1.04-2.316l-.139-.248-.191-.235c-4.263-5.063-7.326-6.935-10.68-9.891-2.623-2.312-4.807-4.236-6.721-5.99l-2.867-2.595-.848 1.733-.848 1.724c-1.975 4.01-4.729 8.058-8.701 11.48l-5.56 4.767-4.329-5.895c-.278-.387-6.63-8.781-19.433-20.548-1.544-1.415-3.145-2.86-4.877-4.367l-.144-.122c-30.784-26.765-91.411-66.386-186.32-74.035l-16.593-1.337 12.829-10.653c2.053-1.728 34.29-28.15 83.189-52.507 32.124-16.003 71.417-31.119 114.125-37.758.592-.096 1.501-.261 2.545-.466l1.444-.279.631-.126.626-.131.661-1.084c.518-.862 1.075-1.694 1.623-2.538 1.227-1.894 2.501-3.757 3.863-5.533 2.971-3.875 6.152-7.458 9.497-10.762 23.44-23.13 55.316-32.621 85.125-32.621 22.609-.017 43.931 5.512 59.04 14.449l.004.013c41.864 24.728 58.957 64.244 58.97 97.788v.004zm-44.601-95.202c-3.62-2.643-7.378-5.211-11.429-7.601l.009-.004h-.009c-3.946-2.325-8.248-4.41-12.825-6.252-5.608-2.251-11.659-4.084-17.998-5.525-9.815-2.229-20.325-3.478-31.162-3.487-35.391 0-74.04 12.899-99.22 45.659-.644.832-1.183 1.737-1.792 2.59-1.157 1.619-2.341 3.217-3.393 4.906-1.122.218-1.988.374-2.515.457-10.28 1.606-20.356 3.692-30.183 6.147-94.992 23.757-166.469 82.542-169.949 85.394l-23.775 19.76h.004l15.401 1.245 15.405 1.245c142.537 11.458 206.197 96.247 206.554 96.721l4.638 6.304 3.402 4.636 10.306-8.859.487-.457c3.293-2.939 5.86-6.212 7.831-9.508l.004-.004c1.222 1.097 2.567 2.294 4.046 3.596 3.241 2.812 5.46 4.249 8.34 7.318.483.518.983 1.075 1.518 1.707.735 1.445 1.057 2.995 1.222 4.562.061.544.17 1.08.174 1.624v.004l-.009.226c-.03 1.924-.157 3.283-.361 4.371-.37 1.894-1.001 3.043-1.888 5.22-1.244 2.991-3.624 7.349-3.624 7.357l-1.379 2.508 56.116 31.55 4.716-1.302 5.677-1.454 5.677-1.458c13.164-3.3 22.078-5.525 27.203-7.967l2.636-1.267.779-.379 1.953-3.252.344-.596c2.08-3.605 12.303-21.972 20.351-48.289 2.149-7.022 4.146-14.597 5.786-22.625.553-.505 1.227-1.123 1.94-1.768 1.653-1.511 3.554-3.243 5.177-4.719 1.892-1.715 3.367-3.056 3.367-3.056l.822-.762.487-4.841c.144-1.654.139-3.256.209-4.88.07-1.624.209-3.274.209-4.88 0-5.72-.448-11.328-1.201-16.713-.209-1.506-.435-3-.687-4.467 20.247-10.239 29.239-25.881 34.834-39.795.461-1.141.809-2.364 1.222-3.539 3.193-9.151 4.959-19.373 4.959-30.2.004-12.703-2.371-26.186-7.365-39.447-7.661-20.326-21.622-40.091-43.043-55.755z" fill="#024"/><path d="M391.245 307.044c.927.087 1.727-.148 2.358-.453.626-.309 1.079-.688 1.305-.892l.165-.161s.122 1.215-.383 2.63c-.07.2-.148.396-.239.596-1.557.631-4.189.052-5.216-2.399.713.422 1.388.623 2.01.679zm-39.833 49.839c3.38 11.998-1.879 19.7-2.184 20.84-.03-.683-.048-1.432-.052-2.238-.035-5.62.309-13.705-2.889-16.604.348-1.659 5.12-1.998 5.12-1.998h.004zm35.804-118.428s28.643 22.843 31.436 57.875c.183 2.338.252 4.728.196 7.17l-7.461 6.704c-2.98 22.534-11.268 44.867-17.55 59.425-2.571 5.969-4.82 10.666-6.208 13.478-2.332 1.145-10.454 1.519-10.454 1.519l.004-.004h-.009s6.265-7.009 5.686-14.68c-.091-1.245-.348-2.499-.853-3.748-.557-1.367-1.762-2.555-3.302-3.078-.587-.2-1.209-.322-1.888-.296-1.658.052-3.024.557-4.259 1.911-2.397 2.625-2.371 6.091-.479 10.474.587-.405 1.131-.975 1.623-1.559.483-.583.914-1.175 1.279-1.633.265 1.637.6 3.261-.178 5.368-1.257 3.404-3.485 6.321-6.269 8.616-2.984 2.46-6.617 4.197-10.432 4.967h-.004c.039.161-4.572-2.294-5.447-2.869l-.178-.126-.004-.004c.3-.736.657-1.554 1.04-2.434 1.144-2.647 2.549-5.834 3.585-8.968 4.633-13.996 2.414-23.822-1.897-29.773-3.328 1.397-9.606 4.806-14.087 7.384-1.253.723-2.388 1.393-3.254 1.924 1.523 2.647 3.215 5.181 4.529 8.041 1.897 4.127 2.915 9.003 1.557 15.807-.209 1.054-.392 2.085-.722 3.239.078.152-1.919-.901-4.446-2.273-4.211-2.281-9.906-5.464-9.923-5.477 1.114-3.731 2.11-8.533 1.849-14.671-.096-2.142-.335-4.441-.787-6.922-.139-.81-.679-2.46-1.344-4.131-.674-1.676-1.475-3.37-2.145-4.288v-.004c3.285-3.64 7.583-7.022 11.881-9.987 5.686-3.927 11.376-7.105 14.744-9.012 2.032.488 4.768 1.502 7.857 2.978 5.294 2.521 11.663 6.421 17.589 11.476 5.347 4.558 10.319 10.03 13.778 16.286 3.228-7.079 5.338-13.866 6.765-20.139 2.649-11.654 2.854-21.48 2.784-27.658l2.223-2.064 4.285-3.988c.487-6.147.122-12.116-.757-17.81-4.142-26.761-20.356-47.048-20.356-47.048l.013.009-.009-.009zm5.708 76.93c-6.817 0-12.351-5.529-12.351-12.351 0-4.75 2.68-8.864 6.587-10.936.444-1.75.622-3.609.692-5.15.083-1.898 0-3.309 0-3.309v.009-.013c1.792 2.29 3.163 4.597 4.198 6.861 1.04 2.273 1.74 4.506 2.197 6.639h-.004v.004l-.378-.03-.026-.004c-1.423 0-2.728.409-3.872 1.075-2.28 1.337-3.82 3.779-3.82 6.617 0 2.843 1.54 5.289 3.82 6.626 1.144.666 2.449 1.08 3.872 1.08l.03-.004h.004c-.496 1.82-.944 2.882-.944 2.882h-.004v.004z" fill="#fff"/></g></svg>