<?xml version="1.0" encoding="utf-8"?>
<!-- Generator: Adobe Illustrator 16.0.0, SVG Export Plug-In . SVG Version: 6.00 Build 0)  -->
<!DOCTYPE svg PUBLIC "-//W3C//DTD SVG 1.1//EN" "http://www.w3.org/Graphics/SVG/1.1/DTD/svg11.dtd">
<svg version="1.1"
	 id="Layer_1" xmlns:dc="http://purl.org/dc/elements/1.1/" xmlns:cc="http://creativecommons.org/ns#" xmlns:rdf="http://www.w3.org/1999/02/22-rdf-syntax-ns#"
	 xmlns="http://www.w3.org/2000/svg" xmlns:xlink="http://www.w3.org/1999/xlink" x="0px" y="0px" width="727.845px"
	 height="1000px" viewBox="-274.423 -377 727.845 1000" enable-background="new -274.423 -377 727.845 1000" xml:space="preserve">
<g transform="matrix(.347 0 0 .347 200 258)">
	<path fill="#FFFFFF" d="M658.195-1502.116c-87.421,65.574-262.273,152.998-480.849,98.355
		c-386.139-94.715-495.427-426.21-495.427-426.21s-110.012,331.136-495.425,426.21c-221.849,54.643-393.424-33.514-484.496-97.988
		h-69.211v1784.98c0,47.368,10.925,134.794,84.145,225.862c90.711,109.285,243.71,179.589,455.355,210.189
		c171.214,24.406,295.068,77.602,382.499,162.472c65.568,62.286,127.5,170.119,127.5,170.119s63.754-110.008,126.043-170.119
		c88.144-84.871,213.11-137.701,382.486-162.472c212.024-30.631,364.289-101.99,455.359-211.658
		c73.223-88.878,84.148-178.126,84.148-222.924v-1784.996h-69.575"/>
	<path fill="#013369" d="M665.481-1432.901c0,0-210.195,163.559-506.343,89.613c-344.98-86.337-480.859-344.614-480.859-344.614
		s-134.058,258.643-480.854,344.614c-291.427,72.859-502.712-91.072-502.712-91.072V281.413
		c0.037,58.281,24.406,305.999,488.138,371.564c182.506,26.418,318.752,84.882,415.287,179.234
		c35.26,33.805,61.927,68.115,82.323,99.804c20.506-31.574,47.36-65.931,82.323-99.804c98.008-94.352,234.24-153,415.301-179.234
		c462.637-66.654,484.488-314.372,488.129-371.564v-1715.774"/>
	<path fill="#FFFFFF" d="M-318.081,761.176c0,0,134.059-165.391,480.863-218.941c400.703-61.554,386.142-248.795,386.142-258.268
		v-899.78h-1737.638v899.78c0,9.473-11.802,196.714,386.139,258.268c348.25,53.916,480.854,218.941,480.854,218.941"/>
	<g>
		<path fill="#D50A0A" d="M-726.074,42.445l-0.063-426.215l-53.551-30.048v-110.747h244.43v110.747l-51.001,30.048v870.643
			l-130.409-38.981l-188.702-557.347l-0.035,367.919l60.106,45.898v113.295l-261.919-66.674v-96.533l60.105-23.46v-615.64
			l-61.561-30.414v-110.741h198.168l185.059,568.282"/>
		<path fill="#D50A0A" d="M-274.366,432.223l52.447,62.666v110.743l-259.725-96.908v-93.972l57.192-23.466v-775.934l-56.825-28.81
			v-112.199h451.709v225.489h-99.083l-30.026-92.526h-114.739v260.824h85.971l33.873-49.54h69.215V50.643h-69.215l-32.604-47.002
			h-87.426v429.865"/>
		<path fill="#D50A0A" d="M13.422,472.296v-110.74L77.9,308.737v-692.135l-55.02-28.821v-112.196h259.735v112.196l-50.984,28.821
			v652.065l111.826-30.212l21.428-170.473h106.735v284.869l-459.001,122.4"/>
	</g>
	<g>
		<path fill="#FFFFFF" d="M-1143.182-799.053l-78.688-59.012h96.176l31.726-91.067l31.728,91.067h96.176l-78.688,59.378
			l28.922,92.529l-78.322-55.005l-78.319,55.005l28.928-92.529"/>
		<path fill="#FFFFFF" d="M-802.575-799.053l-78.686-59.012h96.167l31.734-91.067l31.728,91.067h96.167l-78.681,59.378
			l28.921,92.529l-78.319-55.005l-78.322,55.005l28.923-92.529"/>
		<path fill="#FFFFFF" d="M-1143.182-1105.046l-78.688-59.017h96.176l31.726-91.067l31.728,91.067h96.176l-78.688,59.38
			l28.922,92.531l-78.322-55.011l-78.319,55.011l28.928-92.531"/>
		<path fill="#FFFFFF" d="M-802.575-1105.046l-78.686-59.017h96.167l31.734-91.067l31.728,91.067h96.167l-78.681,59.38
			l28.921,92.531l-78.319-55.011l-78.322,55.011l28.923-92.531"/>
		<path fill="#FFFFFF" d="M534.343-707.981l-78.319-55.003l-78.325,55.003l28.917-92.526l-78.674-59.38h96.173l31.726-91.067
			l31.72,91.067h96.173l-78.674,59.38l28.951,92.526"/>
		<path fill="#FFFFFF" d="M191.916-707.981l-78.319-55.003l-78.325,55.003L64.2-800.507l-78.685-59.38h96.162l31.734-91.067
			l31.768,91.067h96.162l-78.674,59.38l28.951,92.526"/>
		<path fill="#FFFFFF" d="M534.343-1013.979l-78.319-55.004l-78.325,55.004l28.917-92.527l-78.674-59.379h96.173l31.726-91.066
			l31.72,91.066h96.173l-78.674,59.379l28.951,92.527"/>
		<path fill="#FFFFFF" d="M191.916-1013.979l-78.319-55.004l-78.325,55.004l28.928-92.527l-78.685-59.379h96.162l31.734-91.066
			l31.768,91.066h96.162l-78.674,59.379l28.951,92.527"/>
		<path fill="#FFFFFF" d="M-245.221-1174.261c-35.01-28.854-74.319-47.355-115.842-56.463c10.088-9.546,20.435-17.74,29.505-25.314
			c52.081,12.526,87.058,35.878,111.109,55.73c-8.519,8.744-16.79,17.27-24.625,25.973L-245.221-1174.261z M-295.853-1113.423
			c-33.375-28.018-73.954-48.818-119.854-58.29c7.03-9.07,15.265-18.726,23.166-27.687c35.118,6.231,80.143,24.738,119.478,57.199
			c-8.001,9.612-15.504,19.376-22.579,28.662L-295.853-1113.423z M-341.397-1049.675c-35.987-29.981-77.952-48.448-119.118-56.103
			c0,0,12.639-20.615,19.818-31.295c50.269,9.988,91.068,33.522,119.846,57.561c-7.357,10.489-14.315,20.543-20.546,29.798
			V-1049.675z M-103.527-1354.219c0,0-40.79,21.237-97.614,77.227c12.825,7.254,27.242,17.378,35.514,24.266
			c-8.603,7.608-17.375,15.844-25.529,23.568c-37.163-30.493-75.409-45.9-105.291-53.19c9.918-7.099,20.443-14.095,30.831-20.87
			c16.019,4.075,31.54,10.381,31.54,10.381c64.11-48.815,119.855-69.944,119.855-69.944s-6.462-3.155-23.612-2.926
			c-252.446,3.256-484.499,191.61-440.78,513.635c4.696,34.208,17.99,96.536,34.893,123.859
			c5.612-53.549,25.796-172.306,85.61-299.8c-20.8-7.473-37.888-10.531-37.888-10.531c6.121-12.821,14.613-29.181,14.613-29.181
			c44.439,8.343,83.417,26.885,117.296,53.916c-8.125,13.148-13.627,21.708-17.52,28.486c-11.876-9.36-23.9-17.411-37.156-24.77
			c-67.397,117.659-98.357,228.766-111.107,286.691c0.697,3.584,8.009,5.429,13.914,4.661
			c276.495-35.809,404.349-177.042,444.43-329.677c25.892-100.175,17.406-205.088-17.269-290.698
			c-2.443-6.011-7.182-15.992-15.231-15.265"/>
	</g>
</g>
</svg>
