<?xml version="1.0" encoding="utf-8"?>
<!-- Generator: Adobe Illustrator 16.0.3, SVG Export Plug-In . SVG Version: 6.00 Build 0)  -->
<!DOCTYPE svg PUBLIC "-//W3C//DTD SVG 1.1//EN" "http://www.w3.org/Graphics/SVG/1.1/DTD/svg11.dtd">
<svg version="1.1" id="PILLS" xmlns="http://www.w3.org/2000/svg" xmlns:xlink="http://www.w3.org/1999/xlink" x="0px" y="0px"
	 width="200px" height="136px" viewBox="0 0 200 136" enable-background="new 0 0 200 136" xml:space="preserve">
<path fill="#26292C" d="M200,128c0,4.418-3.582,8-8,8H8c-4.418,0-8-3.582-8-8V8c0-4.418,3.582-8,8-8h184c4.418,0,8,3.582,8,8V128z"
	/>
<g>
	<polygon fill="none" points="113,0 87.892,0 113,25.932 	"/>
	<path fill="none" d="M14,101.973V36.007l-14-2.88v95.271c0,0.115,0,0.228,0,0.342v-23.371L14,101.973z"/>
	<polygon fill="none" points="93,136 118.512,136 93,110.584 	"/>
	<path fill="none" d="M188,35.809V136h4c4.418,0,8-3.182,8-7.602V33.016L188,35.809z"/>
	<polygon fill="#FFFFFF" points="74,107.814 86,111.245 86,136 93,136 93,110.584 118.512,136 128.979,136 74,80.721 	"/>
	<path fill="#FFFFFF" d="M200,33.016V8c0-4.088-3-7.453-7-7.935v26.966l-12,2.893V136h7V35.809L200,33.016z"/>
	<polygon fill="#FFFFFF" points="130,30.026 120,27.018 120,0 113,0 113,25.932 87.892,0 77.59,0 130,54.797 	"/>
	<path fill="#FFFFFF" d="M21,107.787V29.969l-14-2.99V0.084C3,0.619,0,3.955,0,8v25.127l14,2.879v65.965l-14,3.397v23.371
		c0,4.075,4,7.356,8,7.632v-25.188L21,107.787z"/>
	<path fill="#1D3767" d="M193,27.031V0.065C193,0.026,192.331,0,192,0h-72v27.018l10,3.008v24.771L77.59,0H8
		C7.627,0,7,0.034,7,0.084V26.98l14,2.99v77.818l-13,3.397v25.188C8,136.384,7.815,136,8,136h78v-24.755l-12-3.431V80.721
		L128.979,136H181V29.924L193,27.031z M66.247,28.713l3.65,11.618l-9.846-7.408l-9.836,7.108l3.819-11.441L44.773,21h11.505
		l3.773-10.769L63.803,21h12.01L66.247,28.713z M89.334,60.882l-9.848,7.074l3.812-11.377L74.052,49h11.503l3.778-10.787L93.069,49
		h12.006l-9.551,7.675l3.623,11.602L89.334,60.882z M118.613,88.824l-9.836,7.064l3.808-11.345L103.32,77h11.517l3.776-10.769
		L122.378,77h11.974l-9.543,7.671l3.646,11.558L118.613,88.824z M157.716,124.204l-9.854-7.474l-9.834,7.076l3.838-11.308
		l-9.277-7.5h11.51l3.764-10.801L151.63,105h11.993l-9.555,7.6L157.716,124.204z"/>
	<polygon fill="#FFFFFF" points="63.803,21 60.052,10.231 56.278,21 44.773,21 54.035,28.601 50.216,39.968 60.052,32.923 
		69.897,40.395 66.247,28.703 75.813,21 	"/>
	<polygon fill="#FFFFFF" points="105.075,49 93.069,49 89.334,38.213 85.556,49 74.052,49 83.298,56.579 79.486,67.888 
		89.334,60.848 99.147,68.328 95.524,56.667 	"/>
	<polygon fill="#FFFFFF" points="134.352,77 122.378,77 118.613,66.231 114.837,77 103.32,77 112.584,84.543 108.777,95.841 
		118.613,88.801 128.454,96.264 124.809,84.666 	"/>
	<polygon fill="#FFFFFF" points="151.63,105 147.861,94.199 144.098,105 132.587,105 141.863,112.5 138.027,123.775 
		147.861,116.716 157.716,124.195 154.068,112.596 163.624,105 	"/>
</g>
</svg>
