<svg width="500" height="500" viewBox="0 0 500 500" xmlns="http://www.w3.org/2000/svg"><title>Logos/Clubs/NYJ/Primary</title><desc>Created with Sketch.</desc><g fill="none"><path d="M0 0h500v500h-500z"/><path d="M456.957 181.99c-21.176-21.149-50.979-39.122-86.198-51.966-37.185-13.564-79.003-20.729-120.935-20.729-58.461 0-118.631 15.471-165.067 42.44-47.51 27.594-74.756 63.332-74.756 98.048 0 22.15 11.123 44.967 32.165 65.997 21.462 21.439 51.752 39.813 87.601 53.129 37.648 13.978 79.165 21.373 120.057 21.373 41.932 0 83.75-7.17 120.935-20.734 35.219-12.839 65.022-30.812 86.198-51.966 21.386-21.368 32.69-44.81 32.69-67.799 0-22.979-11.304-46.421-32.69-67.794" fill="#fff"/><path d="M475.886 249.784c0-61.177-100.379-126.739-226.062-126.739-120.324 0-226.062 65.963-226.062 126.739 0 60.781 105.738 126.749 226.062 126.749 125.683 0 226.062-65.563 226.062-126.749" fill="#003F2D"/><path d="M337.954 280.846v10.049c-.205 7.685 1.603 9.173 6.78 9.454h13.351v12.543h-57.171c.062-.56.093-1.12.093-1.678 0-.549-.03-1.099-.09-1.65h53.842v-5.893h-10.13c-8.126-.42-10.221-4.596-10.001-12.863v-10.459c1.06.198 2.168.364 3.326.497zm29.045-63.803l6.656-11.158c5.125-7.919 5.659-8.744 12.664-8.643h12.12v-13.392h-61.176v13.32h21.224l.138-.014c1.145-.076 3.011.224 3.416.911.382.634.248 2.937-2.667 7.509l-7.644 12.721c1.352-.261 2.775-.479 4.272-.656l6.178-10.277c9.324-14.612-3.832-13.521-3.832-13.521h-17.76v-6.67h54.525v6.746h-8.746c-10.159-.148-10.579 2.846-18.099 14.117l-5.385 9.09c1.323-.05 2.694-.077 4.115-.082zm-56.488 1.878l-3.925.002-7.959-12.723c-8.508-13.487 4.18-12.357 4.18-12.357h11.981v-6.67l-108.462-.005v6.608h11.218c10.779 0 12.015 6.932 12.015 17.292v7.887l-3.331.001v-7.888c0-5.821-.415-10.121-2.453-12.157-1.222-1.216-3.259-1.812-6.232-1.812h-14.548v-13.258l115.119.01v13.32h-15.307l-.081-.005h-.067c-1.723.119-2.558.396-3.092 1.406-.296.553-.587 2.069 1.885 5.869l9.059 14.48zm-115.675.047l-5.083-6.63-1.725 3.22 2.616 3.412 4.192-.002zm-11.909-15.534h-4.193l-12.446-16.233h-52.53v7.29h15.555c9.915-.014 8.837 7.79 8.956 15.394v23.836l-3.334 6.267-.006-32.339c0-3.571 0-7.261-1.451-8.705-.754-.753-2.152-1.135-4.166-1.125h-18.881v-13.94h57.502l14.993 19.556zm-47.984 80.169v.745c0 12.701-1.369 16.19-6.356 16.224h-18.313v12.286h61.653v-12.429h-17.407c-2.939.029-5.034-.11-5.778-.844-1.622-1.611-1.756-8.71-1.756-15.237v-4.403c-1.069.561-2.176 1.056-3.331 1.493v2.91c0 18.045 1.446 19.48 10.865 19.413h14.076v5.769h-54.997v-5.635h15.011c9.219-.067 9.658-9.187 9.658-19.547v-1.347c-1.068.23-2.175.429-3.326.601zm12.044-66.268l-3.331 6.26v-16.81l5.424 6.615-1.935 3.636-.159-.192v.49zm51.035 61.278l11.843 14.334c.884-.69 1.812-1.362 2.78-2.015l-10.1-12.319h-4.523zm101.722-18.194l1.825-3.42 5.863 9.91v25.287c0 7.671-2.942 11.415-8.194 11.584-.526-1.118-1.164-2.226-1.907-3.317h1.531c1.57 0 5.244 0 5.244-8.267v-24.381c-.717-1.212-2.281-3.865-4.362-7.396zm-24.428-41.484l-4.907-8.335c-3.855-6.531-7.606-13.454-13.332-13.43h-12.373c-5.187.667-5.988 3.99-5.85 6.899.019.428.03 6.199.036 14.882l-4.001.002v-8.619c0-10.355.191-16.095 9.815-16.491h13.704c7.31.529 11.189 8.987 16.347 17.835l4.293 7.256-3.733.002zm-36.425 43.978c-.002 6.192-.005 12.307-.008 18.023-1.349.213-2.681.464-3.993.749v-11.308l4.001-7.465zM278.673 309.536c-.853-5.341-5.712-9.44-11.577-9.44h-34.546c-5.869 0-10.725 4.099-11.577 9.44h-18.904c1.765-12.791 23.338-26.026 47.754-26.026 25.509 0 46.089 13.163 47.763 26.026h-18.914zm-57.703 3.332c.841 5.352 5.703 9.459 11.581 9.459h34.546c5.873 0 10.738-4.107 11.58-9.459h18.91c-1.646 12.872-22.235 26.05-47.763 26.05-24.43 0-46.017-13.254-47.759-26.05h18.905zm47.921-6.608c.363 1.626.554 3.313.554 5.049 0 2.017-.262 3.981-.749 5.85l-3.269.043c.429-1.383.711-2.832.825-4.324h-5.845c-.086 1.044-.248 2.069-.496 3.056l-3.106-.038c.291-.968.482-1.983.587-3.018h-5.931v2.884h-3.273v-2.884h-5.936c.1 1.035.291 2.05.587 3.018l-3.106.038c-.248-.987-.41-2.012-.496-3.056h-5.85c.119 1.492.396 2.942.825 4.324l-3.264-.043c-.491-1.869-.754-3.833-.754-5.85 0-1.735.191-3.423.558-5.049.072-.329.153-.658.239-.977l3.264-.005c-.11.348-.21.691-.301 1.054-.267 1.039-.444 2.117-.544 3.218h5.845c.086-1.015.243-2.031.477-2.961l3.149.043c-.291.934-.487 1.917-.601 2.918h5.907v-2.77h3.273v2.77h5.902c-.115-1.001-.31-1.983-.601-2.918l3.149-.043c.234.93.386 1.945.477 2.961h5.84c-.091-1.101-.267-2.179-.539-3.218-.091-.362-.191-.706-.305-1.054l3.264.005c.091.319.172.648.243.977zm-142.741-65.219l-6.155 10.121c-3.641 6.112-5.592 10.307 1.579 11.065 4.538.472 5.945-1.344 8.436-5.006l26.625-50.044h31.631l-28.205 52.681c-10.574 19.289-19.473 20.915-44.815 21.068-27.833.172-37.347-13.22-17.955-39.885h28.858zm128.718 33.754l20.828-38.979h-18.456l7.11-13.173h66.706l-7.277 13.492h-15.193l-20.752 38.66h-32.967zm68.348-17.049h24.516c.525 2.603.267 4.11 1.847 5.33 2.281 1.764 5.874.853 7.382-1.054 1.303-1.659.983-4.477-1.317-5.33-3.784-1.397-16.495-3.313-21.09-6.322-3.684-2.408-4.104-6.975-1.579-12.906 5.077-12.786 14.653-17.416 39.8-16.591 20.317.772 28 8.91 21.367 19.585h-24.516c.334-2.694-.563-5.278-2.648-5.888-2.572-.753-5.998-.124-6.327 2.636-.358 3.027 1.441 4.262 6.59 5.263 8.078 1.569 16.6 4.51 18.981 7.9 3.455 4.706 1.336 11.223-2.371 16.858-5.454 8.291-17.321 10.236-38.492 10.274-19.559-.038-27.179-7.39-22.14-19.757zm-158.053 17.125l27.942-52.152h61.157l-7.019 13.168h-31.201l-2.901 6.059h28.854l-7.21 13.43h-30.672l-3.331 6.322h34.513l-7.067 13.173h-63.066z" fill="#fff"/></g></svg>