<svg width="500" height="500" viewBox="0 0 500 500" xmlns="http://www.w3.org/2000/svg"><title>Logos/Clubs/OAK/Primary</title><desc>Created with Sketch.</desc><g fill="none"><path d="M0 0h500v500h-500z"/><path d="M250.005 54.101c-50.126 45.456-115.576 44.094-182.795 35.635-14.497 164.761 41.904 327.373 181.727 356.826 141.162-28.315 196.907-190.62 183.294-355.451-62.567 6.309-127.413 8.871-182.226-37.01" fill="#fff"/><path d="M249.777 70.16c-41.786 34.002-107.687 42.439-170.621 33.236-9.386 150.247 39.593 297.053 169.348 330.928 129.934-33.17 180.279-179.333 171.711-329.623-64.208 7.233-128.84-.315-170.437-34.541" fill="#000"/><path d="M357.556 181.02c34.124 28.161-4.791 61.497-26.427 43.206-7.588-6.217-19.245-15.088-21.77-19.593-3.68-3.113.267-7.089 4.94-2.338 2.416 3.222 6.122 6.554 12.533 11.581l-2.621-5.779s15.324-21.41 21.556-28.792l3.403-.137c-.086-.283-.145-.594-.173-.936-.267-3.196 2.184-7.877 5.378-8.148 3.194-.267 6.004 2.11 6.271 5.307.2 2.398-1.085 4.577-3.089 5.63zm-212.498-2.088l3.391.03c6.459 7.176 22.448 28.109 22.448 28.109l-2.446 5.854c6.253-5.232 9.85-8.673 12.161-11.97 4.533-4.891 8.599-1.042 5.015 2.185-2.376 4.58-13.758 13.809-21.14 20.263-21.059 18.962-60.862-11.281-27.634-40.491-2.037-.99-3.393-3.128-3.268-5.53.171-3.205 2.901-5.67 6.109-5.499 3.199.166 5.662 2.903 5.492 6.103-.017.324-.06.64-.126.946zm154.67 150.203l2.065 1.392c8.139 7.688 39.777 23.455 44.822 25.005-28.33 6.909-39.462-.385-49.548-8.157-.678-3.455-2.626-6.979-2.626-6.979 1.392-2.062 3.768-6.642 5.286-11.261zm-104.348 4.343s4.73 7.509 6.393 8.459c0 0 2.039 1.813 1.278 8.183-11.386 8.525-39.212 11.979-53.325 6.432 0 0 34.045-13.428 43.461-21.909l2.192-1.165zm88.205-2.693l-.022.425c.048-.425.801-.254.683-.819.473.495 1.072.828.936 1.537-.381 2.018-1.44 3.765-2.906 5.074-.516.46-1.44.591-1.873 1.239-.796 1.204-2.026.587-2.661.018-.744-.67-.127-2.18.748-2.736.853-.547 1.558-1.103 2.35-1.703.328-.25.543-.674.796-.915.718-.666 1.287-1.41 1.947-2.119zm-72.207 2.049c.81 2.259 2.709 3.227 3.278 4.133.897 1.445 1.313 2.969 2.188 4.343-1.483.845-2.621 3.24-4.078 2.513-.735-.359-.958-1.931-1.396-3.034-1.116-2.798.442-5.11.009-7.955zm79.554-24.138c-.687 3.244-1.098 6.607-2.214 9.716-1.041 2.863-1.54 4.829-5.115 7.846-.74-6.23-2.503-9.317-2.166-11.655-2.398.941-2.074 4.518-2.332 7.789-.407 5.21 1.006 9.037.678 7.513.158.722-1.816 2.163-2.525 3.288-2.227 3.533-4.695 6.826-7.723 9.681-.455.429-.564 1.292-1.041 1.497-1.667.718-2.105 1.804-3.085 2.942-.796.933-2.919 1.668-4.017 2.268-.691.385-2.787.946-3.356 1.068-1.269.254-2.424.215-4.337.109-1.851-.092-4.376-2.373-6.367-2.855-5.802-1.419-7.155 3.831-16.173 1.887-3.715-.797-4.463-3.288-6.791-5.915-.451-.512-2.669-3.209-3.015-3.581.941 1.007-6.183-5.696-7.548-10.863-1.518-5.779-.74-6.244-.053-11.117.254-1.83-.092-6.423-1.785-6.721-1.58 1.624-.438 2.736-.91 5.079-.451 2.285 1.654 2.377.035 7.483-.459 1.462-1.256 1.103-1.711.123-1.689-3.63-.818-11.498-4.634-14.567-.88-.701-.932-2.828-.193-3.384 1.168-.88 2.324.512 3.838.162.267-.061.105-1.9-.101-2.137-1.252-1.471-4.026-.871-4-1.073.368-2.964.311-5.635-.7-7.089-1.392-1.992-3.431-2.334-4.258-4.282-1.759-4.124-1.155-6.476-1.313-7.553-.214-1.454-.564-3.814-.144-5.346-.424.096-.263-3.419-.241-3.652.263-2.57.718-2.426 1.111-4.856.079-1.489 3.755-2.364 3.79 1.06-.901 4.514.442 8.065.56 12.623.013.547.91 1.073 1.518 1.248 9.925 2.85 17.359 1.756 27.227 1.559 2.643-.053 4.232-3.354 4.796-5.946.936-4.265.941-5.718.976-10.42.494-1.252 1.65-.911 2.556.136 1.693 1.948.381 2.675.796 5.171.328 1.944-2.175 4.799-2.175 4.799l-.56 6.598c.512.031-.381 5.898-.516 5.74-.381 3.192 1.816 2.018 1.483 4.356-.057 1.068-.604 2.548-.573 2.741.319 2.159-4.49 1.694-3.72 1.734-1.068-.057-1.895-.525-1.851-1.379.061-1.217-.271-2.128-.258-3.218-2.345-.127-1.374 1.764-1.505 4.19-.053 1.068.648 1.966 2.446 2.268 1.908.315 2.109.539 2.997-.053.459-.315 1.974-.648 2.21-1.384.884 3.472 1.925 3.949 4.49 3.87 1.098-.031 3.61.403 4.599-2.11.245-.635 1.952-.539 2.197-1.165 4.437.876 1.72 2.688 7.106.954 1.623-.517 2.949-2.855 1.545-4.707-.166-.223-1.037-.206-1.055-.088-.591 4.637-2.407 3.266-4.144 3.166-5.715-.333-2.634-2.701-7.478.035-.573.324-2.275 2.658-4.529.828-3.063-2.728.245-4.685.617-7.662.333-2.701.206-11.2.079-13.674-.302-5.823 1.186-2.281 2.175-4.794-.836.201-.389-7.132-.464-7.509-.503-2.592-3.553-1.589-4.35-2.574 0 0-.354-2.045.114-2.137 3.453-.67 7.824-2.574 10.966-4.124 7.268-3.573 11.355-5.797 14.874-7.977 1.041-.648 1.47-2.027 2.03-2.036 6.621-.079 13.01-1.414 18.9 1.856 4.118 2.281 5.111 4.54 6.188 8.441-.473.074.394 4.164.407 4.514.079 2.566-.057 7.251-.026 8.542.201 8.468.683 11.366-.468 17.071-.009.053-.893 2.093-1.177 2.075-.696 1.033-1.899 2.566-3.321 3.761-.446.377-.254 1.629.061 1.414.884-.6 2.612-.933 3.921-1.506-.039 3.625-.411 7.885-1.265 11.905zm-113.209-93.364l8.664 9.856-.674 4.672c-3.641.241-6.433 4.575-8.091 7.697-1.041-.486-9.137-13.096-9.137-13.096l9.238-9.129zm140.76 1.563c1.243.709 8.787 7.518 10.651 8.678-1.098 4.645-8.476 19.002-10.1 21.485-.193-8.56-1.392-18.236-6.087-18.266l-.884-3.472 6.419-8.424zm-111.695 45.101c-3.282-.223-3.488 1.458-4.547 2.925-.582.801-3.461.889-2.945-.797.175-.582 2.157-7.115.858-4.229 1.995-4.431 1.392-4.689 4.262-7.894.722-.806 3.282-1.235 3.282-1.235 6.074-1.813 36.828-2.001 51.907-.35 1.181.127-5.321 4.046-6.223 4.584-5.518 3.288-6.174 3.739-11.412 5.814-1.4.556-4.227 2.036-5.837 1.401-3.142-1.239-17.67-1.143-23.84-1.169.083 0-5.632.941-5.505.95zm78.294 96.569c.214-.144.451 3.997.499 3.84-.805 2.671-4.035 4.961-5.194 4.343-5.045-2.71.293-5.25 4.695-8.183zm-15.075 13.805c-.779.635-3.597 2.067-3.208 1.856-1.864 1.042-4.03 1.624-6.174 1.274-1.921-.363-1.129-2.01-.713-2.067 5.404-.714 6.441-3.774 9.885-5.123 1.002.245 1.203 1.764 1.063 2.207-.096.328-.328 1.208-.853 1.852z" id="Combined-Shape" fill="#fff"/><path d="M238.513 172.964l-2.774 68.285 25.07-.083-3.807-68.201c27.87.569 37.103 8.209 43.225 23.906l-.853.569c-7.176-9.781-.258 8.249-.258 8.249 1.26 8.617 4.398 13.91 5.387 35.758 2.087 17.207-2.569 63.556-2.569 63.556 2.892 1.856 6.258-25.613 6.258-25.613 1.278-13.936-2.144-62.501-7.395-77.116l1.422-1.708s5.732 14.97 7.675 30.451c3.129 1.134 3.702 3.7 5.977 14.23-.473 8.949-2.275-3.704-2.275-3.704s1.072 4.12.569 2.272c-3.746-10.022-3.129-3.126-3.129-3.126 2.446 18.512 1.707 39.269 1.707 39.269-2.004 13.061 1.702-.569 1.702-.569 1.75-8.884 1.991-11.953 1.991-11.953-.783-17.566 1.995.854 1.995.854-2.402 31.274-22.238 54.011-22.462 54.344.538 6.011-3.295 13.932-5.649 18.087 6.214 11.861 2.42 18.928 2.42 18.928-.766 6.173-7.343 9.286-10.887 11.664-8.966 8.069-23.626 10.723-35.086 9.265-1.413 2.491-5.334 3.993-5.334 3.993-2.175.74-3.212-4.015-3.212-4.015 3.903-1.077 6.118-2.08 6.118-2.08-7.671-8.525 11.815-13.485 17.105-16.625 5.242-2.29 8.384-5.114 9.82-8.03 3.855-8.345 11.832-13.91 14.034-15.075 2.691-2.426 3.811-7.496 3.811-7.496 7.64-23.529 9.828-52.912 6.542-67.61-1.527-11.624-4.844-13.796-11.596-15.429-16.502-3.008-60.488-2.027-78.915-.854-17.49 16.217-10.1 60.023-.783 79.012 2.398 3.117 2.805 3.568 2.647 6.55 1.864 21.467 5.115 24.633 5.115 24.633 6.77 9.33 5.067 1.121 5.067 1.121 6.052 6.73 17.775 11.191 17.775 11.191-.871.381-8.831 5.517-8.831 5.517-16.887-11.997-20.519-24.155-20.764-35.71-1.282-11.913-3.208-4.011-3.208-4.011-4.958-3.257-3.387-8.73-3.387-8.73.494-9.374-2.219-6.524-2.219-6.524l-2.984-.166c-4.638-9.216-14.979-56.345-14.979-56.345-2.897-26.226 6.748-30.854 11.517-32.308-.578-5.153 8.406-38.026 8.406-38.026 5.304-16.327 22.934-20.596 40-20.596zm49.632 180.055c.376-2.592-1.886-5.013-3.479-2.969-.871 1.112-.945 3.166-1.991 4.221-2.831 2.859-4.608 3.398-6.258 5.162-1.79 1.896-2.341 3.135-.648 5.674.14.215.411 2.807 2.275 4.203 2.275 1.708 5.527-.088 8.962-4.387.766-.959.626-2.321.801-3.406.446-2.78-.074-5.661.337-8.498zm-14.633 16.152l-.092-.144c.503-1.992-.14-2.666-1.19-3.498-1.041-.819-3.225-.99-4.354.088-1.974 1.878-3.142 2.15-4.835 3.652-1.217 1.077-2.315.648-3.579 1.134-1.12.429-2.652 1.283-3.098 2.609-.451 1.362 1.746 3.328 2.442 3.722 4.148 2.36 14.484-.477 14.707-7.561z" id="Combined-Shape" fill="#A5ACAF"/><path d="M279.398 268.127c.153.004-2.258-1.83-4.332-3.008-.95-.539-4.914 2.154-5.881 2.255-4.083.429-6.428.635-10.734.744-1.059.026-2.582.044-3.216-.941-.394-.604-.328-1.778.127-2.36 1.3-1.668 3.851 1.178 5.422-3.052-.009.018 4.866-.201 6.358-.271 5.098-.232 12.611-.193 11.937.416.617-.556 1.602 2.207 2.626 2.916 1.917 1.327 1.37-.429 2.232 2.255l-.057 1.064c-.018.285-.363 1.55-.516 1.686-.153.136-2.035-.539-2.319-.547.144 0-1.794-1.165-1.645-1.156zm-24.531 3.411c-.048.849-.114 2.132-.249 2.483-.092.232-1.142-.096-1.063.385-.919-5.123 4.288-4.602 1.313-2.868zm-2.962 11.598c.976-2.303 1.798-5.679 1.798 6.502 0 3.227-2.464 2.561-2.122-.324.385-3.187 1.002-2.723.324-6.178zm33.905 17.443c-.031.709.066 1.471-.179 2.106-.123.324-.464.762-.827.766-.337.009-.84-.219-.954-.455-.214-.46.258-1.064.678-1.344.556-.363.998-.403 1.282-1.073zm-30.636-4.444c-.411-.018-.731-.377-.713-.788.022-.42.376-.744.796-.718.416.026.735.377.713.797-.022.412-.381.731-.796.709zm26.921-20.272c-1.098.552-2.061.429-3.111 1.02 1.641-.915-8.87-1.497-4.901-1.13-2.827-.263-5.133-.871-8.074-.854l-.547.289c-1.462.346-2.227-.784-3.321-1.493-.761-.49-1.444.022-2.149-.074.149-.276-.254-.46-.144-.63.179-.289.678-.442.866-.468 1.265-.162 2.739-.053 3.947-.468 4.258-1.48 7.579.547 11.942.407 1.37-.039 3.26-.315 4.547.591.263.188.258.635.451.779.569.429 1.597.166 1.93.521.683.727-.674 1.13-1.435 1.511zm-4.179 6.178c-1.501.101-2.949-.333-4.477-.276-.433.018-.853-.271-1.273-.368-1.567-.368-3.256-.661-4.595.236-1.146.775-2.573.849-3.453.363-.573-.32.013-1.344.696-1.581.932-.333 2.061.109 3.138-.035.818-.105 1.575-.718 2.359-.381 2.289.981 4.507 1.62 6.988 1.62.236 0 .341.359.617.42zm-15.801-4.037l-.026.429c-1.501-.898-3.041.889-4.45.271-.7-.306-.403-1.427-.359-2.237.551.289.893.88 1.453 1.099.993.412 1.947-.521 2.989-.219-.193.407.446.315.394.657zm-124.928-87.882c3.654-4.51 6.936-1.983 4.026.639-2.201 1.983 1.934 6.449 4.625 5.372 2.14-.854 4.695 2.566 4.074 3.849-1.658 3.393 1.518 6.94 3.969 5.762 1.352-.644 4.183 1.598 3.225 3.59-1.453 3.021 1.536 6.432 4.879 4.746 3.575-1.813 1.549 3.074 1.549 3.074-18.107 15.289-44.555-13.879-26.347-27.032zm3.833-16.038c3.527 1.896.481 7.075-1.838 6.528-2.503-.591-.586-1.103-.586-1.103 2.332.342 4.45-3.398 1.527-4.619-1.111-.464.897-.806.897-.806zm217.054 13.643c18.606 12.57-7.614 44.935-26.185 30.219 0 0-2.433-4.111 1.448-3.117 3.002.766 6.236-1.935 4.726-4.895-.901-1.769 1.798-4.405 3.116-3.687 2.385 1.3 5.304-3.472 3.785-5.889-.91-1.445 1.527-5.508 3.947-3.971 1.834 1.165 5.501-4.435 4.538-7.386-.858-2.636 1.588-4.431 4.625-1.274zm-4.958-15.403s2.022.28.923.784c-3.956 1.799-1.588 5.145 1.667 4.571 0 0 1.934.442-.547 1.112-3.326.898-6.59-3.84-2.044-6.467zm-123.672 135.917c2.748-3.49 4.45-1.778 4.564-1.471-.368-1.007-.748 2.097-2.577 4.352.473-.587-5.811 4.501-5.146 4.431 6.87-.709 12.983 1.309 18.497 1.296 3.387-.004 6.966-1.611 10.205-.525 2.24.762 4.332.884 6.428.639.901-.101 1.562-.683 2.626-.495-.28.547 3.321.079 2.914.197 1.654-.477-.683 1.419-4.516 1.856-1.965.223-3.151-1.257-9.351-.915-5.172.28-9.141 1.222-13.438.342-2.442-.495-4.805-1.292-7.22-1.257-4.004.053-7.802 1.703-9.885 1.016.026-.574.009-1.349.153-1.546.84-1.182 2.547-1.839 3.488-2.754 3.278-3.179 1.904-3.446 3.26-5.166zm7.4 17.693c4.722-.394 13.57 2.001 17.705.508-.026.425 3.474-1.095 3.383.604-.123 2.342-5.833 1.883-7.338 1.541-4.118-.933-5.584.368-14.108.109-.363-.009-4.302.63-5.422-2.421-.302-.806 2.184-.954 5.781-.342zm27.98-14.755c.136-.337.775-.267.67-.823.985.35 1.072 1.589.608 2.04-.595.582-1.72-.118-1.278-1.217zm-1.851-2.259c-.433-.276-.884-.687-1.265-.779-1.466-.35-2.647-1.165-4.157-1.401-.368-.061-.538-.714.079-1.011.941-.46 1.956.018 2.919.333 1.26.42 1.453 1.944 2.481 2.57.306.184 1.12.293.897.722-.228.438-1.076.25-1.168-.442l.214.009z" id="Combined-Shape" fill="#000"/><path d="M361.113 140.389c3.326 2.268 6.03 3.573 8.638 3.573 1.785 0 2.752-.679 2.752-1.786 0-1.594-1.737-1.786-4.586-2.417-5.894-1.252-8.883-4.492-8.883-9.519 0-7.242 5.649-12.557 14.436-12.557 3.956 0 7.675 1.016 11.636 3.144l-3.772 9.028c-2.411-1.786-4.923-2.706-7.093-2.706-1.737 0-2.704.63-2.704 1.646 0 1.69 2.319 1.931 6.424 2.85 4.586 1.011 7.675 4.444 7.675 9.273 0 7.391-5.89 12.995-14.917 12.995-4.538 0-9.124-1.305-13.57-3.866l3.965-9.659zm-245.668-21.931h15.591c9.224 0 13.955 4.251 13.955 11.642 0 4.926-2.656 8.354-6.665 8.84l9.224 14.054h-13.907l-6.034-11.401v11.401h-12.165v-34.536zm12.165 15.648h1.934c2.363 0 3.667-1.204 3.667-3.328 0-2.128-1.256-3.433-3.667-3.433h-1.934v6.76zm41.304-15.933h13.806l12.069 34.536h-13.325l-1.111-4.348h-9.364l-1.063 4.348h-13.325l12.314-34.536zm9.316 21.979l-1.063-3.914c-.481-1.835-1.208-4.251-1.4-7.583h-.241c-.197 3.332-.919 5.749-1.4 7.583l-1.063 3.914h5.168zm27.656 12.842v-34.536h12.603v34.536h-12.603zm27.144-34.536h10.043c5.982 0 10.472.578 13.662 2.172 5.934 2.999 9.268 8.551 9.268 15.118 0 5.701-2.56 10.679-7.146 13.818-4.49 3.091-9.802 3.428-16.703 3.428h-9.124v-34.536zm18.703 17.29c0-4.54-2.512-6.664-7.531-6.664h-.529v13.38c5.501-.096 8.06-2.027 8.06-6.716zm26.024-17.29h23.074v9.374h-10.909v3.328h9.898v8.84h-9.898v3.625h11.202v9.37h-23.367v-34.536zm37.331 0h15.591c9.224 0 13.955 4.251 13.955 11.642 0 4.926-2.656 8.354-6.665 8.84l9.224 14.054h-13.902l-6.039-11.401v11.401h-12.165v-34.536zm12.165 15.648h1.934c2.367 0 3.667-1.204 3.667-3.328 0-2.128-1.256-3.433-3.667-3.433h-1.934v6.76z" fill="#fff"/></g></svg>