<svg width="500" height="500" viewBox="0 0 500 500" xmlns="http://www.w3.org/2000/svg"><title>Logos/Clubs/PHI/Primary</title><desc>Created with Sketch.</desc><g fill="none"><path d="M0 0h500v500h-500z"/><path d="M289.196 108.898l-23.361 24.47c38.267-15.89 121.712-43.172 121.712-43.172l-26.736 26.138c72.977-21.594 128.433-31.825 128.433-31.825s-16.07 37.375-40.077 74.803c4.644-.501 34.957-4.031 34.957-4.031s-27.298 45.191-58.819 77.764l17.642 4.387s-27.488 39.589-63.766 71.903c-52.17 46.464-79.015 39.326-79.015 39.326-38.728 28.032-69.768 13.826-69.768 13.826s13.41-33.825-.445-37.416c-12.489-3.244-31.489 6.515-33.861 10.429-2.465 8.535-12.849 30.21-23.575 43.329-20.568 25.148-43.375 35.428-43.375 35.428s-17.965-15.321-18.083-41.402c0 0-12.339 13.063-32.427 17.332-14.061 2.989-33.251.561-52.91-15.842-13.2-11.011-15.722-48.015-15.722-48.015s12.404-23.682 36.327-44.436c-5.295-4.54-8.54-10.252-9.559-13.778 63.588-27.738 63.632-54.215 114.186-86.404 49.806-31.712 81.105-46.294 138.242-72.816" fill="#fff"/><path d="M258.221 131.36l-19.978 20.927c39.455-17.454 122.775-45.801 122.775-45.801l-24.181 23.642c85.429-26.433 139.612-35.388 139.612-35.388s-17.707 39.439-41.27 72.941c11.41-1.095 35.207-3.857 35.207-3.857s-23.798 39.847-58.968 73.599c3.908.574 19.869 4.213 19.869 4.213s-21.211 31.454-58.075 63.715c-47.057 41.176-67.933 36.301-67.933 36.301s.453-1.608.408-4.108c-.032-1.381-.327-2.634-.34-2.735-36.226 34.071-66.405 22.575-66.405 22.575s13.398-32.419-7.154-38.963c-15.92-5.065-40.308 7.957-42.252 14.933-2.114 7.586-12.226 28.638-22.254 40.974-17.395 21.404-36.65 31.171-36.65 31.171s-17.505-13.459-11.434-52.85c1.326-8.583-.376-11.936-1.314-13.378-2.874-4.395-25.269.4-30.733 12.885-3.856 8.818 18.398 16.27 18.398 16.27s-10.27 11.322-28.219 14.99c-11.288 2.306-28.769 1.571-47.122-14.311-10.86-9.395-13.111-41.188-13.111-41.188s13.414-24.559 39.544-45.769c-5.157-3.373-9.074-9.088-10.064-11.334 52.651-22.664 59.87-54.712 119.307-90.524 27.702-16.69 56.879-33.114 92.337-48.932" fill="#004C54"/><path d="M398.124 241.939c2.11.436 10.759 1.999 15.577 3.995-18.087 29.317-72.144 86.884-102.356 89.251-.34-5.049-2.3-9.355-4.668-12.324-11.337 20.709-45.954 33.421-60.326 30.096 17.452-63.893-56.588-39.548-62.266-22.01-14.74 45.543-52.158 66.971-52.158 66.971s-11.959-13.616-6.83-44.282c3.783-22.608-10.529-21.905-10.529-21.905-5.707-.263-27.362 2.347-34.193 17.45-5.509 12.162 13.774 20.701 13.774 20.701s-27.843 22.216-60.056-5.32c-7.902-6.754-10.84-35.271-10.84-35.271 15.492-25.665 35.91-41.988 44.37-48.055-8.969-3.437-11.761-8.091-11.761-8.091 43.25-19.821 60.213-52.765 97.033-77.247 40.575-26.978 71.635-40.227 71.635-40.227l-11.721 14.743s9.813-4.193 14.093-6.289c38.639-18.952 104.106-39.605 104.106-39.605l-20.415 19.764s33.845-11.585 76.489-20.689c22.71-4.851 70.16-14.832 70.16-14.832s-11.147 32.75-34.827 65.997c14.304-1.006 29.723-1.846 29.723-1.846s-16.579 33.328-54.013 69.023zm-248.265 21.574c1.968 3.28.012 8.054-4.373 10.672-4.385 2.613-9.534 2.076-11.507-1.208-.303-.501-.485-1.046-.606-1.608-.833.59-1.693 1.135-2.583 1.632.186.638.449 1.264.796 1.846 2.789 4.633 9.898 5.501 15.888 1.927 5.99-3.567 8.585-10.215 5.8-14.856-1.411-2.343-3.933-3.708-6.851-4.035-.671.836-1.423 1.789-2.243 2.799 2.425.028 4.567.977 5.679 2.832z" id="Combined-Shape" fill="#000"/><path d="M271.546 274.681c-39.536-4.803-69.016 15.991-79.165 28.961 5.719-11.54 14.158-18.98 14.158-18.98-2.033 1.002-4.042 2.153-6.03 3.425-8.144 4.686-41.496 21.614-70.459 3.631-1.799-1.115-3.31-2.157-4.62-3.134 9.631 5.041 25.523 5.469 32.119-1.018-23.094 5.954-27.197-4.585-27.69-11.14-1.491.283-3.888.101-5.679-.315 0 0 3.779-1.604 5.654-2.573.323-.166.635-.355.954-.537.186.638.449 1.264.796 1.846 2.789 4.633 9.898 5.501 15.888 1.927 5.99-3.567 8.585-10.215 5.8-14.856-1.411-2.343-3.933-3.708-6.851-4.035 2.077-2.411 6.075-7.743 12.246-12.178-4.543 5.445-5.994 9.129-6.168 9.593 2.785.436 5.226 1.628 6.402 3.837 2.316 4.33.74 7.731-.101 9.472l-.012-.004c-1.544 3.264-4.414 6.483-8.277 8.919-5.23 3.3-10.961 4.334-15.177 3.147 0 0 .756 1.377 1.98 2.189 2.037 1.361 8.055 3.345 16.757-.586 3.225-1.458 5.646-3.114 7.493-4.795 6.544-4.908 7.255-11.185 9.591-16.694 5.509-13.01 16.886-24.276 30.143-28.953-12.602 1.535-28.013 12.889-27.564 7.82.21-2.359 6.968-24.837 48.363-42.037.756-.275 1.504-.549 2.28-.82 0 0-20.099 3.11-50.388 21.158-11.911 7.101-22.613 16.916-28.029 24.373.238-4.9 2.886-9.65 4.494-13.394-11.272 7.255-8.463 17.353-16.955 27.196-3.718 3.963-7.635 7.755-11.79 10.454-24.004 15.624-47.7 5.901-47.7 5.901 32.168-17.377 31.206-21.291 52.401-43.753 23.761-25.173 38.36-38.139 78.348-57.737-2.615 3.369-13.422 12.845-15.755 15.539 0 0 8.023-4.29 23.216-11.496 53.884-25.568 93.666-35.089 93.666-35.089s-9.854 7.049-16.664 11.564c-9.239 6.128-17.42 12.049-17.42 12.049s.36-.162 1.027-.444c77.568-24.296 141.641-16.698 141.641-16.698-41.933 4.039-75.842 12.005-93.836 20.221 0 0 24.844-4.265 37.475-4.265 12.355 0 22.46 1.2 22.46 1.2-79.035 12.324-121.546 35.154-131.909 41.301-4.312 1.834-6.572 2.977-6.572 2.977s12.889-4.035 29.226-8.083c28.749-4.407 70.819-2.036 111.409 10.005 0 0-28.142-1.49-40.441-1.216-36.727.816-74.577 15.575-74.577 15.575 23.907-6.023 50.113-1.587 50.113-1.587-10.189.586-35.244 7.275-47.817 12.449-18.115 7.456-36.424 18.076-49.765 27.883-5.396 3.199-8.281 5.308-8.281 5.308s6.847-3.676 18.37-8.119c19.643-6.604 52.91-12.497 89.863-.093-56.952-11.338-101.944 15.321-101.944 15.321 32.616-10.652 53.302-.61 53.302-.61zm-135.061-2.46c-.962-.711-1.374-1.551-1.544-2.036 1.14-.905 2.219-1.87 3.245-2.864-.113 1.854.311 4.209 2.595 5.934 0 0-2.603.214-4.296-1.034z" id="Combined-Shape" fill="#fff"/><path d="M165.65 246.156c-2.95-11.379 16.995-33.853 54.931-47.998.081-.032 1.095-.396 1.52-.545-41.395 17.199-48.153 39.678-48.363 42.037-.449 5.069 14.962-6.285 27.564-7.82-13.257 4.677-24.634 15.943-30.143 28.953-2.336 5.51-3.047 11.787-9.591 16.694 5.792-5.263 5.731-10.708 5.731-10.708s-3.043 1.834-5.642 2.117c-.857.093-1.875-.053-2.853-.279 1.322-2.585 1.297-4.423 1.322-4.928 4.021-9.169 14.061-17.664 14.061-17.664s-7.425 4.415-8.536.141zm217.075-36.386c-40.591-12.041-82.661-14.412-111.409-10.005 9.765-2.411 20.758-4.835 30.976-6.402 47.373-7.283 112.8-.263 112.8-.263s-3.027 9.617-17.25 25.205c-13.41 14.707-18.446 18.581-18.446 18.581-77.071-16.411-137.802 13.334-159.158 25.989 13.342-9.807 31.651-20.427 49.765-27.883 12.574-5.174 37.628-11.863 47.817-12.449 0 0-26.206-4.435-50.113 1.587 0 0 37.85-14.759 74.577-15.575 12.299-.275 40.441 1.216 40.441 1.216zm-150.994 77.639c-22.577 5.594-32.366 12.586-41.52 21.206.655-1.729 1.39-3.385 2.17-4.972 10.149-12.97 39.629-33.764 79.165-28.961 0 0-20.685-10.042-53.302.61 0 0 44.992-26.659 101.944-15.321-36.953-12.405-70.22-6.511-89.863.093 29.573-11.415 89.948-27.911 144.656-.505-3.254 6.976-11.487 17.341-24.622 30.262-12.509 12.3-20.819 15.842-22.985 17.017l-.525.275c-4.466-16.888-41.634-32.964-95.117-19.703zm182.741-140.994s-64.073-7.598-141.641 16.698c5.428-2.298 32.641-13.273 74.747-21.085 40.49-7.509 76.162-10.385 76.162-10.385s-8.043 24.963-28.526 44.739c-14.368 1.43-50.048 2.941-80.757 9.02-32.556 6.447-55.294 15.022-65.795 19.469 10.363-6.148 52.873-28.978 131.909-41.301 0 0-10.104-1.2-22.46-1.2-12.63 0-37.475 4.265-37.475 4.265 17.994-8.216 51.903-16.181 93.836-20.221zm-212.844 162.418s20.277-19.768 65.33-11.815c17.278 3.05 26.833 12.162 26.833 12.162-7.703 13.39-22.937 19.938-22.937 19.938s.97-21.307-32.871-26.744c-22.876-3.676-36.355 6.459-36.355 6.459zm-92.474-24.587s29.298 36.992 75.984 18.605c-2.146 3.789-3.092 7.973-4.49 12.909-10.783 50.127-47.118 71.846-47.118 71.846-6.616-15.01-2.914-29.515-1.786-34.948 2.562-12.376-3.383-21.59-3.383-21.59 23.903 1.135.469 30.892 9.348 43.85 16.062-9.347 25.75-42.226 28.142-53.969.166-.44-2.267-2.169-4.236-2.892-23.078-7.416-61.773-1.066-75.762 7.392-43.812 26.498-2.825 44.674-2.825 44.674s-26.978 9.012-42.422-15.365c-3.787-6.463-4.741-18.249-5.569-27.459 16.062-27.172 41.31-37.973 48.323-42.804 6.083 1.648 17.104 2.407 25.794-.25zm-21.183 12.833c-3.435 5.146 3.795 4.12 7.142 3.126 2.712-.808 14.926-4.354 14.926-4.354-6.802-.65-9.401-2.08-11.903-4.128-5.816 3.013-10.165 5.356-10.165 5.356z" fill="#A5ACAF"/></g></svg>