<svg width="500" height="500" viewBox="0 0 500 500" xmlns="http://www.w3.org/2000/svg"><title>Logos/Clubs/PIT/Primary</title><desc>Created with Sketch.</desc><g fill="none"><path d="M0 0h500v500h-500z"/><path d="M70 250.174c0 99.158 80.668 179.826 179.826 179.826 99.154 0 179.826-80.668 179.826-179.826 0-99.154-80.672-179.822-179.826-179.822-99.158 0-179.826 80.668-179.826 179.822" fill="#000"/><path d="M249.826 426.056c97.131 0 175.878-78.747 175.878-175.882 0-97.131-78.747-175.878-175.878-175.878-97.135 0-175.882 78.747-175.882 175.878 0 97.135 78.747 175.882 175.882 175.882" fill="#A5ACAF"/><path d="M249.826 397.325c81.028 0 146.718-65.69 146.718-146.718 0-81.028-65.69-146.722-146.718-146.722-81.032 0-146.722 65.694-146.722 146.722s65.69 146.718 146.722 146.718" fill="#fff"/><path d="M250.587 250.805c1.695-60.096 58.462-74.204 72.724-72.91-35.159-1.909-69.856-16.766-72.538-72.364-4.235 51.702-24.982 66.402-72.793 72.538 34.151 1.731 68.72 15.245 72.607 72.736" fill="#FFB612"/><path d="M323.513 325.187c1.695-60.096 57.462-74.924 71.729-73.63-35.276-1.302-69.253-18.069-71.931-73.662-4.235 51.707-24.913 66.774-72.724 72.91 34.151 1.731 69.035 16.892 72.926 74.382" fill="#C60C30"/><path d="M251.468 396.714c1.691-60.104 57.778-72.821 72.044-71.527-35.159-1.913-70.244-18.781-72.926-74.382-4.235 51.707-24.367 67.239-72.174 73.371 34.147 1.739 69.164 15.051 73.056 72.538" fill="#00539B"/><path d="M209.708 237.958l5.728-.061.024 2.763c.862-1.517 1.379-2.423 3.329-2.86h1.424v6.702c-4.931-.348-4.603 1.379-4.668 2.706v12.754h-5.837v-22.004zm25.807 7.176l-5.113-.024c0-.53.012-.995-.085-1.4-.142-.566-.898-1.104-1.667-1.112-.906 0-1.606.291-1.909 1.169-.364 1.06-.194 2.621 2.564 2.933l1.404.348c1.565.526 3.078.963 4.255 3.208.198.384.231.51.546 1.61.667 2.281.227 4.021-.518 5.38-.453.813-1.565 1.824-1.962 2.071-2.164 1.335-5.084 1.476-7.738.671-1.302-.396-2.722-1.391-3.426-2.759-.728-1.412-.744-2.569-.837-4.478l4.943-.032c-.101.773.376 1.667 1.141 1.958.773.303 2.702.316 3.042-.55.239-.611.392-.942-.138-1.739-.967-1.46-3.034-1.699-4.85-2.156-3.248-.821-4.037-3.968-3.895-6.355.069-1.129.271-2.431.983-3.309 1.501-1.857 2.156-1.764 3.054-2.196 2.989-1.452 6.707-.421 8.689 1.59 1.112 1.12 1.476 3.183 1.517 5.173zm-94.813-7.046h-4.053l-2.204.016c-.053-.967-.198-2.221-.837-2.807-.947-.862-3.09-.384-3.657.813-1.027 2.152.287 4.174 3.596 5.23l.91.453c3.127 1.525 3.992 2.273 5.161 3.924.352.498 1.04 1.796 1.319 3.382.595 3.39-.259 5.493-1.023 7.35 0 0-.291.878-1.096 1.626-3.284 3.066-7.835 3.2-11.209 1.598-1.553-.744-2.751-1.464-3.604-3.382-.841-1.881-1.031-3.588-.789-6.363l6.298-.036c-.117.882.142 3.111.732 3.729.587.615 2.973 1.213 3.891-.413.324-.57.404-3.05-.599-4.004-1.889-1.816-3.519-1.998-5.744-3.39-3.175-1.982-4.862-5.538-4.66-8.911.097-1.598.534-2.71 1.311-4.11.777-1.383 1.877-2.645 3.467-3.341 4.231-1.857 9.4-.797 11.678 3.224.599 1.052 1.197 2.621 1.112 5.412zm3.216-.113v-2.031l5.898-3.236.024 5.339 2.245-.049.024 5.206-2.269-.036v8.664c0 1.185-.214 1.658 2.164 1.622l-.004 6.593c-2.807-.069-8.122.886-8.147-5.315l-.044-11.678-2.2.073-.024-5.08 2.334-.073zm41.671-8.83l5.942.016v30.992h-5.942v-31.009zm12.56 24.593c.008 1.974 4.32 2.378 4.425-.109v-.627l4.854-.024.008 2.593c.049 1.723-.667 3.596-3.58 4.599-3.09.963-5.02.384-6.828 0-2.374-.87-3.527-2.759-3.636-5.42v-10.735c-.109-2.014 1.011-3.77 2.957-5.048 3.317-1.448 5.129-1.06 7.621-.198 2.374 1.294 3.446 2.896 3.471 5.133v6.812h-9.311l.02 3.026zm.21-7.625c-.736-4.328 5.299-3.831 4.393.016l-4.393-.016zm-23.853 7.625c.012 1.974 4.324 2.378 4.433-.109v-.627l4.85-.024.012 2.593c.04 1.723-.671 3.596-3.584 4.599-3.09.963-5.02.384-6.828 0-2.374-.87-3.527-2.759-3.636-5.42v-10.735c-.109-2.014 1.015-3.77 2.957-5.048 3.317-1.448 5.133-1.06 7.617-.198 2.378 1.294 3.446 2.896 3.475 5.133v6.812h-9.287l-.008 3.026zm.214-7.625c-.736-4.328 5.299-3.831 4.393.016l-4.393-.016zm-16.313 7.625c.012 1.974 4.324 2.378 4.433-.109v-.627l4.85-.024.012 2.593c.044 1.723-.671 3.596-3.584 4.599-3.09.963-5.024.384-6.828 0-2.374-.87-3.527-2.759-3.636-5.42v-10.735c-.109-2.014 1.015-3.77 2.957-5.048 3.313-1.448 5.133-1.06 7.617-.198 2.378 1.294 3.446 2.896 3.475 5.133v6.812h-9.287l-.008 3.026zm.214-7.625c-.736-4.328 5.299-3.831 4.393.016l-4.393-.016z" fill="#000"/></g></svg>