<svg width="500" height="500" viewBox="0 0 500 500" xmlns="http://www.w3.org/2000/svg"><title>Logos/Clubs/TB/Primary</title><desc>Created with Sketch.</desc><g fill="none"><path d="M0 0h500v500h-500z"/><path d="M366.436 339.102c-9.75 14.761-19.023 28.37-26.57 39.288 8.733 7.225 8.211 16.328 8.211 18.055-.168 9.679-5.317 16.904-10.033 21.127-5.866 5.003-13.882 7.429-22.341 7.491-.248 0-6.3-.186-8.379-.664-.894 1.31-2.619 2.904-5.424 4.047-.309.885-.734 1.771-1.292 2.612-2.309 3.471-6.14 5.401-10.042 5.401 0 0-3.955-.115-6.689-2-3.504-2.312-5.433-6.155-5.433-10.069v-.106c.009-1.868.46-3.763 1.363-5.481-.407-.965-1.831-6.73-1.831-6.73l3.725-3.285c.301-.177 1.221-1.567 2.256-5.118 1.097-3.462 2.407-8.607 5.149-14.601 3.495-7.615 8.343-15.496 11.883-20.95-.345-1.744-2.177-2.55-3.495-2.869-1.478-.398-3.3-1.257-4.75-2.949-1.523-1.771-2.69-4.268-2.036-7.491.646-3.179 2.637-5.472 4.964-6.544v-.009c2.637-1.372 5.893-.717 5.893-.717 7.759.717 13.493 7.925 13.493 7.925 7.724-10.785 25.694-37.535 26.074-38.119-23.553 4.507-47.884 5.118-68.092 1.762-36.745-6.101-65.013-25.679-83.275-34.604-18.262-8.917-53.051-18.055-88.937-8.917-35.878 9.138-59.572 42.219-59.572 42.219 10.715-75.548 57.475-88.281 61.961-89.556 6.813-6.384 15.749-25.864-5.415-39.005-7.229-4.489-13.298-10.174-13.298-10.174 4.433.522 14.829-.85 20.598-3.135 6.928-2.736 13.298-3.648 13.298-3.648-5.468-5.215-13.82-7.828-13.82-7.828 8.343-.522 21.385-3.391 29.463-7.048 8.078-3.648 12.511-10.174 11.201-13.043-1.301-2.878-8.6-1.302-8.6-1.302 2.61-3.914 8.865-5.481 8.865-5.481-17.987-1.045-31.091 8.757-31.091 8.757 2-4.295 8.573-12.016 8.573-12.016-2.495.823-9.405 2.984-9.839 3.117 28.162-21.765 59.598-40.9 103.642-41.183 44.035-.292 86.938 19.463 115.525 28.618 28.605 9.156 43.779 13.778 74.666 9.209 14.785-2.196 27.73-8.261 37.214-13.946 0 0 6.636-16.886 7.141-41.13 0 0 7.953 14.274 7.989 36.499.08 76.274-36.851 131.979-48.654 152.257-11.281 19.949-26.11 43.839-44.239 71.332zm81.213-280.1s1.001 18.338-2.46 35.126c-3.344 16.222-5.185 22.402-5.185 22.402-7.078 4.153-18.536 9.262-35.285 12.051-31.259 5.215-59.625-3.188-90.592-15.354-30.976-12.166-72.419-25.271-110.871-20.853-37.284 4.286-63.96 19.401-78.143 29.256-14.183 9.846-16.793 12.45-28.95 15.93 0 0 9.556 3.763 14.475 3.763 0 0-2.318 9.572-1.451 12.751 0 0 20.261-9.271 22.579-4.923 2.318 4.348-7.237 7.252-13.891 8.979-6.653 1.744-24.03 1.443-24.03 1.443s8.149 6.313 11.024 10.696c0 0-15.36 6.694-32.445 4.374 0 0-.566 6.331 13.475 16.7-2.991 1.071-6.777 2.807-9.122 5.313 0 0 14.714-3.037 23.96 7.27 2.433 3.055 3.229 5.791 2.955 9.244-.504 6.26-2.902 8.651-8.795 12.547-3.371 1.372-6.954 3.09-10.414 5.207-16.271 10.006-28.171 25.236-36.523 42.635-3.619 7.535-6.512 16.293-8.556 24.235-2.044 7.987-2.796 15.08-3.274 19.507-.478 4.418-1.133 18.347-1.133 18.347s7.299-10.236 10.723-15.141c3.406-4.888 24.995-32.054 56.44-39.926 10.06-2.559 20.076-3.63 29.649-3.63 23.013-.018 43.566 6.234 55.732 12.193 17.66 8.554 46.672 28.742 84.708 35.056 8.955 1.479 18.607 2.214 28.614 2.214 9.6 0 19.536-.7 29.463-2.054-5.609 8.377-10.989 16.204-16.103 23.456-5.185-4.941-12.219-5.454-12.219-5.454-8.529-.806-12.802 4.392-12.802 4.392-1.726 1.868-3.018 4.295-3.522 7.155-.602 2.648.115 5.73.611 7.296 1.627 5.171 6.042 7.526 7.759 8.279-12.466 16.62-16.085 35.756-16.085 35.764l-5.689 5.021 2.053 8.323c-3.167 10.209 1.805 17.869 8.255 21.039 6.547 3.223 12.661 1.355 12.661 1.355 3.849-1.08 7.335-3.506 9.706-7.066.364-.54.681-1.089.964-1.638 1.327-.717 2.469-1.523 3.442-2.391 1.796.204 6.397.345 6.397.345 9.432-.08 18.651-2.754 25.685-8.731 5.539-4.959 11.635-13.415 11.847-24.97 0-2.169.398-10.918-6.822-18.542 45.558-66.941 75.135-110.037 94.016-153.885 50.025-116.226 7.352-164.688 7.167-165.104z" fill="#B1BABF"/><path d="M297.486 399.154l-.027.062-.009.027.027-.053.009-.035zm90.99-104.786c-20.049 9.351-66.313 24.855-112.384 16.248-16.032-2.993-37.134-8.005-65.04-24.935-18.306-11.095-38.072-21.703-84.151-21.499-38.169.186-62.686 17.497-70.49 23.934 20.713-67.632 81.939-57.741 81.939-57.741-11.175-5.366-24.588-3.312-24.588-3.312 19.182-30.203-11.723-44.344-11.723-44.344 2.601 0 14.333-3.391 20.323-5.481 5.999-2.081 17.005-3.524 17.005-3.524-3.84-3.533-15.705-6.384-15.705-6.384 11.21 0 21.358-5.437 28.419-12.795 2.46-2.559 9.193-15.372 1.557-20.339-7.025-4.569-20.96.505-20.969.514.018-.018 41.717-44.982 127.77-25.767 40.823 9.12 86.841 33.046 129.327 33.302 14.28.089 45.787-4.551 64.588-23.491-.991 35.985-7.689 86.386-65.88 175.615zm-54.166 79.178l-.177-.133c-1.088-.992-2.494-2.187-4.052-3.489 2.539-3.622 31.631-46.912 40.16-60.336 2.983-1.054 5.884-2.205 8.75-3.409-5.768 9.129-37.24 56.59-44.681 67.366zm-1.522 37.898c-3.946 3.444-10.653 5.64-17.66 5.508-6.247-.124-10.635-1.133-14.608-3.294l-.035.133c-.311.266-.939 1.709-5.53 2.391-3.08.505-4.866-.115-5.053-.177 5.415 5.481 10.316 2.028 10.316 2.028.231.956.566 1.638.566 1.638s-1.627 2.392-6.583 1.567c-.602-.097-1.115-.266-1.619-.452l.283.151c1.902 1.249 2.415 3.808 1.169 5.702-1.266 1.904-3.814 2.417-5.716 1.169-1.894-1.257-2.416-3.816-1.16-5.711 1.026-1.558 2.902-2.169 4.592-1.665-3.716-1.789-4.672-5.525-4.672-5.525 4.751-4.215 4.601-11.848 9.449-22.455.221-.487.469-.983.708-1.479l-.018.053c-1.053 2.639-2.062 7.172-1.646 10.475.088.717.231 1.372.398 2.01v.009c.071.292 1.699 6.889 6.149 5.818l-.699 1.567c1.947 1.213 6.406 3.329 13.997 3.427 10.662.142 16.492-6.879 18.094-12.104 1.257-4.064-.69-8.58-4.707-12.538 1.177-1.364 1.893-3.266 1.106-5.888.363 1.213-1.911 3.374-4.309 3.161-.221-.018-.434-.053-.655-.115-3.619-1.009-7.742-5.419-11.237-8.031-3.477-2.612-4.495-6.659-4.424-9.528.053-2.869-.92-6.269-3.654-8.846-2.734-2.576-5.184-2.825-5.963-3.028-.787-.212-1.009-.7-.929-1.222.16-.859 1.266-.7 1.266-.7 6.636 1.328 11.483 7.908 12.554 9.838.991 1.771 11.467 9.962 15.519 13.548 1.893 1.381 10.095 7.677 11.564 14.132 1.743 7.704-2.919 15-6.857 18.435zm-11.821-17.515c1.301.646 3.167 1.913 4.043 3.746.23.487.336.956.336 1.479.134 2.143-2.371 5.277-4.592 6.101-1.61.664-3.743.992-5.804.983-.655 0-1.301-.027-1.929-.089.584-.983 1.292-2.178 2.079-3.462 1.77-2.895 3.965-6.269 5.866-8.757zm-18.474-12.742c1.753-2.975 3.592-5.897 5.459-8.802l.265-.398c-.08.611-.292 3.931.823 7.225.646 1.576 1.672 3.17 3.291 4.658 1.451 1.337 2.663 2.408 3.672 3.25-4.901 6.34-11.847 18.196-11.847 18.196-2.973.177-4.459-.806-6.139-4.392-.24-.514-.426-1.08-.567-1.674v-.009c-.885-3.692-.08-8.447-.061-8.58.123-.248 3.423-6.623 5.104-9.474zm48.972-66.065c4.07-.992 8.096-2.072 12.051-3.312l.345-.115c-4.043 6.136-35.878 51.72-38.072 54.678-.177-.142-5.645-4.826-5.839-4.994 8.112-11.281 31.055-45.557 31.515-46.257zm99.874-236.11c-.505 24.244-7.141 41.13-7.141 41.13-9.484 5.685-22.429 11.75-37.214 13.946-30.887 4.569-46.061-.053-74.666-9.209-28.587-9.156-71.49-28.911-115.525-28.618-44.044.283-75.48 19.418-103.642 41.183.434-.133 7.344-2.293 9.839-3.117 0 0-6.574 7.721-8.573 12.016 0 0 13.103-9.802 31.091-8.757 0 0-6.255 1.567-8.865 5.481 0 0 7.299-1.576 8.6 1.302 1.309 2.869-3.123 9.395-11.201 13.043-8.078 3.657-21.12 6.526-29.463 7.048 0 0 8.352 2.612 13.82 7.828 0 0-6.37.912-13.298 3.648-5.769 2.285-16.165 3.657-20.598 3.135 0 0 6.07 5.685 13.298 10.174 21.164 13.14 12.228 32.621 5.415 39.005-4.486 1.275-51.246 14.008-61.961 89.556 0 0 23.694-33.081 59.572-42.219 35.886-9.138 70.676 0 88.937 8.917 18.262 8.926 46.53 28.503 83.275 34.604 20.208 3.356 44.54 2.745 68.092-1.762-.38.584-18.35 27.334-26.074 38.119 0 0-5.733-7.208-13.493-7.925 0 0-3.256-.655-5.893.717v.009c-2.327 1.071-4.318 3.365-4.964 6.544-.654 3.223.513 5.72 2.036 7.491 1.45 1.691 3.273 2.55 4.75 2.949 1.318.319 3.15 1.125 3.495 2.869-3.539 5.454-8.388 13.335-11.883 20.95-2.743 5.995-4.052 11.139-5.149 14.601-1.035 3.551-1.955 4.941-2.256 5.118l-3.725 3.285s1.424 5.764 1.831 6.73c-.902 1.718-1.354 3.613-1.363 5.481v.106c0 3.914 1.929 7.757 5.433 10.069 2.734 1.885 6.689 2 6.689 2 3.902 0 7.733-1.93 10.042-5.401.557-.841.983-1.727 1.292-2.612 2.805-1.142 4.53-2.736 5.424-4.047 2.079.478 8.131.664 8.379.664 8.458-.062 16.474-2.488 22.341-7.491 4.716-4.224 9.865-11.448 10.033-21.127 0-1.727.522-10.829-8.211-18.055 7.547-10.918 16.82-24.527 26.57-39.288 18.129-27.494 32.958-51.384 44.239-71.332 11.803-20.278 48.733-75.983 48.654-152.257-.035-22.225-7.989-36.499-7.989-36.499zm-153.881 320.203l-.009.027.027-.053.009-.035-.027.062z" fill="#000"/><path d="M358.182 245.313c-20.598 14.584-52.848 19.038-52.848 19.038-.363 1.399-2.495 2.869-2.495 2.869s3.3 1.222 11.405 7.323c8.096 6.101 5.901 5.8 8.485 7.544 2.584 1.736 4.052 1.249 4.052 1.249.779 1.567.877 3.896.877 3.896 1.079 1.018 6.361 6.065 1.45 11.29-4.919 5.224-10.6.372-10.6.372-2.008.425-3.964-.239-3.964-.239s-10.511 6.623-20.951-.593c-8.495-5.862-7.982-12.813-7.485-15.212-2.868 1.647-5.947 2.931-9.104 3.923-8.521 2.674-19.395 3.781-30.198.186-7.096-2.391-12.971-6.535-17.607-11.13-4.645-4.604-8.078-9.687-10.316-14.265-.336-.7-.655-1.39-.938-2.063-.743 1.771-4.3 8.493-15.315 8.013-12.679-.549-17.076-12.175-17.076-12.175s-1.955-.655-3.3-2.196c0 0-7.45.443-8.228-6.694-.77-7.137 6.494-7.969 7.972-8.129 0 0 1.469-1.806 3.035-2.586 0 0 .885 1.284 3.99 1.452 3.106.168 1.177-.921 11.316-.894 10.14.018 13.502 1.045 13.502 1.045s-.814-2.462-.257-3.799c0 0-23.031-23.022-30.666-47.089-7.636-24.067-5.3-32.993 3.973-58.37 0 0 6.875 43.237 27.977 70.404 12.042 15.505 25.588 27.591 35.01 35.118l.646.009c-2.008-2.24-3.539-4.87-4.3-7.881-1.885-7.438-4.972-14.353-6.388-19.861-1.416-5.516 1.734-16.541 1.734-16.541-4.229-6.783-2.168-17.948-2.168-17.948s2.292-1.089 4.035-3.205c1.734-2.125 1.133-8.394 2.548-17.621 1.416-9.227 7.414-18.772 20.704-24.2 13.219-5.401 33.073 1.682 33.25 1.744.177.053 20.288 6.384 27.578 18.675 7.326 12.352 6.353 23.598 1.92 31.806-4.432 8.217-8.697 12.848-8.582 15.593.106 2.736 1.283 4.985 1.283 4.985s-5.079 10.156-12.555 13.025c0 0-4.132 10.688-8.591 14.229-4.442 3.542-11.077 7.19-17.067 11.989-2.362 1.895-5.079 3.064-7.972 3.657l.575.425c12.042-.319 30.056-1.78 48.91-6.854 33.206-8.943 64.748-39.279 64.748-39.279-7.891 25.838-11.414 34.374-32.001 48.966zm31.586-103.068c-42.487-.257-88.504-24.182-129.327-33.302-86.053-19.215-127.752 25.749-127.77 25.767.009-.009 13.944-5.083 20.969-.514 7.636 4.967.902 17.78-1.557 20.339-7.06 7.358-17.209 12.795-28.419 12.795 0 0 11.865 2.851 15.705 6.384 0 0-11.007 1.443-17.005 3.524-5.99 2.09-17.722 5.481-20.323 5.481 0 0 30.905 14.141 11.723 44.344 0 0 13.413-2.054 24.588 3.312 0 0-61.226-9.891-81.939 57.741 7.804-6.437 32.321-23.748 70.49-23.934 46.079-.204 65.845 10.404 84.151 21.499 27.906 16.93 49.008 21.942 65.04 24.935 46.071 8.607 92.335-6.898 112.384-16.248 58.192-89.229 64.889-139.629 65.88-175.615-18.801 18.94-50.308 23.58-64.588 23.491z" fill="#D50A0A"/><path d="M363.861 311.7c-4.043 6.136-35.879 51.714-38.073 54.671-.178-.142-5.646-4.826-5.84-4.994 8.114-11.281 31.056-45.551 31.516-46.251 4.071-.992 8.097-2.072 12.052-3.312l.345-.115zm-66.641 79.325c-1.054 2.639-2.062 7.171-1.647 10.476.088.716.231 1.372.399 2.009v.01c-2.487 11.431-7.3 11.617-8.574 11.449l-.319-.063c4.75-4.214 4.6-11.847 9.449-22.455.221-.487.47-.983.709-1.479l-.018.053zm11.821-11.813c-.009.008-6.142 8.033-11.591 20.039l.007-.032-.009.023c-.882-3.692-.078-8.447-.06-8.58.123-.248 3.423-6.623 5.105-9.476 1.752-2.974 3.592-5.896 5.46-8.801l.265-.398c-.074.612-.294 3.931.823 7.225zm-63.846-178.152c1.386-1.161 4.505-.62 4.505-.62s1.4 1.473 1.73 2.574c.321 1.109-.011 7.149 2.374 11.306v-.098s.118-.439.624-1.194c.511-.755 1.502-1.825 2.097-1.403.595.421.515 1.609.501 2.881-.01 1.272-.439 2.631-.76 3.016 0 0 .495 1.014 1.84 1.656 0 0-.057-.484.042-1.175.212-1.219.825-2.225 1.217-3.334.119-.388.498-.787 1.063-.484.011 0 1.124.581 2.11 1.074.114.083.8.607.434 1.591l-.031.084-.049.128c-.37.929-.684 1.778-1.157 2.758 0 0-.242.905-.667.943 0 0 .829.545 1.202.702.571.242 1.281.548 1.632.635 0 0-.379-.586-.283-1.424.227-1.194.58-2.836.881-4.211.104-.323.394-.87 1.057-.661.747.308 1.507.6 2.268.878.639.268.633.9.608 1.112-.349 1.519-.74 3.338-1.155 4.791-.095.221-.227.532-.338.646 0 0 .684.481 1.144.602.456.12 1.324.296 1.324.296s-.166-.588.044-1.214l.004-.038 1.024-2.924c.082-.251.325-.804.463-1.164.074-.182.37-.738 1.047-.595.893.268 1.79.515 2.691.74.667.197.285 1.221.285 1.221s-.967 2.378-1.593 3.91l-.007-.003s-.211.539-.557.823c0 0 .621.275 1.087.368.982.194 1.566.175 1.812.192 0 0-.303-.733.053-1.61l.045-.121c.299-.693.61-1.387.897-2.083l.236-.593c.101-.301.578-.793 1.363-.653l.068.002c.626.118 1.253.223 1.88.32l.006.007s1.122.23.712 1.282c-.567 1.26-1.168 2.524-1.842 3.796.7.055 1.407.095 2.114.114 0 0-.088-.063.202-.849.29-.785 1.14-2.46 1.225-2.709.085-.245.41-1.218.818-1.266.411-.043 2.013 1.241 1.596 3.717 4.402-1.882 7.763-6.887 8.688-7.569.809-.597 2.424-.92 2.83-.994.68.391 2.653 1.629 2.988 3.088 0 0-3.316 3.054-7.399 4.854-4.089 1.801-10.272 5.702-12.709 7.328-.923.615-2.177 1.145-3.763 1.437-.989-1.766-4.429-3.945-8.838-5.427-4.609-1.55-8.841-1.849-10.567-.889-1.258-1.29-2.026-2.578-2.42-3.715-.959-2.766-3.546-9.614-5.717-13.515-2.174-3.903-2.979-8.341-2.979-8.341zm37.512 46.908c8.374-.37 16.973-1.202 25.412-2.719 34.818-6.262 56.202-20.835 66.454-28.938.937-.742 1.762-1.414 2.516-2.036 1.759-1.426 2.853-2.33 2.885-2.395-.165.386-6.725 15.466-34.01 27.311-1.213.527-2.451 1.051-3.748 1.563-5.547 2.088-17.226 6.038-32.671 8.829-6.244 1.128-12.561 1.898-18.881 2.429-.506.042-4.17.311-4.17.311-1.149-1.474-2.409-2.927-3.788-4.355zm-9.249 10.042c.019.823.008 1.651-.029 2.483l-.036.72c-.626-.318-1.26-.635-1.905-.948-.238 1.442-.589 2.866-1.07 4.263-.952-.553-1.925-1.085-2.905-1.595.431-1.338.769-2.692 1.026-4.055-1.048-.476-2.12-.944-3.213-1.401-.288 1.294-.634 2.586-1.039 3.874-1.003-.464-2.017-.909-3.037-1.327.398-1.252.759-2.503 1.087-3.748-1.07-.413-2.157-.814-3.262-1.202-.377 1.209-.767 2.43-1.171 3.658-1.04-.374-2.08-.725-3.133-1.052.417-1.224.841-2.432 1.269-3.623-1.115-.355-2.224-.689-3.328-1.003-.488 1.189-.954 2.401-1.389 3.638-1.063-.284-2.141-.541-3.219-.778.449-1.264.951-2.495 1.496-3.697-1.149-.291-2.289-.562-3.414-.811-.61 1.234-1.151 2.509-1.609 3.827-1.088-.189-2.185-.348-3.282-.484.453-1.388 1.026-2.722 1.696-4.002-.708-.135-1.409-.263-2.102-.383l.458-.677c.479-.693.976-1.365 1.493-2.014l.18-.228c.601.071 1.209.151 1.823.238.543-.788 1.122-1.553 1.733-2.293 1.024.132 2.023.282 3.002.447-.557.763-1.088 1.55-1.593 2.356 1.085.197 2.184.422 3.295.673.453-.83.925-1.643 1.411-2.436.933.201 1.853.417 2.756.648-.415.821-.821 1.661-1.218 2.515 1.034.276 2.075.577 3.121.904.329-.877.66-1.743.99-2.594.878.273 1.748.564 2.613.876-.25.877-.508 1.767-.774 2.665 1.032.367 2.042.754 3.035 1.153.196-.916.378-1.827.541-2.727.865.359 1.724.74 2.592 1.147-.089.917-.203 1.842-.339 2.768 1.035.463 2.046.94 3.029 1.429.079-.932.127-1.865.143-2.793.883.459 1.77.944 2.666 1.456.042.936.044 1.871.005 2.803.541.296 1.071.593 1.593.893l.011.439zm-76.82-68.674c-13.666-25.051-10.847-42.673-10.847-42.673 1.905 8.022 7.565 37.891 37.194 70.013 5.862 6.355 12.273 12.249 18.779 17.634-1.964.319-3.862.729-5.67 1.223-4.67-4.119-15.628-14.936-15.656-14.962-8.815-8.881-15.396-17.414-20.347-25.348-1.032-1.689-1.833-3.081-2.473-4.123l-.98-1.764zm122.553-18.729c-1.681 2.338-3.194 3.94-3.973 5.118-.929-1.665-1.646-3.436-1.92-5.207 0 0 .513 8.731 4.937 12.928 0 0-2.38 5.322-2.876 8.554-.487 3.241.77 6.65.77 6.65s-.319.514-.779 1.222c-2.512 2.966-6.91 5.534-9.272 5.1-2.681-.496-9.14-2.692-12.882-1.921-3.07.638-4.919 2.373-5.937 4.126l.018-.009c-.274.328-.531.691-.708 1.116 0 0-.796 1.39-1.017 3.25-.548-.239-1.017-.425-1.017-.425.009.097.009.23-.018.372-.035.274-.159.717-.176.779l-.035.195-.196.744c-.247.903-.468 1.638-.752 2.524l-.035.062c-.283.841-1.133.567-1.133.567l-.096-.035c-.62-.31-1.302-.638-2.009-.974 0 0-.796-.416-.672-1.24l.009-.062.019-.089.07-.221c.221-.797.69-2.506.752-2.904.08-.469.389-1.328.584-1.665-.133-.133-.469-.496-.761-.638-.248-.124-.513-.177-.876-.151-.133.115-.354.46-.363.646-.009.106-.291.992-.602 1.966-.318.983-.681 2.063-.841 2.55-.176.531-.557.646-.867.646-.257 0-.46-.08-.46-.08-.618-.248-1.46-.549-2.123-.797l-.124-.044c-.796-.301-.743-.983-.69-1.257.345-1.027.787-2.329 1.124-3.347l.23-.726.018-.035c.027-.106.327-.868.787-1.098-.301-.23-.902-.469-1.353-.629-.541-.177-1.505-.345-1.558-.354.159.345.196.947.115 1.249-.115.398-1.177 4.109-1.221 4.25-.053.142-.239.584-.531.691-.283.106-1.079-.151-1.079-.151l-.133-.027c-.672-.204-1.628-.354-2.264-.531 0 0-1.045-.301-.718-1.257 0 0 .681-2.497 1.017-3.684l.018-.106c.027-.089.177-.584.23-1.337.053-.753-.451-.93-.823-.93-.353 0-.743.638-.831 1.009-.098.398-.319 1.063-.319 1.063l-.027.062v.009l-.071.168c-.363.965-.646 1.762-.973 2.727-.344.912-1.363.726-1.363.726-.761-.159-1.495-.31-2.177-.434l-.097-.035s-.849-.292-.566-1.133l.018-.08c.302-.877.557-1.585.911-2.462.097-.23.451-1.071.655-1.399.212-.328.495-.505.495-.505.01-.195-.283-.558-.814-.744l-.212-.053c.31-.77.699-1.833.885-2.727.584-2.169.513-5.224-2-8.102-2.522-2.878-9.007-5.021-11.431-6.243-2.433-1.222-4.619-7.093-4.327-11.148 0 0 3.052-1.966 4.61-4.844 1.575-2.869 2.867-8.545 2.867-8.545 5.884-.664 11.387-6.933 11.724-7.323-1.461 1.408-3.372 2.462-5.354 3.276.106-1.346-.115-3.613-.053-6.969.088-4.596 4.946-23.509 30.135-19.215 4.645.965 8.37 2.09 9.343 2.4l.283.097c.478.151 1.133.363 1.921.655l.716.274c.327.124.672.257 1.035.407.478.195.982.407 1.513.638.522.239 1.071.487 1.638.762 1.229.593 2.538 1.293 3.857 2.09l.389.23.115.071c10.255 6.243 13.068 13.866 13.068 20.171 0 5.543-2.177 10.077-3.371 11.75zm-125.398 75.232c.459-.933 1.331-2.025 2.678-2.901 1.162-.763 2.822-1.283 4.268-1.563.697.014 1.394.035 2.09.07 1.099.053 2.197.132 3.293.23 2.207.197 4.775.491 6.964.838-1.314.437-3.125 1.297-4.345 3.228l-.048.05c-2.115-.366-10.484-.475-14.9.047zm-1.862.12c-5.323 0-6.275-4.033-6.294-4.106.44.188.887.317 1.347.404l-.027-.002.027.002c.484.092.985.13 1.505.132 1.635.015 3.332-.294 5.1-.54 1.995-.279 4.009-.477 6.024-.487.311-.002.93.011.883.016-1.623.089-4.19.685-5.825 1.668l-.027.019c-.935.545-1.933 1.462-2.442 2.424-.034.063-.219.414-.27.47zm108.51 25.889l.439.242c.72.406 1.443.807 2.158 1.218 1.508.87 2.996 1.774 4.46 2.715 1.046.672 2.083 1.362 3.092 2.087l.385.285c.987 1.099 1.993 2.511 2.459 3.823.549 1.511.587 2.909.391 3.932-3.207-3.089-9.951-8.049-11.849-9.033.185-2.269-.752-4.132-1.535-5.269zm14.374 11.537c-.649-1.702-3.606-4.823-3.671-4.877 0 0 1.782 1.43 1.931 1.542.678.514 2.131 1.859 2.799 2.516.551.545 1.102 1.089 1.647 1.64.401.406 2.059 1.972 2.621 2.391.426.317.857.597 1.305.816.41.201.834.36 1.284.468l-.042.03c-.923.692-2.008 1.147-3.175 1.147-.401 0-.835-.059-1.224-.153-.544-.133-1.065-.331-1.563-.588-.314-.164-.622-.339-.918-.537-.181-.121-.365-.253-.551-.394l-.014-.023c.052-.24.094-.496.111-.783.063-1.04-.152-2.233-.541-3.196z" id="Combined-Shape" fill="#fff"/><path d="M378.992 306.183c-5.769 9.129-37.242 56.584-44.685 67.361l-.176-.133c-1.089-.992-2.495-2.188-4.052-3.489 2.538-3.622 31.632-46.915 40.162-60.33 2.983-1.055 5.885-2.205 8.751-3.409zm-53.646 92.969c.134 2.144-2.371 5.278-4.593 6.103-1.61.664-3.743.992-5.805.982-.655 0-1.299-.026-1.928-.088.584-.984 1.293-2.178 2.078-3.462 1.77-2.896 3.966-6.27 5.867-8.758 1.301.646 3.167 1.913 4.043 3.746.23.487.337.956.337 1.478zm-13.014-15.283c1.452 1.337 2.663 2.408 3.673 3.251-4.902 6.34-11.848 18.196-11.848 18.196-2.972.178-4.46-.805-6.14-4.392-.24-.514-.425-1.08-.566-1.674 5.448-12.006 11.582-20.031 11.591-20.039.646 1.576 1.672 3.17 3.291 4.658zm27.314 9.139c1.744 7.704-2.919 15-6.857 18.436-3.946 3.444-10.654 5.64-17.661 5.508-6.247-.125-10.635-1.133-14.607-3.294l-.036.133c-.31.265-.939 1.708-5.53 2.391-3.08.505-4.866-.115-5.053-.177 5.416 5.482 10.316 2.028 10.316 2.028.232.957.566 1.638.566 1.638s-1.627 2.392-6.582 1.568c-.603-.098-1.116-.266-1.619-.452l.282.151c1.903 1.249 2.415 3.808 1.169 5.702-1.266 1.905-3.813 2.418-5.716 1.17-1.894-1.257-2.416-3.816-1.16-5.711 1.026-1.558 2.901-2.17 4.592-1.665-3.716-1.789-4.672-5.527-4.672-5.527l.319.063c1.274.168 6.087-.018 8.574-11.449.071.292 1.699 6.888 6.149 5.817l-.699 1.568c1.946 1.213 6.406 3.329 13.997 3.427 10.662.142 16.493-6.88 18.095-12.104 1.256-4.065-.69-8.581-4.708-12.539 1.177-1.364 1.894-3.267 1.106-5.889.363 1.214-1.911 3.375-4.31 3.162-.221-.019-.432-.054-.653-.115-3.62-1.01-7.744-5.42-11.238-8.032-3.477-2.612-4.495-6.659-4.424-9.528.051-2.87-.921-6.27-3.655-8.847s-5.184-2.825-5.963-3.028c-.788-.213-1.01-.7-.93-1.222.161-.859 1.267-.7 1.267-.7 6.636 1.328 11.484 7.907 12.554 9.838.992 1.772 11.468 9.962 15.52 13.549 1.894 1.381 10.096 7.678 11.564 14.133zm-75.625-157.41c-3.457-1.164-6.26-2.574-9.163-5.704-2.56-2.759-3.829-8.004-4.561-10.699-.105-.385-.198-.719-.285-.986-.677-2.129-3.428-9.938-4.012-11.763-.587-1.828-1.071-3.352-.712-6.49.335-2.948 1.798-9.013 1.981-9.761l.017-.076s2.402 1.166 3.151 1.604l-.012.078c-.09.673-.724 5.469-.756 7.776-.004.354.003.65.033.862 0 0-3.12-.541-4.505.62 0 0 .805 4.438 2.979 8.341 2.17 3.9 4.757 10.749 5.717 13.515.394 1.136 1.162 2.424 2.42 3.715 1.726-.96 5.958-.661 10.567.889 4.409 1.482 7.849 3.661 8.838 5.427 1.586-.292 2.84-.823 3.763-1.437 2.437-1.626 8.62-5.527 12.709-7.328 4.083-1.8 7.399-4.854 7.399-4.854-.335-1.458-2.308-2.696-2.988-3.088l.095-.015c1.134-1.148 4.248-6.645 4.633-7.326l.04-.071c.864.105 3.475.621 3.475.621s-2.72 6.33-4.331 9.056c-1.606 2.715-2.914 3.639-4.48 4.746-1.563 1.103-8.467 5.669-10.295 6.958-1.822 1.29-6.67 5.643-10.904 6.395-2.1.372-3.921.417-5.649.223-1.728-.195-3.367-.628-5.095-1.207l-.031-.012-.035-.008zm9.394-69.523c-3.247-3.392-9.194-6.934-9.194-7.049 4.407-1.098 11.565 5.578 15.776 9.095 3.584 3.17 5.151 3.471 5.47 3.56.326.124 1.751.831 6.503.46 5.486-.256 15.219-1.265 18.077 2.277 0 .097-6.919-.682-11.583.071-4.636.983-11.218 1.612-14.139.593-2.937-.948-7.813-5.428-10.909-9.005zm-18.165 16.85c-3.752-2.524-3.522-5.738-3.195-9.182.319-3.436 3.937-10.069 3.937-10.069l.054.035.018.009.248.257c.664 1.001-.487 3.49-.487 3.49-.292.726-.523 1.47-.718 2.223-.664 2.577-.911 5.773.15 8.341.044.089.718 1.257.682 1.293l-.196.151-.211.142c-1.841 1.08-.398 3.152-.283 3.312zm11.927 2.126c3.202.354 7.452-4.357 8.45-5.668.992-1.301 2.513-3.63 2.513-3.63.964 2.099 8.565 4.649 10.645 3.577-.01.044-.203 2.78-.196 4.41.009 1.639.567 7.97 3.337 9.627h.009s-.692.823.193 3.4c-.212-.071-3.681-1.355-4.927-4.163-1.292-2.888-.035-10.644-4.672-12.265-4.673-1.513-8.344 5.438-11.124 6.961-2.768 1.522-6.449.344-6.449.344 2.283-1.522 2.221-2.594 2.221-2.594zm19.67 27.087c-.213-.115-1.292-.593-1.292-.602.221-1.859 1.017-3.25 1.017-3.25s1.566-1.107 4.37-.973l-.017.026.017-.009c-.079.213-.715 1.957-.885 3.489-.096.947-.557 3.339-.557 3.357-.823 2.869-3.583 4.453-3.832 4.295-.292-.186-.672-.885.566-4.853 0-.194.638-.424.779-.415l.769-.124s-.071-.151-.336-.531c-.115-.187-.415-.302-.601-.408zm19.236-7.163c2.362.434 6.752-2.135 9.264-5.1l-.062.097c-1.044 1.86-2.45 3.853-4.168 5.145-2 1.505-2.981 2.665-8.528 1.354-2.177-.522-4.381-.991-6.6-1.265-2.841-.363-6.601-.46-8.672 1.929l-.035.036-.035.027c1.026-1.762 2.876-3.506 5.955-4.144 3.743-.771 10.201 1.425 12.883 1.921zm-81.836 31.029c-2.575-2.281-5.084-4.635-7.515-7.068-5.664-5.67-10.888-11.794-15.467-18.374-3.719-5.342-7.058-10.968-9.758-16.895-2.639-5.79-4.791-11.79-6.137-18.017-1.267-5.862-1.829-11.89-1.512-17.883.187-3.542.618-7.225 1.762-10.599l.171-.506s-2.819 17.623 10.847 42.673l-.078-.141s9.938 24.601 36.064 47.41c-1.867.651-3.622 1.359-5.229 2.126-.257.122-2.833-2.446-3.149-2.726zm-30.454 9.835c4.417-.522 12.785-.413 14.9-.047l.048-.05c-.328.521-.624 1.099-.841 1.787-.349 1.081-.611 1.97-.814 2.695-5.091-1.398-13.189-1.83-13.189-1.83-.232-.341-.47-.8-.484-1.309-.007-.333.15-.775.38-1.247zm25.236-12.078c.484-.128.669.492.669.492.912 3.779-1.341 7.892-2.088 8.919-.75 1.024-2.747 9.812-3.536 12.071 0 0-.93 2.317-1.3 3.065-.816 1.633-4.317 5.968-13.403 3.079-8.323-2.643-10.549-11.137-10.861-12.559-2.837-1.828-2.758-5.261-2.758-5.261-1.396 3.804.899 5.546 1.438 5.895-.062-.041-.539.458-.595.523l-.124.16s-.816-.154-1.566-1.215c-.312-.443-.617-1.025-.84-1.845-.081-.296-.134-.582-.164-.856l-.009.093c-.194 1.286-1.396 2.168-2.679 1.975-1.282-.194-2.17-1.398-1.977-2.684.193-1.287 1.396-2.171 2.678-1.974 1.012.151 1.777.932 1.96 1.889.072-2.317 1.761-3.675 1.761-3.675.019.073.971 4.106 6.294 4.106-.185.399-.306.772-.299 1.062.018.52.29.999.543 1.329h-.028c-.19 0-2.255-.011-2.257.137 1.126 6.946 6.555 11.06 10.843 11.893 4.189.815 6.491-.35 8.02-3.175.97.443 2.162.521 3.424-.526-1.848.079-2.65-1.042-2.79-1.852-.367-2.128.957-5.351 1.472-7.798.522-2.448 2.38-3.947 3.889-4.609 1.514-.662 3.048-1.988 3.733-4.044.682-2.047.214-3.382.138-3.839-.08-.459.12-.694.41-.775zm99.262 55.145c.388.094.823.153 1.224.153 1.167 0 2.252-.454 3.175-1.147l.032-.021c.01.004.088.566.093.69.038.727-.042 1.883-.724 3.011.703-.537 1.685-.651 2.517-.196 1.131.611 1.552 2.029.937 3.157-.61 1.131-2.025 1.554-3.156.939-1.092-.593-1.496-1.925-.972-3.032-.181.187-.355.377-.582.555-1.34 1.029-2.385 1.188-3.037 1.148-.463-.029-.731-.158-.731-.158s.027-.294-.104-.783l-.052-.199c.159.014.455.019.823-.033 1.133-.161 2.986-.88 3.874-3.8 0 0-.218.283-.591.65-.816.806-2.496 2.012-4.808 1.84-1.11.952-7.978 6.415-16.207 3.5-8.987-3.185-9.056-8.737-8.831-10.55.147-1.185.779-3.135.81-3.23.731-2.274 4.438-10.484 4.457-11.755.021-1.272.702-5.913 3.711-8.376 0 0 .517-.383.825.008.181.241.203.553-.14.869-.335.318-1.509 1.102-2.203 3.143-.696 2.054-.265 4.04.537 5.479.745 1.336 1.062 2.947.805 4.46-.088.537-.252 1.076-.481 1.569-.569 1.217-1.015 2.488-1.53 3.729-.564 1.352-1.189 2.611-1.994 3.377-.894.849-2.336.587-3.22-.128l-.115-.08c.372 1.598 1.373 2.238 2.41 2.468-.486 3.189.645 5.509 4.481 7.393 3.925 1.924 10.733 1.918 15.817-2.939-.509-.573-1.118-.993-1.711-1.468l-.026-.019c.395-.114.905-.331 1.23-.736.181-.226.31-.598.403-1.025l.021.016c.187.141.37.273.551.394.296.198.603.374.918.537.498.257 1.019.455 1.563.588zm-16.735-9.925c.242-.691.419-1.863.419-1.863 1.898.984 8.642 5.944 11.849 9.033-.101.514-.242.961-.446 1.222-.319.399-.781.619-1.179.753-2.821-1.933-7.107-4.468-11.625-6.504.279-.699.6-1.566.981-2.64zm-12.873-147.919c-25.19-4.295-30.047 14.619-30.135 19.215-.062 3.356.159 5.623.053 6.969-3.663 1.532-7.583 2.09-7.583 2.09.212-2.125.203-6.818 1.115-10.519.858-3.48 6.662-18.675 27.065-18.763 2.115 0 4.38.151 6.813.496.876.151 1.725.319 2.548.487l.124.027zm36.523 42.254c1.513-3.834 7.326-23.89-19.049-36.588l-1.025-.434c1.229.593 2.538 1.293 3.857 2.09l.389.23.115.071c10.255 6.243 13.068 13.866 13.068 20.171 0 5.543-2.177 10.077-3.371 11.75-1.681 2.338-3.194 3.94-3.973 5.118 1.417 2.559 3.3 4.844 4.699 6.375 1.194-1.939 3.919-5.339 5.29-8.784zm-11.913 9.796l.355-.053.079.008s-1.106 7.474-2.929 10.405c-1.824 2.941-3.565 5.65-8.097 5.402 0 0 2.628-.762 1.788-2.826-.062-.15-.106-.3-.142-.46 1.212-.682 2.3-1.195 3.291-2.231 1.318-1.373 2.361-3.065 3.114-4.8.328-.771.603-1.558.825-2.364 0 0 .584-2.684 1.716-3.081zm-62.451 5.977c-5.211-2.293-5.291-3.816-5.99-6.225-.08-.302-.15-.656-.203-1.046-.097-.769-.124-1.691-.124-2.603 0-2.276.23-4.534.23-4.534-.292 4.055 1.893 9.927 4.327 11.149 2.424 1.221 8.91 3.364 11.433 6.243 2.513 2.878 2.584 5.934 2 8.103-.187.893-.576 1.957-.885 2.727-.17-.044-.346-.071-.522-.089-.513-.062-1.328-.116-1.497.522l-.017.044c.08.274.142.611.106.797-.045.204-.115.39-.15.479-1.389 3.905-2.123 4.241-2.469 4.214-.292-.017-1.54-2.957-.469-5.739l.017-.052c.549-1.241 1.071-2.144 1.558-2.958.858-1.417 1.407-3.337 1.407-3.337l.017.035v-.027c.718.488 1.327 1.081 1.894 1.727l.026.036c.257.425.655.752.885 1.204.063.132.107.257.107.353.194-.744.168-1.646-.116-2.372l-.026-.08c-1.052-2.879-3.778-4.57-6.309-6.004-1.69-.956-3.451-1.79-5.229-2.568zm32.562 4.428c.043.982.265 1.504.503 2.177.241.63.533 1.63.161 2.656l-.47 1.399c-.627 1.887-2.893 2.817-5.051 2.099v-.01s1.449-.371 1.92-1.761l.017-.053c.894-.134 1.673-.664 1.954-1.514l.496-1.461c.495-1.496-.61-2.17-.672-4.588-.088-1.249-.176-2.462.31-3.905.39-1.17-.263-2.465-1.483-3.003 2 .801 3.112 2.811 2.509 4.614-.38 1.151-.292 2.072-.204 3.294l.011.035v.019zm-11.724 1.38c-.284.842.017 1.728.637 2.374l-.019.062c-.468 1.399.469 2.567.469 2.567-2.149-.725-3.389-2.833-2.761-4.711l.471-1.399c.326-1.046 1.148-1.674 1.734-2.028.601-.39 1.088-.673 1.716-1.426l.026-.036v-.009c.825-.911 1.461-1.602 1.84-2.753.612-1.789 2.708-2.736 4.815-2.143-1.302-.329-2.62.319-3.009 1.488-.487 1.452-1.309 2.355-2.123 3.294-1.513 1.895-2.806 1.762-3.3 3.259l-.495 1.46zm74.284 44.293c27.285-11.846 33.844-26.925 34.01-27.311l-.162.483c-2.032 5.864-5.796 11.32-9.917 15.901-2.995 3.331-6.26 6.365-9.744 9.179-5.343 4.315-11.419 7.814-17.614 10.742-6.154 2.908-12.606 5.217-19.161 7.037-10.253 2.845-21.101 4.337-31.821 4.939-.818-1.589-1.793-3.213-2.895-4.851 34.453-2.469 57.131-15.979 57.131-15.979l.173-.138z" id="Combined-Shape" fill="#B1BABF"/><path d="M325.436 235.626c33.206-8.943 64.748-39.279 64.748-39.279-7.891 25.838-11.414 34.374-32.001 48.966-20.598 14.584-52.848 19.038-52.848 19.038-.363 1.399-2.495 2.869-2.495 2.869s3.3 1.222 11.405 7.323c8.096 6.101 5.901 5.8 8.485 7.544 2.584 1.736 4.052 1.249 4.052 1.249.779 1.567.877 3.896.877 3.896 1.079 1.018 6.361 6.065 1.45 11.29-4.919 5.224-10.6.372-10.6.372-2.008.425-3.964-.239-3.964-.239s-10.511 6.623-20.951-.593c-8.495-5.862-7.982-12.813-7.485-15.212-2.868 1.647-5.947 2.931-9.104 3.923-8.521 2.674-19.395 3.781-30.198.186-7.096-2.391-12.971-6.535-17.607-11.13-4.645-4.604-8.078-9.687-10.316-14.265-.336-.7-.655-1.39-.938-2.063-.743 1.771-4.3 8.493-15.315 8.013-12.679-.549-17.076-12.175-17.076-12.175s-1.955-.655-3.3-2.196c0 0-7.45.443-8.228-6.694-.77-7.137 6.494-7.969 7.972-8.129 0 0 1.469-1.806 3.035-2.586 0 0 .885 1.284 3.99 1.452 3.106.168 1.177-.921 11.316-.894 10.14.018 13.502 1.045 13.502 1.045s-.814-2.462-.257-3.799c0 0-23.031-23.022-30.666-47.089-7.636-24.067-5.3-32.993 3.973-58.37 0 0 6.875 43.237 27.977 70.404 12.042 15.505 25.588 27.591 35.01 35.118l.646.009c-2.008-2.24-3.539-4.87-4.3-7.881-1.885-7.438-4.972-14.353-6.388-19.861-1.416-5.516 1.734-16.541 1.734-16.541-4.229-6.783-2.168-17.948-2.168-17.948s2.292-1.089 4.035-3.205c1.734-2.125 1.133-8.394 2.548-17.621 1.416-9.227 7.414-18.772 20.704-24.2 13.219-5.401 33.073 1.682 33.25 1.744.177.053 20.288 6.384 27.578 18.675 7.326 12.352 6.353 23.598 1.92 31.806-4.432 8.217-8.697 12.848-8.582 15.593.106 2.736 1.283 4.985 1.283 4.985s-5.079 10.156-12.555 13.025c0 0-4.132 10.688-8.591 14.229-4.442 3.542-11.077 7.19-17.067 11.989-2.362 1.895-5.079 3.064-7.972 3.657l.575.425c12.042-.319 30.056-1.78 48.91-6.854zm-80.789-53.81c.053.39.124.744.203 1.045.699 2.408.779 3.931 5.99 6.225 1.778.779 3.539 1.612 5.229 2.568 2.53 1.434 5.256 3.126 6.308 6.003l.027.08c.282.726.309 1.629.114 2.373 0-.097-.044-.221-.106-.354-.229-.452-.628-.779-.885-1.204l-.027-.035c-.566-.646-1.177-1.24-1.893-1.727v.027l-.018-.035s-.549 1.921-1.407 3.338c-.487.815-1.009 1.718-1.557 2.957l-.018.053c-1.071 2.78.177 5.72.469 5.738.345.027 1.079-.31 2.469-4.215.035-.089.106-.274.15-.478.035-.186-.027-.522-.106-.797l.018-.044c.168-.638.982-.584 1.495-.522.177.018.354.044.522.089l.212.053c.531.186.824.549.814.744 0 0-.283.177-.495.505-.203.328-.557 1.169-.655 1.399-.354.877-.61 1.585-.911 2.462l-.018.08c-.283.841.566 1.133.566 1.133l.097.035c.681.124 1.416.274 2.177.434 0 0 1.018.186 1.363-.726.327-.965.61-1.762.973-2.727l.071-.168v-.009l.027-.062s.221-.664.319-1.063c.088-.372.478-1.009.831-1.009.372 0 .876.177.823.93-.053.753-.203 1.249-.23 1.337l-.018.106c-.336 1.187-1.017 3.684-1.017 3.684-.327.956.718 1.257.718 1.257.636.177 1.592.328 2.264.531l.133.027s.796.257 1.079.151c.292-.106.478-.549.531-.691.044-.142 1.106-3.852 1.221-4.25.081-.301.044-.903-.115-1.249.053.009 1.017.177 1.558.354.45.159 1.052.398 1.353.629-.46.23-.761.992-.787 1.098l-.018.035-.23.726c-.336 1.018-.779 2.32-1.124 3.347-.053.274-.106.956.69 1.257l.124.044c.664.248 1.505.549 2.123.797 0 0 .203.08.46.08.31 0 .691-.115.867-.646.159-.487.523-1.567.841-2.55.311-.974.593-1.859.602-1.966.009-.186.23-.531.363-.646.363-.027.628.027.876.151.292.142.628.505.761.638-.195.336-.504 1.195-.584 1.665-.062.398-.531 2.107-.752 2.904l-.07.221-.019.089-.009.062c-.124.823.672 1.24.672 1.24.708.336 1.389.664 2.009.974l.096.035s.849.274 1.133-.567l.035-.062c.284-.885.505-1.62.752-2.524l.196-.744.035-.195c.017-.062.141-.505.176-.779.027-.142.027-.274.018-.372 0 0 .47.186 1.017.425 0 .009 1.079.487 1.292.602.186.106.487.221.602.416.265.372.336.522.336.522l-.77.124c-.142-.009-.779.221-.779.416-1.239 3.967-.858 4.666-.565 4.852.247.159 3.007-1.417 3.83-4.286 0-.027.46-2.417.558-3.365.167-1.532.804-3.276.885-3.489l-.019.009.019-.027c-2.806-.133-4.372.974-4.372.974.177-.425.434-.788.708-1.116l.035-.035c2.07-2.391 5.831-2.293 8.671-1.93 2.221.274 4.424.744 6.6 1.266 5.556 1.31 6.531.151 8.529-1.355 1.726-1.293 3.132-3.285 4.176-5.145l.062-.097c.46-.708.779-1.222.779-1.222s-1.256-3.409-.77-6.65c.495-3.232 2.876-8.554 2.876-8.554-4.424-4.197-4.937-12.928-4.937-12.928.274 1.771.991 3.542 1.92 5.207 1.417 2.559 3.3 4.844 4.699 6.375 1.194-1.939 3.919-5.339 5.29-8.784 1.513-3.834 7.326-23.89-19.049-36.588l-1.025-.434c-.567-.274-1.116-.522-1.638-.762-.531-.239-1.035-.452-1.513-.638-.363-.151-.708-.283-1.035-.407l-.716-.274c-.788-.292-1.443-.505-1.921-.655l-.283-.097c-.973-.31-4.698-1.434-9.343-2.4l-.124-.027c-.823-.168-1.672-.336-2.548-.487-2.433-.345-4.698-.496-6.813-.496-20.403.089-26.207 15.283-27.065 18.763-.911 3.701-.902 8.394-1.115 10.519 0 0 3.92-.558 7.583-2.09 1.982-.815 3.893-1.868 5.354-3.276-.337.39-5.84 6.659-11.724 7.323 0 0-1.292 5.676-2.867 8.545-1.557 2.878-4.61 4.844-4.61 4.844s-.23 2.258-.23 4.534c0 .912.027 1.833.124 2.603zm5.654 37.376c.726 2.701 2 7.943 4.557 10.705 2.903 3.126 5.707 4.534 9.166 5.702l.027.009.035.009c1.725.584 3.362 1.009 5.096 1.204 1.725.195 3.548.151 5.646-.221 4.237-.753 9.086-5.1 10.908-6.393 1.823-1.293 8.733-5.853 10.291-6.96 1.565-1.107 2.876-2.028 4.485-4.746 1.61-2.727 4.327-9.058 4.327-9.058s-2.61-.514-3.477-.62l-.035.071c-.389.682-3.504 6.181-4.635 7.332l-.089.018c-.407.071-2.026.39-2.831.992-.929.682-4.291 5.685-8.688 7.571.416-2.479-1.185-3.763-1.601-3.719-.407.044-.725 1.018-.814 1.266-.088.248-.938 1.921-1.221 2.71-.292.788-.203.85-.203.85-.709-.027-1.417-.062-2.115-.115.672-1.275 1.274-2.541 1.84-3.799.407-1.054-.708-1.284-.708-1.284l-.009-.009c-.628-.097-1.255-.195-1.884-.319h-.063c-.787-.142-1.264.354-1.363.655l-.239.593c-.292.691-.602 1.39-.902 2.081l-.044.124c-.354.877-.053 1.612-.053 1.612-.239-.018-.823 0-1.814-.195-.46-.097-1.079-.372-1.079-.372.345-.283.557-.823.557-.823.628-1.532 1.593-3.905 1.593-3.905s.38-1.027-.283-1.222c-.902-.221-1.796-.469-2.69-.735-.681-.151-.973.407-1.044.593-.142.354-.38.912-.469 1.16-.345.983-.681 1.957-1.017 2.922l-.009.044c-.212.62-.044 1.213-.044 1.213s-.867-.177-1.318-.301c-.46-.115-1.15-.602-1.15-.602.116-.106.248-.425.345-.646.407-1.452.805-3.267 1.15-4.79.027-.213.035-.841-.61-1.107-.761-.283-1.522-.576-2.265-.885-.664-.204-.956.345-1.062.664-.301 1.372-.646 3.019-.876 4.215-.097.832.283 1.417.283 1.417-.353-.08-1.062-.39-1.628-.629-.38-.159-1.203-.708-1.203-.708.425-.035.664-.939.664-.939.469-.983.787-1.833 1.159-2.763l.044-.124.035-.089c.363-.983-.319-1.505-.434-1.585-.991-.496-2.106-1.08-2.115-1.08-.566-.301-.938.097-1.062.487-.389 1.107-1 2.116-1.212 3.338-.097.691-.044 1.169-.044 1.169-1.345-.638-1.84-1.656-1.84-1.656.319-.381.752-1.744.761-3.011.009-1.275.088-2.462-.504-2.887-.593-.416-1.584.646-2.097 1.408-.504.753-.619 1.195-.619 1.195v.097c-2.389-4.162-2.053-10.201-2.38-11.307-.327-1.107-1.725-2.577-1.725-2.577-.027-.213-.035-.505-.035-.859.035-2.311.672-7.101.761-7.774l.009-.08c-.743-.443-3.15-1.603-3.15-1.603l-.018.071c-.186.753-1.646 6.818-1.982 9.767-.044.39-.071.753-.088 1.098-.142 2.417.283 3.79.805 5.392.584 1.824 3.336 9.634 4.008 11.759.088.266.186.602.292.983zm32.137-20.681c-.281.85-1.061 1.38-1.954 1.514-.417.053-.859.053-1.302-.089-1.37-.46-2.14-1.86-1.716-3.108.071-.213-.054-.443-.275-.523-.221-.07-.45.044-.521.249-.415 1.257-1.876 1.904-3.256 1.443-.442-.151-.796-.416-1.097-.726-.62-.646-.921-1.532-.637-2.374l.495-1.46c.495-1.497 1.787-1.365 3.3-3.259.814-.939 1.637-1.842 2.123-3.294.389-1.169 1.708-1.816 3.009-1.488l.23.062.25.097c1.22.537 1.873 1.833 1.483 3.003-.486 1.442-.398 2.656-.31 3.905.062 2.417 1.168 3.091.672 4.588l-.496 1.461zm6.15-14.771c-.008-1.629.186-4.365.196-4.41l.053.071c.133.195.751 1.055 1.699 1.966v.009c.168.159.344.319.531.479l.035.035c.691.576 1.505 1.107 2.444 1.418 2.856.965 7.024.282 11.492-.532.39-.061.77-.114 1.151-.159 4.008-.46 7.53.426 7.53.426l.008.026-.079-.008-.355.053c-1.132.398-1.716 3.081-1.716 3.081-.221.806-.496 1.593-.825 2.364-.752 1.735-1.795 3.427-3.114 4.8-.991 1.036-2.079 1.55-3.291 2.231l-.01-.009c-.017 0-.699.213-1.061.256-2.745.337-8.512-.548-11.281-2.444l-.062-.026h-.009c-2.77-1.657-3.329-7.988-3.337-9.627zm-32.277-19.765l-.248-.257-.018-.009-.027-.035c.203.08 3.414 1.488 6.246 4.188.284.267.558.541.825.823 3.077 3.348 5.99 6.412 8.848 7.368.929.31 1.91.381 2.805.337l.045-.01c.247-.009.486-.027.715-.053v-.008c1.469-.178 2.638-.568 2.638-.568s-1.521 2.33-2.513 3.63c-.999 1.31-5.248 6.022-8.45 5.668l-.08-.018c-3.354-.168-8.494-2.941-10.477-4.862-.265-.266-.672-.841-.68-.841l-.196.142.196-.151c.035-.035-.638-1.204-.682-1.293-1.062-2.568-.814-5.764-.15-8.341.195-.753.426-1.496.718-2.223 0 0 1.15-2.489.487-3.49zm123.504 48.39l.15-.46.009-.027c-.035.071-1.124.974-2.884 2.4-.752.62-1.584 1.293-2.522 2.037-10.246 8.102-31.631 22.668-66.447 28.937-8.441 1.514-17.041 2.346-25.42 2.718 1.381 1.426 2.645 2.878 3.796 4.356 0 0 3.663-.274 4.167-.319 6.317-.531 12.635-1.293 18.881-2.426 15.448-2.789 27.127-6.738 32.666-8.828 1.301-.514 2.539-1.036 3.751-1.567l-.167.142s-22.686 13.512-57.131 15.983c1.097 1.638 2.07 3.259 2.893 4.852 10.715-.602 21.562-2.099 31.816-4.941 6.556-1.824 13.006-4.126 19.164-7.039 6.193-2.922 12.272-6.428 17.616-10.741 3.477-2.816 6.742-5.844 9.741-9.182 4.123-4.578 7.883-10.032 9.918-15.894zm-76.781 60.947c-.717-.416-1.433-.815-2.159-1.222l-.434-.239c.779 1.133 1.716 3.003 1.531 5.269 0 0-.177 1.169-.415 1.859-.381 1.071-.709 1.939-.983 2.639 4.522 2.037 8.803 4.578 11.626 6.508.398-.133.859-.354 1.177-.753.203-.266.346-.708.442-1.222.203-1.027.16-2.426-.389-3.931-.46-1.31-1.469-2.727-2.46-3.824l-.38-.284c-1.009-.726-2.044-1.417-3.097-2.09-1.46-.939-2.946-1.842-4.459-2.71zm10.042 6.738l-1.885-1.496c.38.39 3.017 3.232 3.619 4.835.389.956.61 2.152.549 3.188-.018.292-.062.549-.115.788l.018.018-.027-.009c-.088.425-.221.797-.398 1.027-.327.399-.841.621-1.23.735l.027.018c.593.469 1.203.894 1.708 1.47-5.087 4.852-11.891 4.861-15.82 2.931-3.831-1.876-4.964-4.197-4.477-7.394-1.035-.221-2.035-.868-2.415-2.462l.116.08c.885.717 2.326.974 3.22.124.805-.762 1.433-2.019 2-3.374.513-1.24.956-2.515 1.531-3.728.23-.496.389-1.036.478-1.567.257-1.514-.062-3.126-.805-4.463-.805-1.443-1.23-3.427-.54-5.481.699-2.045 1.867-2.825 2.203-3.143.345-.31.327-.629.142-.868-.31-.39-.823-.009-.823-.009-3.008 2.462-3.69 7.101-3.716 8.377-.018 1.275-3.724 9.483-4.45 11.759-.035.089-.664 2.045-.814 3.223-.221 1.815-.15 7.367 8.83 10.555 8.229 2.914 15.103-2.55 16.209-3.498 2.309.168 3.99-1.036 4.804-1.842.336-.328.54-.584.584-.646-.876 2.913-2.734 3.63-3.866 3.79-.363.053-.664.053-.823.035l.053.205c.133.486.106.778.106.778s.265.133.726.159c.655.035 1.699-.124 3.045-1.151.221-.177.397-.363.574-.549-.522 1.107-.115 2.435.974 3.028 1.132.612 2.547.195 3.158-.938.619-1.125.195-2.551-.938-3.162-.832-.452-1.813-.336-2.513.195.681-1.125.761-2.285.717-3.01 0-.125-.08-.683-.088-.683l.009-.009c-.451-.115-.876-.274-1.283-.469-.451-.221-.876-.505-1.301-.823-.566-.416-2.22-1.983-2.627-2.391-.541-.549-1.098-1.089-1.647-1.638-.664-.655-2.123-2.001-2.796-2.515zm-23.128-7.819c.186-1.31-.106-3.179-.832-5.366-2.831-8.412-12.245-21.535-26.764-26.413-17.536-5.888-36.559 2.816-40.735 8.102-.177.213-.336.434-.469.673l-.053.097s-.106.159-.221.487c-1.663 4.976 8.414 26.121 27.437 32.514 19.04 6.393 39.62-3.825 41.478-9.368.133-.398.159-.726.159-.726zm-72.339-29.061c.743-1.027 2.999-5.136 2.088-8.917 0 0-.186-.62-.672-.496-.283.08-.487.319-.407.779.08.452.549 1.789-.142 3.834-.681 2.063-2.212 3.382-3.725 4.047-1.513.664-3.371 2.161-3.893 4.613-.513 2.444-1.84 5.667-1.469 7.792.133.815.938 1.93 2.787 1.859-1.265 1.045-2.451.965-3.424.522-1.531 2.825-3.831 3.985-8.025 3.17-4.282-.823-9.715-4.941-10.838-11.892 0-.142 2.07-.133 2.256-.133h.027c-.248-.328-.522-.815-.54-1.328-.009-.292.115-.664.301-1.063l.265-.469c.513-.965 1.504-1.877 2.442-2.426l.027-.018c1.637-.983 4.203-1.576 5.831-1.665.044-.009-.575-.027-.885-.018-2.017.009-4.026.204-6.025.487-1.77.248-3.468.549-5.096.54-.522-.009-1.026-.044-1.513-.133-.451-.089-.902-.221-1.345-.407 0 0-1.69 1.355-1.761 3.675-.177-.956-.947-1.736-1.955-1.886-1.283-.195-2.486.682-2.681 1.975-.195 1.284.699 2.488 1.982 2.683 1.274.195 2.477-.691 2.672-1.975l.009-.097c.035.274.088.567.168.859.221.823.522 1.399.841 1.842.743 1.063 1.566 1.222 1.566 1.222l.124-.168c.053-.062.495-.522.584-.522-.549-.363-2.814-2.107-1.433-5.888 0 0-.08 3.436 2.76 5.26.31 1.417 2.539 9.917 10.865 12.556 9.087 2.895 12.581-1.443 13.404-3.081.363-.744 1.292-3.064 1.292-3.064.787-2.258 2.787-11.042 3.539-12.069zm-14.785-1.727c-.69-.035-1.389-.053-2.088-.071-1.442.283-3.106.797-4.265 1.567-1.354.877-2.221 1.966-2.681 2.895-.23.478-.389.921-.38 1.249.018.514.257.965.487 1.31 0 0 8.096.434 13.192 1.833.195-.726.46-1.62.805-2.701.221-.691.522-1.266.849-1.789 1.221-1.93 3.026-2.789 4.344-3.223-2.194-.354-4.76-.646-6.963-.841-1.097-.097-2.194-.177-3.3-.23zm-1.557-30.885c4.574 6.579 9.803 12.706 15.466 18.373 2.424 2.435 4.937 4.79 7.512 7.075.319.274 2.893 2.842 3.15 2.727 1.61-.77 3.362-1.479 5.229-2.134-25.72-22.447-35.745-46.638-36.055-47.39l.071.124c.319.584.637 1.169.982 1.762.637 1.045 1.433 2.435 2.469 4.126 4.955 7.934 11.529 16.47 20.35 25.351.027.027 10.98 10.838 15.652 14.956 1.814-.496 3.707-.903 5.671-1.222-6.503-5.384-12.918-11.281-18.784-17.63-29.622-32.125-35.285-61.992-37.187-70.014l-.177.505c-1.141 3.374-1.575 7.057-1.761 10.599-.319 5.995.248 12.025 1.513 17.878 1.345 6.234 3.495 12.228 6.14 18.019 2.699 5.933 6.034 11.555 9.759 16.895zm23.011 37.452c3.929-.873 10.648-1.284 18.563-.341-.518.649-1.015 1.321-1.493 2.014-6.461-1.154-12.328-1.632-17.07-1.674zm49.179 9.999c6.682 3.92 11.654 8.14 14.189 11.162-3.715-2.742-8.545-5.787-14.218-8.679.037-.832.048-1.66.029-2.483z" fill="#0A0A08"/><path d="M287.84 274.079c-7.048 4.446-22.778 8.559-37.928 3.474-14.869-4.997-24.748-17.716-27.912-25.461-.371-.804-.467-2.974 1.705-3.98 0 0-1.372.196-2.608 1.21 0 0-.109.16-.22.492-1.664 4.968 8.412 26.118 27.436 32.509 19.035 6.394 39.622-3.824 41.48-9.363.127-.403.153-.727.153-.727-.432-1.356-1.258-2.2-1.258-2.2 1.058 1.998-.027 3.464-.848 4.046" fill="#C2242A"/><path d="M273.428 260.492l-.036.72c-.626-.318-1.26-.635-1.905-.948-.238 1.442-.589 2.866-1.07 4.263-.952-.553-1.925-1.085-2.905-1.595.431-1.338.769-2.692 1.026-4.055-1.048-.476-2.12-.944-3.213-1.401-.288 1.294-.634 2.586-1.039 3.874-1.003-.464-2.017-.909-3.037-1.327.398-1.252.759-2.503 1.087-3.748-1.07-.413-2.157-.814-3.262-1.202-.377 1.209-.767 2.43-1.171 3.658-1.04-.374-2.08-.725-3.133-1.052.417-1.224.841-2.432 1.269-3.623-1.115-.355-2.224-.689-3.328-1.003-.488 1.189-.954 2.401-1.389 3.638-1.063-.284-2.141-.541-3.219-.778.449-1.264.951-2.495 1.496-3.697-1.149-.291-2.289-.562-3.414-.811-.61 1.234-1.151 2.509-1.609 3.827-1.088-.189-2.185-.348-3.282-.484.453-1.388 1.026-2.722 1.696-4.002-.708-.135-1.409-.263-2.102-.383l.458-.677c-6.461-1.154-12.328-1.632-17.07-1.674 3.929-.873 10.648-1.284 18.563-.341l.18-.228c.601.071 1.209.151 1.823.238.543-.788 1.122-1.553 1.733-2.293 1.024.132 2.023.282 3.002.447-.557.763-1.088 1.55-1.593 2.356 1.085.197 2.184.422 3.295.673.453-.83.925-1.643 1.411-2.436.933.201 1.853.417 2.756.648-.415.821-.821 1.661-1.218 2.515 1.034.276 2.075.577 3.121.904.329-.877.66-1.743.99-2.594.878.273 1.748.564 2.613.876-.25.877-.508 1.767-.774 2.665 1.032.367 2.042.754 3.035 1.153.196-.916.378-1.827.541-2.727.865.359 1.724.74 2.592 1.147-.089.917-.203 1.842-.339 2.768 1.035.463 2.046.94 3.029 1.429.079-.932.127-1.865.143-2.793.883.459 1.77.944 2.666 1.456.042.936.044 1.871.005 2.803.541.296 1.071.593 1.593.893l.011.439c6.682 3.92 11.654 8.14 14.189 11.162-3.715-2.742-8.545-5.787-14.218-8.679zm-11.075-20.039c-17.534-5.887-36.558 2.811-40.74 8.098-.17.215-.33.441-.465.679l-.051.093c1.236-1.015 2.608-1.21 2.608-1.21-2.172 1.006-2.076 3.176-1.705 3.98 3.164 7.744 13.043 20.464 27.912 25.461 15.149 5.085 30.879.972 37.928-3.474.82-.582 1.906-2.047.848-4.046 0 0 .826.845 1.258 2.2.183-1.317-.104-3.181-.834-5.364-2.825-8.413-12.24-21.542-26.758-26.417z" fill="#FF7900"/></g></svg>