<svg width="500" height="500" viewBox="0 0 500 500" xmlns="http://www.w3.org/2000/svg"><title>Logos/Clubs/WAS/Primary</title><desc>Created with Sketch.</desc><g fill="none"><path d="M0 0h500v500h-500z"/><path d="M166.461 373.536c-1.529.517-4.697-.336-4.697-.336 1.057 8.338 2.215 11.2 2.215 11.2l-1.838 2.245 2.215 1.701c-2.387 16.512 4.629 27.876 7.865 38.944-2.555.848-5.482.712-7.665-.481.853 9.363.073 27.404-7.507 35.233-1.448-.934-2.487-1.193-3.05-2.041-1.139 2.64-1.988 3.661-4.289 10.384-1.275 4.509-2.383 10.81-2.982 17.614-6.231-3.198-13.025-6.555-19.157-16.884-1.362-2.431-2.315-4.409-5.65-7.657-.767 1.529-.903 1.991-2.437 3.434-1.62 1.529-5.841 3.402-5.873 3.234-.853-4.155-1.874-7.997-4.343-12.679-2.365-5.19-10.475-12.085-17.114-28.937-2.723-6.464-4.08-12.221-5.21-18.889-.508.254-.853.426-1.194.513-2.469.676-4.239.508-5.092-1.361-2.092 5.634-4.679 8.764-6.894 10.293-1.021 3.234-.853 4.087-3.063 6.727-2.042 3.062-2.728 3.829-4.139 9.612-2.301 5.874-5.741 8.769-6.249 10.297-.853-1.873-1.194-1.529-2.042-2.89-8.346 11.059-9.367 13.954-28.27 17.868 4.77-9.363 8.006-25.018 7.661-28.252-2.383-21.956-4.593-26.555-5.8-43.576-.703-8.51-2.709-29.441-.835-57.357 2.042-33.7 11.573-62.805 19.747-84.761 10.561-30.638 34.737-79.997 52.382-110.155l.068-27.367h6.812l7.148-16.34 3.236 2.386 12.263-32.684 8.682 24.682 14.845-9.372c5.932-5.439 48.162-66.366 137.587-66.239 86.647-.127 175.873 67.609 175.873 175.863 0 98.374-80.371 174.28-173.145 174.289-71.888-.009-118.203-36.599-142.76-70.131 1.566 16.852-1.702 50.38 12.698 81.866" fill="#fff"/><path d="M294.009 19.728c92.257 0 167.045 74.754 167.045 166.963 0 92.209-74.789 166.967-167.045 166.967-92.248 0-167.041-74.758-167.041-166.967 0-21.107 3.957-41.298 11.106-59.884h-22.579v-5.462l24.78-.036c25.451-59.711 84.7-101.581 153.734-101.581zm0 310.627c79.381 0 143.732-64.325 143.732-143.664 0-79.34-64.35-143.664-143.732-143.664-79.377 0-143.727 64.325-143.727 143.664 0 79.34 64.35 143.664 143.727 143.664z" id="Combined-Shape" fill="#FFB612"/><path d="M203.531 173.086s.513-.685.168-1.533c-.681-.34-1.357 1.021-1.357 1.021-.345.594-1.026 1.361-2.133 2.382.259-5.103.849-8.338 3.49-13.273-2.042 1.021-9.195 10.379-9.195 10.379-3.404 4.087-5.786 6.641-5.786 6.641-1.362 1.021-4.597 6.977-4.597 6.977.508-4.423 1.362-7.149 1.362-7.149-6.299 4.6-13.111 19.402-13.111 19.402-.849-5.616.508-10.551 1.021-15.655 7.661-33.528 23.155-52.934 23.155-52.934 6.136-7.489 16.692-19.402 28.951-28.424 6.299-4.255 17.713-11.744 22.819-16.848 4.765-3.407 11.069-8.682 15.326-10.896 5.786-3.575 11.065-4.595 14.813-5.784 0 0 7.025-1.288 10.556-2.046 10.901-3.062 26.904-2.554 32.014-.68 3.063.345 3.063.345 7.32.853 14.645 1.021 27.417 11.059 32.014 18.213.508 3.062 3.744 5.956 3.744 5.956 5.451 6.469 8.514 7.997 10.556 10.551 2.047 2.214 4.262 5.956 6.304 9.363 1.534 3.234 4.597 9.531 8.682 13.618 4.262 4.423 5.11 10.892 2.728 14.462-3.068 3.071-1.194 6.129 2.891 8.002 6.812 5.616 7.325 9.699 10.561 17.868 2.723 7.662 5.451 11.744 6.812 18.553.513 8.17-3.068 9.876-5.537 11.236-2.805 1.356-8.26.848-8.26.848-.935-.34-2.21-.68-2.21-.68 4.429 5.788 3.835 12.416 3.744 13.79-.082 1.275-.681 1.529-.681 1.529-1.107.599-2.809.422-2.809.422-2.301.599-.935 2.132-.935 2.132 2.551 1.529.681 4.595.681 4.595-2.641 2.636-4.425 7.145-4.425 7.145-1.194 2.046.849 8.682.849 8.682 2.042 7.317-1.021 10.551-1.021 10.551-2.728 2.554-4.938 4.255-6.985 4.935-1.843.617-7.829-.34-7.829-.34-2.56.172-8.854 2.041-8.854 2.041-5.963 1.025-10.293 2.813-18.054 1.701-3.576-.508-2.882 4.749-2.896 5.448-.168 8.682-1.702 12.937-1.702 12.937-1.189 6.301-2.723 15.487-2.723 15.487-1.362 19.828.168 25.104.168 25.104 0 .767-.676.431-.676.431-14.305 0-34.742-8.85-34.742-8.85-9.195-5.793-28.106-14.425-35.931-16.684-20.532-5.929-33.884-3.742-54.143 0l-1.194-1.021c13.62-12.425 24.517-23.829 25.883-45.104.168-6.637.168-17.356-5.451-24.337l-1.362-1.533c-.172 10.043-6.812 16.512-6.812 16.512 1.194-6.977-1.194-6.637-1.194-6.637-3.063 8.846-11.065 18.553-11.065 18.553l-1.366-.685c-1.194 3.407-2.909 6.355-3.576 9.018-.849 3.407-4.765 8.342-4.765 8.342-.513-4.255-1.366-6.641-1.366-6.641-1.702 5.62-6.127 12.597-6.127 12.597-2.896 3.407-4.597 9.023-4.597 9.023-8.006-20.255 2.555-55.656 2.555-55.656-1.28-1.447-4.938 6.981-4.938 6.981-.513-22.473 11.237-50.893 11.237-50.893zm101.13 62.134c-.44-1.701-3.2-1.551-5.156-1.347-3 .318-5.723.826-8.623 2.359 1.92-2.885 4.262-3.067 8.723-4.772 1.021-.39.776-2.177.123-3.225-.753-1.198-1.72-1.257-2.101-1.334-3.676-.712-4.865.136-6.799.635-6.762 1.737-13.393 6.823-17.078 11.704-1.071 1.424-.722 2.921-.495 3.234.676.93 1.747 3.497 2.038 3.189 2.737-2.962 6.059-5.689 9.635-4.84-1.534.517-6.898 3.234-8.6 7.176-.104.245.681 1.678 1.702 2.445 1.362 2.295 1.874 3.23 2.637 3.656.495-.041 1.489-1.039 1.761-1.465 3.776-5.004 7.52-8.061 17.909-9.426 2.982-.508 4.684-1.361 4.938-4.087 0 0 .595-1.361-.599-4.083l-.014.181zm-12.413 15.814c.168 2.558-.204 3.711.522 5.371.694 1.583 2.138 2.949 2.687 4.568.427 1.243 1.897 2.831 1.897 3.679.685.685.776 1.288.781 1.293.899 1.175 3.572 2.613 2.637 3.311-1.116.844-4.434.249-6.435-.082-2.564-.422-1.076 1.91-.522 2.146 2.605 1.075 8.083 1.443 9.88 2.431 1.08.599 2.496 1.506 2.964 2.577.345.794.962 1.488 1.484 2.186 1.729 2.309 2.342 3.321 4.125 4.786.894.726 1.933 1.973 1.611 3.089-.377 1.306-1.198 1.583-2.451 1.411-.408-.054-1.643-.426-2.832-.934-2.387-.767-2.9-1.638-4.593-.767-.939.481.418 2.05 1.461 2.608 4.289 2.282 9.431 2.327 13.579 4.736 3.563 2.069 5.727 4.573 5.523 9.871 0 .095 1.28.812 1.357.69 1.234-1.905 4.298.463 5.786-.005.132-.041.191-.839-.027-1.175-.713-1.071-2.237-1.125-2.882-2.159-.685-1.089.309-2.282-.036-3.234-.354-.975-2.001.712-2.619.073-2.732-2.835-4.516-6.197-8.187-7.83 1.534-4.255 2.219-9.023 1.874-11.236-1.021-.848-1.448.513-1.702.685-.844.798-.513 2.549-1.498 3.888-.159.222-1.475-.045-1.856-.377-2.51-2.137-4.838-4.668-6.009-7.703-.045-.113-.549-.739-.658-.889-1.847-2.577-1.729-6.178.408-8.773.231-.272.567-1.869.34-2.05-.359-.286-1.221.318-1.566.671-1.166 1.189-2.156 3.566-4.134 3.357-2.219-.236-3.068-2.477-4.439-3.951-.427-1.452-1.239-2.382-1.026-2.554-1.87-2.726-2.042-4.94-3.762-8.338-.39-.771-.935-1.143-1.684-1.37zm-41.717-162.027s-3.408-.345-11.41 5.784c-8.854 5.448-20.604 13.278-29.118 23.661-6.218 6.21-14.986 15.659-18.222 22.296 0 0-5.278 8.338-8.687 21.956 0 0 1.194 4.423 4.602-1.361 5.954-10.116 28.606-44.165 60.96-69.02l1.534-.082c-16.021 13.777-36.784 32.335-56.962 63.907-.749 1.179-1.729 3.262-1.82 3.425-.903 1.683 1.411 1.946.241 1.66 1.834.449 2.519-2.105 3.699-2.613.731-.313 1.026 1.869 2.192 1.306 4.116-1.991 7.184-6.246 8.886-8.796.086.726 1.021 2.894 1.021 2.894 1.874.508 7.661-7.494 10.729-12.938.849 1.021-.213 3.516.921 2.445 3.504-3.302 6.617-6.845 8.482-10.075 2.174-3.774 4.557-5.475 5.41-12.112 1.362.848 1.334 1.22 1.706 1.529.849-1.021.908-2.087 2.269-3.615 1.475-1.66 1.77-2.953 3.563-4.137.635-.417 2.051-3.076 2.333-4.468.268-1.32 3.204-5.598 3.408-7.013 2.387-4.423 6.472-6.809 9.367-10.211 2.723-2.382.681-6.637-5.106-4.423zm-29.972 132.927c1.194 1.361 2.215-.426 2.215-.426 1.956-2.98 2.383-3.747 3.749-7.739.849-2.64 1.87-3.579 2.719-14.643 2.387 3.575 2.728 10.384 2.728 10.384l.681-.172s2.215-6.296 5.959-8.338c0 0 .34-4.255 4.085-8.51-.508-2.554-.849-4.595-1.362-8.682-1.529-6.809-2.383-18.213-.849-26.038 3.068 16.335 4.852 18.721 4.852 18.721l.685.254c1.275-1.955 1.616-5.362 1.952-8.424 1.534-6.469 4.262-5.784 4.262-7.149-.853-5.276-2.215-13.613-1.362-20.763 1.702 7.825 2.551 7.317 3.744 10.211 1.534 3.575 1.702-.853 1.702-.853-.34-4.591 2.896-9.191-.168-19.91-1.194-7.322-4.602-22.981-3.236-26.555.853-4.427-.681-2.894-.681-2.894s-4.429 1.025-11.069 19.746c-9.703 31.146-18.049 64.338-27.072 91.229 2.719-14.131 17.196-63.998 21.453-82.039 0 0-.599-1.275-1.534.168-1.107 1.279-2.215 2.894-2.809 4.001.086-.073-.508.086-1.194.426l-2.124 3.234s-4.262 5.956-15.925 18.041c-1.956 3.062-2.8 4.477-4.938 9.363-.767 1.783.427 2.041 1.702 1.016 3.15-3.057 3.322-3.057 7.661-6.378.195-.15 3.699-1.406 3.699-1.465-.545.699-1.275 1.161-1.566 1.433-1.194 1.134-4.144 4.459-4.951 5.861-1.974 3.42-4.144 7.671-6.985 12.824-3.563 6.446-6.286 13.94-6.286 13.94-1.874 5.276-1.362 5.784-1.362 5.784 2.555 1.025 1.162 2.318 1.162 2.318-1.162 2.109-1.675 3.81.286 3.048 1.275-.259 1.961-.916 2.487-1.57 1.003-1.238 1.856-2.091 2.542-2.949 1.148-1.424.935-1.851 2.156-3.266 1.588-1.833 2.605-3.366 4.225-4.133-2.809 3.829-2.982 6.55-2.982 6.55l.681.857.513.336s-2.896 3.575-4.257 11.676c-.649 3.842-.513 4.323-1.112 6.451.29-.277 1.961 0 3.467-1.52-.654 2.368-.785 3.566-.785 3.566-.295 1.955-.295 1.615-.295 3.829 0 2.046 0 1.193.681 3.57 3.063-1.361 3.744-1.189 6.631-4.586 1.375-1.284 2.414-4.396 2.818-4.178.767.345.127 2.073-.213 2.844-.463 1.071-.88 1.864-1.057 2.636-.091.39-.477.971.145 1.506.272.231.082.2.958.177.508-.009.985-.798.985-.798s.29-.068.549-.662c.213-.499.595-.767.935-1.021 0 0 .508-.513 1.107-.34zm80.443-132.147c-.522-.562-2.355-.272-2.682-1.048-.222-.522-.481-1.143-.803-1.402-.567-.449-1.352.168-2.133.286-1.067.168-2.169-.059-3.222-.404-1.838 2.1-6.712.712-9.013.871-.281.014 1.448.998 1.756 1.266 1.62 1.374 4.271 1.252 6.24 1.32.318.009.967-.327 1.216-.358 2.115-.29 4.221.426 6.445.817.699.127 2.886-.603 2.197-1.347zm45.411 1.923c-1.366-.876-1.525-2.572-2.265-3.838-.567-.975-1.307-1.751-2.197-2.209-4.003-2.073-8.668-5.679-11.65-5.398-.939.082-1.321 1.089-.785 1.61 1.026 1.003 2.841 1.338 3 2.962 3.989 1.987 10.983 3.316 10.661 7.671-.032.422 2.555-.894 3.236-.798zm-12.322 1.039l-5.06-2.894c-.295-.499-.69-1.098-1.175-1.547-1.135-1.039-1.734-2.273-3.041-3.098-1.743-1.102-3.177-2.545-5.074-3.243-.204-.073-.449.009-.672-.041-.136-.036-.218-.159-.172-.322-.172 0-.404.059-.481-.032-.268-.29-.672-.463-.917-.54-.985-.322-2.119.259-2.986-.504-.508-.449-1.085-.703-1.629-1.052-1.516-.975-3.231-.381-4.865-.127-.318.05-.79.476-1.139.776-.617.522-1.616-.431-2.433-.159-.708.236-1.489 1.061-.817 1.746.726.735 1.706 1.234 2.696 1.483 2.936.739 6.004.018 8.777 1.238.79.349 1.765.748 2.088 1.765-.277.064-.572.318-.821.136-.676-.485-1.425-.481-2.079-.531-4.665-.381-9.313-.762-13.956-.118-.005 1.184.477 2.436 1.552 2.586 1.439.191 3-.259 4.389-.159 1.52.118 3.122 1.098 4.643 1.955.218.127.567.109.812.009.681-.29 1.271-1.27 2.024-.912.458.218.944.422 1.443.504 1.057.186 1.824-.009 2.841.141 2.147.322 3.971 1.76 6.113 1.447 1.588-.236 2.319.304 3.109 1.021-.449-.404 2.936 2.014 3.24 1.42.118-.236 3.54-.426 3.59-.948z" id="Combined-Shape" fill="#000"/><path d="M333.778 92.999c.576.157 1.235.201 2.061.089 2.047 0 2.555-.24 2.896-.322 1.743-.431 3.132.59 4.443-.259-.032.422 2.555-.894 3.236-.798l-.302-.222c1.314.67 3.197.739 3.951.834 3.318.426 9.703.041 11.341.631 3.213 1.157 4.488 2.123 7.493 5.049.449.44 3.095 3.121 3.504 3.656 1.811 2.332 3.054 4.01 4.475 6.528 1.362 2.436 3.749 6.519 4.325 9.59.472 2.518 2.841 3.452 4.679 5.289 1.43 1.424 3.091 3.212 4.18 5.285.903 1.719 1.157 4.178.263 5.639-.917 1.488-2.886 1.651-4.266 1.17-.445-.163-1.325-.644-1.775-.721-2.601-.463-2.124-.513-4.23-.336-.513.041-1.212.653-1.611.812-1.693.662-3.354 1.406-4.974 2.168-.431.204-1.239.431-1.38 1.043-.3 1.279 1.194 1.003 1.92 1.311.862.367.39 1.56-.009 2.382-.041.082-.44.181-.558.277-1.38 1.048-2.723 1.837-3.594 3.352l-.15.944c-.93.504-1.929-.113-1.588-1.048-.104-.163-.34-.767-1.094-.318-.222.136-.803 1.211-.899 1.406-.241.504-.903-.748-1.57.104-.794 1.012.241 1.565.926 1.783-.34.599-.286.739-.286.64-.014-.245-.799 1.592.182 1.678.781.068.699.068 1.38-.612.767-.34.876.526 1.116 1.052.3.644-.141 1.465.259 2.173.141.245.331.549.522.621.876.336 1.52 1.111 2.006 1.837.254.386.821.821 1.321 1.198.118.091.204.599.304.703.613.621 1.271 1.107 1.829 1.529 1.08.803 3.368.245 3.168-1.306-.163-1.22-1.416-1.851-2.573-2.722-.858-.644-1.48-1.511-2.278-2.232-.472-.426-.241-1.229.318-1.601.735-.485 1.697-.308 1.997-.145.953.508 1.548 2.128 2.791 2.717.994.476.735.395 1.865.585.408.068.962.154 1.175-.191.073-.118.154-.218.231-.476-.259-.34.168-.34-.263-.98-.413-.617-.849-.912-.304-1.461.309-.308.595-.621.994-.621.595-.68 1.03-1.279 1.602-.449.608.876.844 1.343 1.389 1.61.372.181.935-.113 1.121-.358 1.693-2.209 1.702-5.117 3.69-6.446.032-.023.713.027.713.023 1.87 2.046 4.679 2.472 8.087 7.408 1.362 1.869 3.486 6.637 3.572 7.657 1.194 2.554 2.215 5.534 2.728 6.977 1.189 3.575 2.215 6.469 3.744 9.023 2.555 4.423 2.896 8.084 1.107 11.826-.595 1.198-2.383 3.067-5.705 3.665-1.026 0-3.068.168-4.171-.685-1.021-.508-2.215-1.615-4.257-4.001-.853-.68-2.982-1.955-5.537-1.443-.427.336-1.239.975-1.62 1.955-.758 1.787-3.826 1.787-5.868.082-4.938-3.57-.172-9.354 1.529-10.978-.849-.508-1.021-.249-2.124-.249-2.301 1.016-2.56 4.677-3.495 6.292-1.534 1.701-3.236 5.108-4.425 7.834-2.728 3.402-3.921 5.444-3.921 5.444l1.366.172s2.637-1.275 4.852-5.022c.853-1.021 1.362-1.701 2.982-1.619 1.017.685 4.593 3.321 11.065 2.558 1.874.082 2.896 1.61 4.175 2.808 5.364 5.017 3.83 11.654 3.83 11.654-3.068-.168-4.257-.34-6.812-.082-1.48.576-3.508.903-5.278 1.701-1.493.395-4.339.172-6.299-.168-1.961 1.615-2.896 4.341-2.896 4.341l1.021.594c.767-.685 2.129-1.619 2.129-1.619 2.042-.426 3.236.172 4.684.172 2.728.254 5.364 0 6.721.594 2.814.767 4.003 2.382 1.961 4.677-.935 1.533-2.723 3.067-4.252 6.133-.513 2.209-.617 3.765.849 5.87.508 2.382 1.534 5.026 1.702 7.576.508 3.402-1.961 4.509-2.301 5.357l-2.637 1.96c-1.702.508-3.236.508-4.77-.172-2.21-.853-3.576-1.189-8.169-1.529-5.283.853-13.969-2.382-17.201-4.087-3.404-2.554-10.901-4.595-15.667-4.595-3.063 0-5.11-.34-8.346-1.361-9.195-2.041-14.473-3.402-20.945-9.358-3.063-2.726-1.362-4.768 1.706-8.51 8.174-13.618 15.662-34.04 14.645-58.722-1.026-7.317 1.702-17.873 1.702-17.873 1.874-6.637 2.383-8.17 3.404-16.34.73-13.744-1.063-23.057-2.145-27.252l.044-.052c.097-.194 2.419-.357 3.276-.697zm-4.46-2.981l-.432-.403.145.239.287.164zm-25.774-9.385l-.033.035c-.592.658-.388.868.138 1.063l-.02-.02c-.349-.356-.306-.749-.085-1.078zm13.132 5.752l-.268-.026c.085.046.176.047.268.026zm56.722 61.661c-.408-.218-.277-.54-.145-.835.3-.68.64-.934 1.203-1.987.64-1.198 2.079-1.415 3.018-3.194.041-.068 1.725-1.438 1.924-1.511 1.057-.372 1.765.426 1.929.876.318.885.295 1.638.399 2.463.517 3.897.118-.386.3 2.196.045.563-1.357 1.27-1.616 1.497-1.661 1.447-3.486 1.157-3.486 1.157-2.092-.304-2.514-.132-3.526-.662zm-68.208 148.945c-27.417-13.958-44.277-22.976-82.763-15.827 20.781-18.721 24.526-36.59 21.798-57.529 4.461 3.865 8.623 7.331 10.647 8.905 1.933 1.502 5.364 3.266 7.488 3.969 1.407.463 2.982.826 5.024 1.842 2.301 1.139 1.275 4.382 2.619 6.854 1.039 1.919 1.557 2.173 2.75 3.439 2.737 2.885.758 4.096 3.876 7.244 1.239 1.257 2.914 1.397 3.744 2.685 2.169 3.357 1.557 5.33 4.048 7.063 3.227 2.25 3.994 7.018 5.342 9.69.867 1.71 3 4.074 4.375 5.398 2.755 2.658 4.407 4.101 5.255 6.142.549 1.325 1.266 2.599 2.197 4.264.408.721 2.405 3.82 3.259 4.414 0 0 2.56 2.577.34 1.447zm14.55-26.719c-.082-1.193-1.443-2.046-1.87-3.661-1.956-6.723-4.339-8.936-7.32-11.744-1.362-1.533-2.383-7.916-3.576-10.81 1.793-2.382 1.452-4.083 1.452-6.464 4.511 1.674 9.585 3.307 14.06 5.112l5.691 2.717s.091 4.45 1.044 8.723l.899 2.998c1.797 5.493 6.399 11.404 8.441 16.666 2.728 7.013 1.171 15.315 1.411 23.344.023.817-.218 3.411-.132 4.945-.513-.422-4.171-4.341-4.684-4.768-1.366-1.275-1.598-1.297-2.029-1.601-2.514-1.801-2.655-1.629-2.846-4.201.277-5.262-2.446-10.365-6.381-13.663-.703-.581-2.042-2.663-2.51-3.824-.949-2.372-1.539-2.059-1.652-3.77zm69.315-96.573c-.744.245-.259 1.193-.118 1.22 3.095.549 4.012.563 6.848 3.275.168.168.785.213 1.062.027.803-.54.349-1.538-.209-1.919-3.245-2.2-4.647-3.566-7.584-2.604zm-17.373 29.935v.172c.113-.268-.295-.408-.172-.68-1.248-.417-2.737.127-3.318 1.234-1.116 2.123-1.407 4.577-.812 6.904.159.621 1.253.821 1.647.295.899-1.193.626-2.817 1.207-4.142.563-1.27 1.017-2.459 1.448-3.783zm-29.286-15.659h-.172c.34 1.746.145 3.579.663 5.23.091.286.44.966.876.989.436.023.617.399 1.003.476.245.045.458.426.454.621-.027.93.463 1.969.926 1.982 2.596.073 4.103 1.651 5.215 3.752.086.172.817.195 1.021-.15 1.262-2.123 2.877-3.679 4.579-5.317.322-.308 1.244-.132 1.498-.508.599-.898.885-1.905 1.343-2.881.772-1.656 1.162-3.52 2.315-4.931 2.042-2.509 2.673-4.282 5.41-6.328.263-.191 1.525-1.538 1.697-1.828.835-1.433 2.033-2.255 2.918-3.071.413-.381 1.189-1.229.808-1.379-1.348-.531-1.18.494-3.567 1.905-1.647.966-1.498 2.205-3.703 2.699-1.402.318-3.023.758-4.153 1.511-2.523 1.678-4.797 3.021-7.416 4.264-2.119 1.003-4.448 1.443-6.776 1.388-2.02-.041-3.921-.844-5.963-.984-.281-.018-.014.449-.34.349-.118.989.395 1.901 1.366 2.209z" id="Combined-Shape" fill="#5B2B2F"/><path d="M120.265 140.407c-5.623 7.997-9.708 20.595-11.75 29.613 2.551-1.361 2.723-1.193 5.11-2.041.849-4.255 7.561-28.887 6.64-27.572zm33.035 277.43c3.467 8.32 3.912 16.34.849 31.827-3.404-3.234-3.576-6.129-6.131-7.662-.336 8.85-.676 11.577-2.378 15.491-3.581 6.977-4.602 10.551-4.77 17.356-5.963-4.935-7.497-11.74-11.582-15.655-2.896-2.899-8.682-8.342-10.724-11.917-.34 4.26 0 5.793-1.702 9.876-1.371-4.718-1.534-6.129-4.77-10.043-4.262-5.956-13.792-19.234-16.007-33.355-.513-2.386-1.874-9.367-3.404-18.894-1.194 3.23-3.236 5.784-5.283 6.292-1.021.513-1.021-.848-1.021-.848.849-3.062 1.194-6.469.849-9.023-.508-3.742-1.529-12.085-3.404-14.126h-.849c.168 5.616-2.042 8.17-3.408 10.043-.168-4.427 0-7.834-1.021-10.043-.508-1.533-1.702-2.894-2.042-1.361-.849 4.427-1.194 5.276-1.194 9.363-.34 6.124-.34 8.17-1.021 13.278-.336 3.742-1.529 8.333-4.938 12.933-.676-4.083-3.236-7.317-3.236-7.317 0 4.935 1.026 12.253-2.042 16.167-3.744 5.103-4.257 7.657-5.446 11.404-.517-4.427-1.874-3.067-2.56-5.448-2.719 11.577-11.233 20.427-14.301 22.468 2.042-4.768 3.744-10.216 4.085-13.618 0 0-.508-12.593-2.383-19.746-4.665-22.269-6.917-73.719-3.404-93.266 8.455-69.646 44.454-133.576 74.97-191.137h-3.794v-13.45h4.089l5.532-12.42 3.663 2.808 7.575-23.063 3.322 16.934 14.473-11.323-11.75 26.728h4.035c-.644 1.402-1.293 2.794-1.902 4.219l-24.78.036v5.462h22.579c-.513 1.334-.971 2.713-1.452 4.069h-8.069l6.603 4.264c-.431 1.32-.84 2.654-1.239 3.992l-2.945-1.914c-1.212 5.434-5.106 24.051-4.234 35.016 10.388 10.043 18.049 19.746 16.856 41.534 0 0 .681.504-3.749-.857 2.215 2.386 2.9 4.26 4.77 8.342.849 6.637 1.362 12.593.849 18.721 0 0 .513 15.151 1.026 19.914 2.042.68.853 6.124 1.021 13.273 0 0-.168 4.427-.853 7.834-4.252-3.407-3.912-3.234-5.106-2.899 1.021 3.407 1.702 3.407 3.744 6.133 0 20.255.681 41.185 2.047 50.376.676 6.637 1.87 14.298 2.383 16.68 1.021 3.067 1.021 5.788 4.085 12.257-1.021 0-3.871.077-5.791-2.382 2.728 5.103 2.728 4.083 4.429 5.784l2.383 17.705-2.723 3.057 3.744 2.386s-.849 7.997.172 15.319c.513 3.407 1.529 6.809 3.917 11.572-4.938.172-5.791-3.915-5.791-3.915-1.362-1.533-3.749-4.935-4.425-4.935-.34 4.935 2.383 6.804 3.576 9.703z" fill="#0A0A08"/><path d="M80.59 348.26c-.595.336-1.362-1.057-1.529 2.518-.091 1.937.25 5.298-1.126 6.709-.281.29-1.035.1-1.607.1.073-1.166-.599-2.858-2.033-2.663-.458.059-.263.721-.427.871-.88.798-2.328.404-2.419-.617-.268-2.817-2.101-5.766-3.086-7.195-.713-1.039-.731-2.631-.549-4.015-2.982 2.522-1.638 6.9.018 9.662 1.085 1.81 1.398 4.609-.104 5.893-.34.29-1.153.272-1.588-.259-2.065-2.536-2.074-5.634-3.091-8.487-.971 1.247-1.534 1.701-1.144 4.749.418 3.248 1.915 4.963 1.579 8.156-.204 1.914.377 4.237-1.212 5.716-.713.667-2.065.24-2.451-.358-1.126-1.756-.785-4.06-1.638-5.965-.231-.517-1.225-.621-1.484-.295-1.298 1.633-1.652 3.679-2.029 5.72-.295 1.574.436 3.098.186 4.74-.082.517-.377 1.089-.717 1.257-.644.322-1.62.313-2.283.005-.858-.399-1.23-1.638-1.484-2.372-1.216-3.529-.495-7.503.849-11.232.826-2.291-2.074-4.051-2.337-6.392-.204-1.851-.917-3.629-.654-5.407.15-1.025.431-2.037.513-3.089-.821 1.238-2.369 1.443-3.404 2.382-.939-2.658.985-5.18.34-7.83-.077.871-.912 1.134-1.366 1.706-.508-1.316-.132-2.849-.808-4.01-.744-1.275-.758-.327-.93-1.851 2.764-44.374 17.237-89.31 39.716-134.388 2.891-10.039 32.182-65.186 36.439-70.975h3.576c-7.665 10.896-15.835 27.572-19.243 42.383-2.555 2.382-7.325 12.765-7.325 12.765-1.189-3.234-.849-4.26-1.357-5.788-2.387 3.742-2.047 8.002-2.047 10.892-.168 3.067-.168 6.296-2.042 9.023-.849 3.234-2.896 5.616-3.744 7.997-.853 2.046-1.026 1.021-1.366 3.234 2.215.34 3.749-3.234 6.985-3.234-.849 6.981-2.891 24.682-5.959 28.257-.685-3.234-2.555-6.301-4.089-6.981l-.513.513c3.576 16.68 2.728 26.891 2.387 32.167.513-.168 3.404-2.382 4.085-1.193-.681 1.193-2.896 2.554-4.765 3.919-1.366 5.616-2.215 12.253-3.236 15.999-2.215-5.108-4.257-13.618-6.472-21.452-.34 10.728 3.236 25.19 5.106 31.831-.168 3.575-.676 8.002-2.042 15.487-1.189-3.23-3.576-7.145-7.32-10.551 3.576 9.023 6.812 20.595 7.153 27.912 3.063-2.041 3.917-2.549 7.153-4.768 0 2.558-3.849 7.303-4.089 7.494-1.021.34-1.738.68-1.021 2.554.667 4.654 1.729 11.45 2.047 18.758zm61.813 16.571c-.88-.866-1.938-1.642-2.097-3.012-.713 1.606-.15 3.298.604 4.718.436.821 1.411 1.261 2.065 1.973.722.794.98 1.864 1.384 2.858.531 1.284-.735 2.019-1.539 2.168-2.483.467-2.555-3.098-3.34-4.84-.554-1.234-2.151-1.719-2.986-2.867-.2-.272-.567-.549-.749-.866-.708-1.252-2.147-2.15-2.764-3.484-.123.59.091 1.166.25 1.678 1.189 3.761 3.1 7.077 4.747 10.629.458.989.971 1.955 1.253 3.03.245.912.118 2.01-.413 2.59-.54.59-1.788-.694-2.033-.263-.912 1.592.508 3.488 1.307 5.058.563 1.093 1.593 2.196 1.112 3.461-.1.249-.436.585-.781.676-1.203.322-2.274-.458-2.909-1.125-2.51-2.636-4.697-5.267-6.694-8.428-.762-1.207-.345-2.781-1.198-3.965-.49-.685-1.411-1.787-2.251-1.034-.286.259-.608.603-.672.984-.268 1.551-.585 3.003-1.525 4.16-.259.318-.785.844-.89 1.039-1.298 2.377-1.57 5.099-1.992 7.88-.104.662-.263 1.497-.953 1.842-.617.313-1.048-.186-1.411-.649-.458-1.542-.921-3.071-1.362-4.518-10.048-38.894-13.983-80.365-12.481-122.421 1.362-40.849 7.493-73.529 20.772-128.672l2.896 1.869s-5.278 22.636-4.252 38.468c7.153 6.129 14.813 14.466 15.149 31.659-.59.249-.676.082-1.189-.34-2.042-2.64-7.493-3.493-11.577-10.13.595 4.169 12.599 20.849 13.452 24.083.168 10.384 1.702 25.444.849 28.42-2.891-1.443-4.425-4.759-4.085-2.717 2.215 5.702 4.085 10.719 6.726 14.893 0 0 .254 14.72-.254 12.679h-.685c-2.383-1.701-4.761-3.742-6.553-5.448-1.103-.594-1.275-2.041-3.318-3.996-3.068-2.808-4.77-5.194-6.045-5.707-3.236-2.295-5.451-3.062-7.325-3.661-.599 0-1.784-.168-1.784-.168s6.127 5.194 10.044 11.069c4.684 5.611 6.64 8.927 8.26 12.334 1.784 3.407 4.339 6.809 6.386 9.703 0 4.681-.34 20.255-.086 22.89l-1.28-.934c-3.059-1.873-6.386-6.042-9.195-11.486-1.529 7.825 6.812 17.02 10.647 20.082 1.275 14.552 1.275 21.357 3.658 36.676l-.172 1.193c-3.404-2.382-6.98-6.124-11.233-12.253-.345 5.952 5.614 13.786 11.918 21.271.413.494.572 1.071.676 1.66-.717-1.03-3.15.213-4.08-.708zm-49.814 16.893l-.422.367c-.681.508-2.21.717-2.383-.508-1.874-8.338-2.896-18.721-2.896-27.231.853-2.214 3.236-6.301 5.106-10.724l-.168-1.021c-2.042 1.021-5.451 4.427-6.131 6.296l-.849-1.193c-.681-3.402-1.366-10.039-1.366-17.02-.34-1.275.172-2.041.685-3.062 1.357-3.234 2.9-6.836 4.085-10.384 1.026-3.575 6.721-14.634 8.428-17.193l-1.107 1.025c-3.15 1.107-11.237 10.892-12.258 11.572l-.767.086c.427-9.785 3.15-31.573 5.024-44.932 1.874-5.026 16.515-20.345 13.111-17.619-6.644 2.382-8.854 4.768-10.221 5.448l-2.042.68c2.038-9.499 6.272-43.848 10.729-53.106 3.236-5.616 6.472-7.145 8.859-13.273l-1.702.848c-1.194 1.198-6.472 5.108-9.712 9.535l-1.021.168c1.534-4.423 2.042-9.191 5.11-15.315.853-2.558 2.215-3.575 3.236-5.788 2.555-3.234 3.572-4.427 5.959-5.616 1.189-.513 3.408-1.365 3.408-1.365-6.803 27.876-9.199 50.543-11.242 81.531-1.738 41.992 1.035 91.452 12.136 128.041l-.159.231c-.69 1.179-1.806 1.728-3.023 2.2-.672.249-1.434-.24-1.579-.821-.821-3.302-3.104-5.661-4.021-8.828-1.407.014-2.791.331-3.722-1.039-2.038-3.008-1.62-6.373-1.897-9.68-.454.395-1.008.667-1.343 1.202-3.227 5.203-4.466 10.61-5.845 16.485zm43.682-275.616l5.278-4.595-4.425 8.596-.853-4.001zm-16.175 11.069l2.378-5.874 6.812 5.874h-9.19zm7.829-6.473l3.154-11.232 2.21 15.832-5.364-4.6z" id="Combined-Shape" fill="#fff"/><path d="M149.074 421.648c2.387 4.423 3.236 13.446 1.702 16.684-2.551-4.26-5.959-9.195-9.022-10.56 1.534 5.108 1.702 11.622 1.702 17.365 0 7.489-3.408 14.298-5.278 18.145-.853-1.365-1.67-2.146-2.691-3.847-3.44-4.94-5.655-5.961-9.739-10.724-5.11-4.26-9.54-11.912-9.708-17.873l-.853.168c.345 3.407-1.189 5.072-.681 9.499-4.252-2.69-11.305-13.509-13.111-24.133-.681-3.234-2.042-9.703-2.723-16.172-.853-6.637-2.896-10.551-3.404-14.466-.213-.64.218-2.858-1.874-.168-1.194 1.533-2.387 1.189-1.62-1.107.372-1.111.536-1.547.817-2.735 1.38-5.874 2.619-11.282 5.845-16.485.336-.535.89-.807 1.343-1.202.277 3.307-.141 6.673 1.897 9.68.93 1.37 2.315 1.052 3.722 1.039.917 3.166 3.2 5.525 4.021 8.828.145.581.908 1.071 1.579.821 1.216-.472 2.333-1.021 3.023-2.2l.159-.231c1.307 4.314 2.764 8.388 4.307 12.325.118.345.241.685.359 1.007l.34.939c.191.499.372.953.554 1.397l.277.685c.268.621.517 1.179.758 1.638-.05-.449-.168-1.061-.322-1.742l-.059-.286c-.154-.68-.349-1.452-.576-2.291l-.113-.435c-.236-.866-.49-1.778-.762-2.731l-.109-.367c-.29-1.007-.595-2.032-.903-3.071.363.463.794.962 1.411.649.69-.345.849-1.179.953-1.842.422-2.781.694-5.503 1.992-7.88.104-.195.631-.721.89-1.039.939-1.157 1.257-2.608 1.525-4.16.064-.381.386-.726.672-.984.84-.753 1.761.349 2.251 1.034.853 1.184.436 2.758 1.198 3.965 1.997 3.162 4.184 5.793 6.694 8.428.635.667 1.706 1.447 2.909 1.125.345-.091.681-.426.781-.676.481-1.266-.549-2.368-1.112-3.461-.799-1.57-2.219-3.466-1.307-5.058.245-.431 1.493.853 2.033.263.531-.581.658-1.678.413-2.59-.281-1.075-.794-2.041-1.253-3.03-1.647-3.552-3.558-6.868-4.747-10.629-.159-.513-.372-1.089-.25-1.678.617 1.334 2.056 2.232 2.764 3.484.182.318.549.594.749.866.835 1.148 2.433 1.633 2.986 2.867.785 1.742.858 5.307 3.34 4.84.803-.15 2.07-.885 1.539-2.168-.404-.993-.663-2.064-1.384-2.858-.654-.712-1.629-1.152-2.065-1.973-.753-1.42-1.316-3.112-.604-4.718.159 1.37 1.216 2.146 2.097 3.012 1.003.998 3.799-.576 4.239.98.526 1.855 1.411 4.269 2.687 7.072-.254.771 2.133 4.681.939 9.621l-2.555 4.935s2.383 2.209 3.408 4.083c-.177.685.508 6.469 0 10.551-2.728-.68-3.921-.513-5.623-4.423-2.723 11.059 1.194 18.553 3.576 23.997zm-106.462-85.255c.172 1.529.15.59.894 1.864.676 1.161.3 2.695.808 4.01.454-.572 1.289-.835 1.366-1.706.644 2.649-1.28 5.171-.34 7.83 1.035-.939 2.582-1.143 3.404-2.382-.082 1.052-.363 2.064-.513 3.089-.263 1.778.449 3.556.654 5.407.263 2.341 3.163 4.101 2.337 6.392-1.343 3.729-2.065 7.703-.849 11.232.254.735.626 1.973 1.484 2.372.663.308 1.638.318 2.283-.005.34-.168.635-.739.717-1.257.25-1.642-.481-3.166-.186-4.74.377-2.041.731-4.087 2.029-5.72.259-.327 1.253-.222 1.484.295.853 1.905.513 4.21 1.638 5.965.386.599 1.738 1.025 2.451.358 1.588-1.479 1.008-3.801 1.212-5.716.336-3.194-1.162-4.908-1.579-8.156-.39-3.048.172-3.502 1.144-4.749 1.017 2.853 1.026 5.952 3.091 8.487.436.531 1.248.549 1.588.259 1.502-1.284 1.189-4.083.104-5.893-1.657-2.763-3-7.14-.018-9.662-.182 1.384-.163 2.976.549 4.015.985 1.429 2.818 4.378 3.086 7.195.091 1.021 1.539 1.415 2.419.617.163-.15-.032-.812.427-.871 1.434-.195 2.106 1.497 2.033 2.663.572 0 1.325.191 1.607-.1 1.375-1.411 1.035-4.772 1.126-6.709.168-3.575 1.017-2.218 1.611-2.554 0 0 .259 1.701-.082 6.637.508 6.129-.172 14.126-1.879 15.999-1.525-1.529-1.702-2.894-3.744-3.407-5.446 2.558-5.106 25.875-4.77 29.45-.082.848-1.357 0-1.357 0-3.068-3.067-4.429-6.809-5.278-8.85 0 0-1.194-1.365-1.194 0-1.534 4.931-1.026 18.381-.34 21.615.681 3.91.168 6.124-1.702 9.871-.345 1.021-1.026 1.193-1.026-.168-.168-1.533-1.194-2.214-1.702-3.747 0 0-1.194-2.214-1.534 0-1.017 5.784-4.252 12.765-5.446 14.974l-.853.513c.345-5.444-1.357-13.954-2.551-20.255-2.728-16.34-5.451-31.659-5.451-53.955 0-10.043.545-20.849.545-20.849l.304.34zm21.321-1.619c-.545-2.382.309-2.89.327-4.722.014-1.198-.717-2.327-.735-3.443-.005-.404.703-1.302 1.107-.907.531.535 1.316.744 1.679 1.071.794.703.59 2.15 1.725 3.053 1.275 1.007.585 2.808.3 4.241-.077.408-.418 1.152-.89 1.293-.953.29-2.011.1-3.036.1.418-.499-.363-.195-.477-.685zm-12.29-15.655c-.118-1.964-.767-4.749 2.178-3.969.926.249 1.135 1.624 1.153 2.273.05 1.787.458 3.225 1.216 4.781.427.885-.304 1.638-.749 2.286-1.144 1.674-3.481 2.631-4.824.962-.812-1.012-1.802-2.513-1.067-3.888.581-1.093 1.03-1.683 1.915-2.617l.177.172zm2.95 20.277c-1.552-2.227-.826-4.282.989-5.607 1.135-.835 2.523-.281 2.841.712.644 2.032 1.439 3.738 2.07 5.775.64 2.078-1.979 4.101-3.826 3.175-1.321-.667-1.23-2.84-2.074-4.055zm1.588 8.075l-.626.24c.34 0 .867-.086.926.045.808 1.774.036 5.058 2.228 6.342 1.684.984.041 5.09-2.151 5.276-1.402.122-3.045-1.479-3.381-2.577-.49-1.61-.858-3.978.386-5.657.667-.903.676-2.291 1.434-2.949.368-.313.44-.962 1.185-.721zm14.051-4.21c-.576-.753-.59-1.76.054-2.241.599-.44 1.625-.231 2.237.295.172.145.799.549.971.685 1.838 1.452 2.95 3.407 1.97 5.63-.281.635-1.357 1.225-2.119.658-.595-.449-1.416-.472-1.829-1.234-.654-1.22-.386-2.613-1.284-3.792zm-20.123-13.759c0-.113.508.68.431 1.198.118-.807 1.87 5.053-.572 6.582-1.071.676-3.268.39-3.608-1.143.172-2.722.776-4.532 1.983-6.396.508-.794 1.425-1.329 1.765-.24zm47.358 16.843c1.053.789 2.101 1.588 2.414 2.989.222.993-.399 1.964-1.339 2.15-2.66.531-2.628-2.772-2.451-4.527.059-.612.867-.989 1.375-.612zm6.358 6.224c1.008 1.034 1.666 2.314 1.988 3.752.363 1.61-.386 3.135-1.189 4.251-.34.472-1.634-.281-2.256-.925-.971-1.012-1.416-2.418-1.793-3.72-.345-1.207.014-2.794.994-3.552.463-.358 1.62-.449 2.256.195zm24.353-2.05h-.681c1.162-.027 2.151.667 2.782 1.452.985 1.243-.685 3.479-2.02 2.813-1.266-.64-2.296-2.372-1.343-3.86.182-.295.785-.367 1.262-.404zm-11.691 15.659c-.486-.249-1.257-1.828-.876-2.881.345-.948 1.421-1.325 2.346-1.161 1.035.186 1.72.939 2.324 1.715 1.552 1.996 1.988 5.131-.023 6.818-.826.69-2.306.526-2.896-.454-.731-1.225-.195-2.218-.762-3.525l-.113-.513zm14.151 1.098c.958.758 2.024 1.969 1.38 3.112-.209.363-.767.948-1.044.78-2.129-1.293-4.842-1.361-5.973-3.656-.259-.517-.64-1.052-.526-1.665.209-1.071.204-2.128 1.035-2.835.794-.676 1.933-.535 2.787.018 1.529.984.953 3.157 2.342 4.246zm-22.529-2.137c1.57 1.896.617 4.432 1.262 6.677.354 1.211-.3 2.472-1.334 2.935-1.461.653-2.591-.88-3.073-2.146-.808-2.109-.073-4.387-.059-6.596.005-.345.25-.776.504-.953.744-.499 1.974-.794 2.7.082zm9.081-26.669c-.377-1.061-1.402-1.837-.853-2.885.154-.29.726-.218 1.13-.327 1.221-.331 2.646-.136 3.445.73.626.671 1.053 1.479 1.579 2.323.545.876.663 1.905 1.026 2.871.386 1.052-.045 2.232-.871 2.726-.958.576-1.362 1.08-2.778.458-.531-.236-.862-1.384-1.103-1.819-.336-.59-.304-2.259-.74-2.799-.39-.481-.608-.64-.835-1.279zm-.921 5.738c1.135 1.111 2.029 2.368 2.383 3.797.458 1.842.209 4.618-1.765 5.217-1.207.363-2.778.993-3.762.077-1.234-1.148-2.732-2.74-1.992-4.414.717-1.638 3.113-2.599 2.973-4.668-.023-.372.576-.426.785-.413.427.023.98.018 1.38.404z" fill="#FFB612"/></g></svg>